<svg height="81" viewBox="0 0 81 81" width="81" xmlns="http://www.w3.org/2000/svg" xmlns:xlink="http://www.w3.org/1999/xlink"><filter id="a" filterUnits="userSpaceOnUse" height="81" width="81" x="0" y="0"><feOffset dy="8"/><feGaussianBlur result="blur" stdDeviation="6"/><feFlood flood-color="#e88600" flood-opacity=".302"/><feComposite in2="blur" operator="in"/><feComposite in="SourceGraphic"/></filter><g filter="url(#a)"><circle cx="22.5" cy="22.5" fill="#e88600" r="22.5" transform="translate(18 10)"/></g><path d="m30.282 24.8c-.069.1-.14.2-.215.293a7.227 7.227 0 0 1 -.474.552 6.566 6.566 0 0 1 -.527.492 5.567 5.567 0 0 1 -.575.415c-.072.044-.146.084-.219.127s-.15.075-.224.113a3.716 3.716 0 0 1 -.977.438 3.529 3.529 0 0 1 -.529.106l-.144.012a3.838 3.838 0 0 1 -.419.014 4.272 4.272 0 0 1 -1.136-.189 6.51 6.51 0 0 1 -1.108-.45 6.708 6.708 0 0 0 .958.7 5.57 5.57 0 0 0 .538.286 5 5 0 0 0 .583.216q.147.044.3.079a1.863 1.863 0 0 1 -.649.676 1.568 1.568 0 0 1 -.952.181 3.357 3.357 0 0 1 -.985-.278c-.1-.032-.209-.057-.313-.093l-.314-.112a11.512 11.512 0 0 1 -1.694-.863 9.507 9.507 0 0 1 -1.522-1.109 4.028 4.028 0 0 1 -.588-.65 1.828 1.828 0 0 1 -.322-.682.97.97 0 0 1 -.018-.318.908.908 0 0 1 .081-.3 1.269 1.269 0 0 1 .182-.285 1.555 1.555 0 0 1 .123-.129c.021-.021.044-.039.065-.057l.048-.037-.028-.042c.162.188.309.342.43.465s.242.232.315.295.11.092.11.092a9.732 9.732 0 0 1 -1.325-2.358 6.342 6.342 0 0 1 -.462-2.547 4.692 4.692 0 0 1 .214-1.22 5.255 5.255 0 0 1 .514-1.114 4.122 4.122 0 0 1 .73-.916 2.417 2.417 0 0 1 .9-.537.966.966 0 0 1 .122-.034c.041-.009.081-.024.123-.029a2.22 2.22 0 0 1 .253-.033 2.6 2.6 0 0 1 .518.012 3.823 3.823 0 0 1 1.042.306 7.123 7.123 0 0 1 1.873 1.286c.28.258.547.532.8.811a5.8 5.8 0 0 1 .621.844 4.291 4.291 0 0 1 .624 1.831 2.758 2.758 0 0 1 -.322 1.65 1.453 1.453 0 0 1 -.491.512 1.244 1.244 0 0 1 -.3.133c-.053.008-.105.025-.159.03l-.081.007h-.041-.041a1.781 1.781 0 0 1 -.668-.151 2.557 2.557 0 0 1 -.6-.348 3.609 3.609 0 0 1 -.844-.96 5.7 5.7 0 0 1 -.477-.972 7.465 7.465 0 0 1 -.251-.778c-.058-.216-.092-.385-.114-.5l-.023-.129-.007-.043a6.808 6.808 0 0 0 .177 1.634 5.132 5.132 0 0 0 .612 1.542 3.369 3.369 0 0 0 1.209 1.184 2.561 2.561 0 0 0 .837.306 1.989 1.989 0 0 0 .937-.069 2.176 2.176 0 0 0 .805-.479 2.753 2.753 0 0 0 .547-.714 3.815 3.815 0 0 0 .427-1.638 4.864 4.864 0 0 0 -.213-1.6 5.847 5.847 0 0 0 -.649-1.412c-.065-.11-.139-.212-.211-.315s-.149-.2-.226-.3c-.039-.048-.077-.1-.116-.145l-.116-.134c-.077-.09-.155-.178-.236-.264a10.291 10.291 0 0 0 -1.014-.964 7 7 0 0 0 -2.051-1.21c.114-.751.251-1.514.4-2.266q.243-1.206.543-2.4c.2-.792.427-1.577.686-2.345a17.107 17.107 0 0 1 .912-2.222 7.864 7.864 0 0 1 .59-.994 4.26 4.26 0 0 1 .343-.428 2.518 2.518 0 0 1 .375-.345 1.576 1.576 0 0 1 .39-.218.963.963 0 0 1 .385-.059 1.271 1.271 0 0 1 .406.1 1.215 1.215 0 0 1 .361.222 1.64 1.64 0 0 1 .457.777 4.005 4.005 0 0 1 .14 1.069 10.5 10.5 0 0 1 -.286 2.329 22.962 22.962 0 0 1 -.662 2.332c-.26.77-.551 1.534-.867 2.285q-.119.282-.242.561l-.125.277-.031.068v.005c-.083-.04-.163-.08 0 0l-.011.023v.008c2.1 1.07.583.293 1.053.53l.009-.016.073-.131c.2-.352.408-.7.622-1.052.428-.7.878-1.377 1.353-2.037a21.4 21.4 0 0 1 1.511-1.889 11.747 11.747 0 0 1 .837-.837 6.261 6.261 0 0 1 .9-.686 2.473 2.473 0 0 1 .922-.364 1.018 1.018 0 0 1 .761.184 1.557 1.557 0 0 1 .171.142c.025.027.053.053.077.08l.07.084a1.33 1.33 0 0 1 .2.381 2.087 2.087 0 0 1 .06.959 5.118 5.118 0 0 1 -.377 1.271 10.636 10.636 0 0 1 -.642 1.249 20.05 20.05 0 0 1 -1.667 2.349l-.231.28-.117.139-.227.264c-.163.187-.329.373-.5.56s-.362.378-.546.57l-.551.573-.1.107-.027.029-.015.016-.008.008s.007 0 .01 0l.1-.012.456-.051.983-.111.242-.03c.076-.007.145-.01.218-.015a2.913 2.913 0 0 1 .4 0 2.352 2.352 0 0 1 .3.039c.047.012.1.02.142.034a1.718 1.718 0 0 1 .264.094 1.386 1.386 0 0 1 .429.292 1.41 1.41 0 0 1 .287.435 2.2 2.2 0 0 1 .094.267 2.839 2.839 0 0 1 .057.3 3.87 3.87 0 0 1 -1.67 2.845 5.051 5.051 0 0 1 -.985.588 4.953 4.953 0 0 1 -1.032.35 3.562 3.562 0 0 1 -.5.071 2.312 2.312 0 0 1 -.464-.008 1.415 1.415 0 0 1 -.385-.094.609.609 0 0 1 -.23-.159c-.014-.014-.019-.031-.032-.045a.15.15 0 0 1 -.018-.036l-.019-.043a1.34 1.34 0 0 1 -.058-.173 1.1 1.1 0 0 1 -.028-.354 1.589 1.589 0 0 1 .241-.694 2.558 2.558 0 0 1 1.012-.935 1.985 1.985 0 0 0 .958-.868 6.866 6.866 0 0 1 -1.176.514 2.428 2.428 0 0 0 -.437.191 3.112 3.112 0 0 0 -.751.577 2.426 2.426 0 0 0 -.528.828 1.915 1.915 0 0 0 -.083 1.036l.03.129.039.125a.49.49 0 0 0 .027.069l.033.073a.787.787 0 0 0 .078.138 1.378 1.378 0 0 0 .2.237 1.647 1.647 0 0 0 .229.178 1.964 1.964 0 0 0 .241.134c.081.033.163.07.244.094a2.345 2.345 0 0 0 .244.066l.122.026.12.018a3.854 3.854 0 0 0 .393.03 1.882 1.882 0 0 0 -.194.557 1.72 1.72 0 0 0 .1.921c.009.024.018.048.028.071l.036.07a1.948 1.948 0 0 0 .3.432c-.031.041-.061.085-.09.124zm5.188-4.129a2.273 2.273 0 0 1 -.124.568 5.638 5.638 0 0 1 -.616 1.183l-.2.288-.2.269c-.07.087-.145.169-.217.254s-.154.158-.23.237-.161.146-.244.216l-.127.1-.063.049-.066.044-.132.088a.753.753 0 0 1 -.068.04l-.038.021-.046.026a1.664 1.664 0 0 1 -.187.094l-.094.044-.1.035a2.144 2.144 0 0 1 -1.294.258 1.7 1.7 0 0 1 -.53-.159 1.472 1.472 0 0 1 -.442-.342l-.04-.045c-.012-.015-.022-.031-.033-.047a1.4 1.4 0 0 1 -.26-.707 1.75 1.75 0 0 1 .053-.563 4.979 4.979 0 0 0 1.351-.187 6.613 6.613 0 0 0 .821-.294 6.863 6.863 0 0 0 .756-.4 7.1 7.1 0 0 0 2.018-1.864l.02.013a.765.765 0 0 1 .268.323.963.963 0 0 1 .064.463z" fill="#fff" transform="matrix(.899 -.438 .438 .899 9.207 29.662)"/></svg>