<svg height="81" viewBox="0 0 81 81" width="81" xmlns="http://www.w3.org/2000/svg" xmlns:xlink="http://www.w3.org/1999/xlink"><filter id="a" filterUnits="userSpaceOnUse" height="81" width="81" x="0" y="0"><feOffset dy="8"/><feGaussianBlur result="blur" stdDeviation="6"/><feFlood flood-color="#e88600" flood-opacity=".302"/><feComposite in2="blur" operator="in"/><feComposite in="SourceGraphic"/></filter><g filter="url(#a)"><circle cx="22.5" cy="22.5" fill="#e88600" r="22.5" transform="translate(18 10)"/></g><g fill="#fff"><path d="m41.864 22.828a1.14 1.14 0 0 0 -1.491-.617c-.79.331-3.154 1.334-3.154 1.334a1.635 1.635 0 0 0 -.851-1.719 1.648 1.648 0 0 0 .3-1.646 1.629 1.629 0 0 0 -.493-.7c-.374-.267-.708.057-.813-.2-.067-.163.074-.214.181-.333a1.636 1.636 0 0 0 -1.828-2.629l-4.953 2.052a.2.2 0 0 1 -.149-.361c.4-.211 1.246-.562 1.381-1.023a7.205 7.205 0 0 0 -.135-2.671 1.813 1.813 0 0 0 -1.187-1.353 1.442 1.442 0 0 0 -1.9 1.24 16.24 16.24 0 0 1 -1.355 3.7c-.964 1.892-1.454 2.847-1.455 2.85-.106.205-.252.459-.177.639a9.507 9.507 0 0 0 .784 4.339 9.143 9.143 0 0 0 1.739 2.79c-1.01-.033-1.959-.9-2.595-2.435a12.55 12.55 0 0 1 -.925-4.209s-.043 0-.067 0a.66.66 0 0 0 -.731.574 9.5 9.5 0 0 0 .868 3.992 5.091 5.091 0 0 0 1.99 2.544 2.94 2.94 0 0 0 2.234.234 1.929 1.929 0 0 0 1.624.211c.349-.081.72-.183 1.1-.3a34.152 34.152 0 0 0 3.717-1.314c.266-.11 6.787-3.087 7.723-3.5a1.151 1.151 0 0 0 .618-1.489z" transform="translate(8.034 12.251)"/><path d="m53.043 44.817a2.689 2.689 0 0 1 .979 3.675.764.764 0 1 0 1.321.766 4.217 4.217 0 0 0 -1.534-5.758.764.764 0 0 0 -.766 1.322z" transform="matrix(.978 -.208 .208 .978 -17.114896 -5.944886)"/><path d="m58.974 34.576a5.383 5.383 0 0 1 1.96 7.356.764.764 0 1 0 1.321.766 6.918 6.918 0 0 0 -2.516-9.444.764.764 0 0 0 -.766 1.322z" transform="matrix(.978 -.208 .208 .978 -19.949834 2.743942)"/><path d="m64.807 24.507a8.041 8.041 0 0 1 2.924 10.977.764.764 0 1 0 1.321.766 9.571 9.571 0 0 0 -3.48-13.064.764.764 0 0 0 -.766 1.322z" transform="matrix(.978 -.208 .208 .978 -22.738108 11.286888)"/></g></svg>