<svg height="146.803" viewBox="0 0 126.207 146.803" width="126.207" xmlns="http://www.w3.org/2000/svg"><path d="m-455.638 1140.25c7.223-5.5 11.616-18.156 17.691-25.636 6.771-8.337 14.586-16.571 18.762-26.422 4.243-10.009 1.114-22.138 2.142-32.864.915-9.579 3.424-20.541 8.337-29.129-1.185 2.073-15.948 5.952-18.908 7.387-4.822 2.335-9.881 4.51-14.3 7.567a45.043 45.043 0 0 0 -18.837 27.789c-5.206 23.652 3.751 47.741 5.113 71.308z" fill="#229f82" transform="translate(534.912 -1026.2)"/><path d="m-394.079 1064.618c-31.8 39.951-34.172 87.073-31.42 135.674" fill="none" stroke="#002b61" stroke-linecap="round" stroke-linejoin="round" stroke-width="4.209" transform="translate(506.791 -1056.197)"/><path d="m-773.851 1113.181c9.525 12.265 26.759 14.8 36.925 27.027-.579-16.282 5.335-29.364-3.058-44.542-8.333-15.068-22.737-20.073-36.795-28.048a70.344 70.344 0 0 1 -16.553-12.583c2.057 9.753 7.015 18.976 9.646 28.669 2.733 10.077 3.186 20.915 9.835 29.477z" fill="#229f82" transform="translate(793.332 -1048.715)"/><path d="m-664.672 1209.227c11.136 9.155 18.3 25.773 23.5 38.839a165.738 165.738 0 0 1 11.479 61.25v3.886" fill="none" stroke="#002b61" stroke-linecap="round" stroke-linejoin="round" stroke-width="5.416" transform="translate(692.875 -1169.107)"/></svg>