<svg height="81" viewBox="0 0 81 81" width="81" xmlns="http://www.w3.org/2000/svg" xmlns:xlink="http://www.w3.org/1999/xlink"><filter id="a" filterUnits="userSpaceOnUse" height="81" width="81" x="0" y="0"><feOffset dy="8"/><feGaussianBlur result="blur" stdDeviation="6"/><feFlood flood-color="#e88600" flood-opacity=".302"/><feComposite in2="blur" operator="in"/><feComposite in="SourceGraphic"/></filter><g filter="url(#a)"><circle cx="22.5" cy="22.5" fill="#e88600" r="22.5" transform="translate(18 10)"/></g><g fill="#fff"><path d="m26.06 45.656v4.708a2.354 2.354 0 1 0 0-4.708zm0 6.518c-.047 0-.093-.006-.14-.007a4.05 4.05 0 0 1 -3.9 3.005h-8.1a4.051 4.051 0 0 1 -4.04-4.039v-9.489h16.18v2.2a4.164 4.164 0 0 1 0 8.328zm-14.834-1.041a2.7 2.7 0 0 0 2.693 2.692h3.9v-10.835h-6.593z" transform="translate(21.635 -13.65)"/><path d="m44.122 18.931c-.081.081-.485.525.162 1.454a3.352 3.352 0 0 1 .605 1.615 1.025 1.025 0 0 1 -1.817.727c.081-.081.485-.565-.121-1.494a3.352 3.352 0 0 1 -.606-1.615 1.008 1.008 0 0 1 1.777-.687zm-4.079-1.05c-.081.081-.485.525.162 1.454a3.352 3.352 0 0 1 .606 1.615 1.025 1.025 0 0 1 -1.817.727c.081-.081.485-.565-.121-1.494a3.352 3.352 0 0 1 -.606-1.615 1 1 0 0 1 1.776-.687zm-4.079 1.05c-.081.081-.485.525.162 1.454a3.352 3.352 0 0 1 .606 1.615 1.025 1.025 0 0 1 -1.817.727c.081-.081.485-.565-.121-1.494a3.352 3.352 0 0 1 -.606-1.615 1 1 0 0 1 1.777-.687z" transform="translate(-.748 3.566)"/></g></svg>