<svg height="81" viewBox="0 0 81 81" width="81" xmlns="http://www.w3.org/2000/svg" xmlns:xlink="http://www.w3.org/1999/xlink"><filter id="a" filterUnits="userSpaceOnUse" height="81" width="81" x="0" y="0"><feOffset dy="8"/><feGaussianBlur result="blur" stdDeviation="6"/><feFlood flood-color="#e88600" flood-opacity=".302"/><feComposite in2="blur" operator="in"/><feComposite in="SourceGraphic"/></filter><g filter="url(#a)"><circle cx="22.5" cy="22.5" fill="#e88600" r="22.5" transform="translate(18 10)"/></g><g fill="#fff"><path d="m10.168 9.724a.968.968 0 0 0 -.968.968v2.908a.484.484 0 1 1 -.968 0v-2.908a1.937 1.937 0 0 1 2.038-1.936c.048-.048 0 .063.731-6.546a1.085 1.085 0 0 0 -2.077-.533l-2.683 6.523c-.576 1.37-.373 1.937 0 7.64a.968.968 0 0 1 -.562.944l-5.679 2.624 5.326 3.873 4.764-3.97c1.351-1.123 1.046-1.869 1.046-8.619a.968.968 0 0 0 -.968-.968z" transform="translate(29.154 20.358)"/><path d="m30.432 16.769a.968.968 0 0 1 -.562-.944l.368-5.476c.1-1.486-.169-1.7-3.041-8.681a1.08 1.08 0 0 0 -2.082.407c0 .048.688 6.624.736 6.672a1.937 1.937 0 0 1 2.038 1.932v2.905a.484.484 0 1 1 -.968 0v-2.906a.968.968 0 0 0 -1.651-.678c-.4.383-.286.184-.286 7.069a2.905 2.905 0 0 0 1.046 2.231l4.764 3.97 5.326-3.873z" transform="translate(16.274 20.372)"/></g></svg>