<svg xmlns="http://www.w3.org/2000/svg" width="27.663" height="22.781" viewBox="0 0 27.663 22.781"><defs><style>.a{fill:#e5646e;}.b{fill:#ffe4c1;}.c{fill:#022220;}.d{fill:#eceaed;}</style></defs><g transform="translate(75.831 -1786.597)"><rect class="a" width="8" height="17" rx="2" transform="translate(-57 1792)"/><rect class="b" width="19" height="17" rx="2" transform="translate(-75 1792)"/><g transform="translate(-75.831 1786.597)"><path class="c" d="M187.867,302.882l-3.493-3.493a.814.814,0,1,1,1.151-1.151l4.306,4.306,4.306-4.306a.814.814,0,0,1,1.151,1.151l-3.493,3.493h8.613a3.254,3.254,0,0,1,3.254,3.254v11.39a3.254,3.254,0,0,1-3.254,3.254H179.254A3.254,3.254,0,0,1,176,317.527v-11.39a3.254,3.254,0,0,1,3.254-3.254Zm6.846,1.627H179.254a1.627,1.627,0,0,0-1.627,1.627v11.39a1.627,1.627,0,0,0,1.627,1.627h15.459Zm1.627,0v14.645h4.068a1.627,1.627,0,0,0,1.627-1.627v-11.39a1.627,1.627,0,0,0-1.627-1.627Z" transform="translate(-176 -298)"/><path class="d" d="M199.5,319.292a1.124,1.124,0,1,1,1.124-1.124A1.124,1.124,0,0,1,199.5,319.292Zm0-4.62a1.124,1.124,0,1,1,1.124-1.124A1.124,1.124,0,0,1,199.5,314.672Z" transform="translate(-176.31 -300.034)"/></g></g></svg>