<svg xmlns="http://www.w3.org/2000/svg" width="375" height="223.215" viewBox="0 0 375 223.215"><defs><style>.a{fill:#ede7de;}.b{fill:#e8d9d0;}.c{fill:#ebebeb;}.d,.h,.j{fill:#fff;}.e{fill:#455a64;}.f,.i{fill:#263238;}.g{fill:#1ec1ab;stroke:#000;}.h,.i{font-size:15px;font-family:Poppins-SemiBold, Poppins;font-weight:600;letter-spacing:0.006em;}.j{stroke:#707070;}.k{fill:#ffbf9d;}.l{fill:#ff9a6c;}.m{fill:#ff725e;}.n{fill:#e0e0e0;}.o{opacity:0.3;}.p{fill:#ae7461;}.q{fill:#6f4439;}</style></defs><g transform="translate(51.534 -33.238)"><g transform="translate(22.603 33.238)"><g transform="translate(-74.137)"><g transform="translate(112.172)"><path class="a" d="M245.317,33.238" transform="translate(-245.317 -33.238)"/></g><g transform="translate(0 0)"><g transform="translate(0 47.127)"><rect class="a" width="25.729" height="51"/></g><g transform="translate(26.718 47.127)"><rect class="a" width="27.8" height="51"/></g><g transform="translate(26.718 101.691)"><rect class="a" width="27.8" height="49.277"/></g><g transform="translate(58.081)"><path class="a" d="M142.809,79.483h29.276V34.242h.989V79.483H196.9V33.238H142.809Z" transform="translate(-142.809 -33.238)"/></g><g transform="translate(88.346 47.127)"><rect class="a" width="23.825" height="51"/></g><g transform="translate(88.346 101.691)"><rect class="a" width="23.825" height="49.277"/></g><g transform="translate(0 101.691)"><rect class="a" width="25.729" height="49.277"/></g><g transform="translate(58.081 101.691)"><rect class="a" width="29.276" height="49.277"/></g><g transform="translate(0 151.85)"><rect class="a" width="25.729" height="44.404"/></g><g transform="translate(88.346 151.85)"><rect class="a" width="23.825" height="44.404"/></g><path class="a" d="M58.47,79.483V34.242h.989V79.483h27.8V33.238H32.741V79.483Z" transform="translate(-32.741 -33.238)"/><g transform="translate(58.081 151.85)"><rect class="a" width="29.276" height="44.404"/></g><g transform="translate(26.718 151.85)"><rect class="a" width="27.8" height="44.404"/></g><g transform="translate(58.081 47.127)"><rect class="a" width="29.276" height="51"/></g></g></g><g transform="translate(233.628 7.608)"><g transform="translate(62.945 0)"><rect class="b" width="4.29" height="92.239"/></g><g transform="translate(0.713 0.713)"><rect class="b" width="61.58" height="91.654" rx="0.117"/></g><path class="c" d="M382.022,140.737H319.139a.061.061,0,0,1-.062-.062V47.718a.062.062,0,0,1,.062-.062h62.883a.062.062,0,0,1,.062.062v92.957A.062.062,0,0,1,382.022,140.737Zm-61.457-1.426h60.029a.062.062,0,0,0,.062-.062v-90.1a.062.062,0,0,0-.062-.062H320.566a.062.062,0,0,0-.062.062v90.1A.062.062,0,0,0,320.566,139.311Z" transform="translate(-319.077 -47.656)"/><g transform="translate(6.914 6.368)"><rect class="d" width="49.288" height="80.285" rx="0.117"/></g><g transform="translate(17.666 29.128)"><rect class="b" width="27.675" height="32.437" rx="0.064"/></g><g transform="translate(18.133 32.028)"><path class="d" d="M378.457,133.92c.036.1-1.33.7-3.929.4a9.6,9.6,0,0,1-4.417-1.765,8.962,8.962,0,0,1-3.432-5.4,7.759,7.759,0,0,1,2.625-7.379,6.883,6.883,0,0,1,1.99-1.166,5.306,5.306,0,0,1,2.49-.287,4.387,4.387,0,0,1,2.489,1.087,3.249,3.249,0,0,1,.982,2.9,4.734,4.734,0,0,1-1.367,2.489,9.006,9.006,0,0,1-2.085,1.536,11.408,11.408,0,0,1-4.973,1.421,9.9,9.9,0,0,1-5.3-1.206,9.634,9.634,0,0,1-3.9-4.043,8.243,8.243,0,0,1-.7-5.663,8.416,8.416,0,0,1,2.985-4.666,7.346,7.346,0,0,1,2.5-1.263,6.225,6.225,0,0,1,2.817-.088,4.6,4.6,0,0,1,2.557,1.442,4.245,4.245,0,0,1,1,2.732,5.2,5.2,0,0,1-.667,2.6,6.969,6.969,0,0,1-1.578,1.9,10.623,10.623,0,0,1-3.92,2.083,10.061,10.061,0,0,1-4.125.319,8.447,8.447,0,0,1-3.589-1.375,7.772,7.772,0,0,1-3.428-5.431,6.556,6.556,0,0,1,1.27-4.656,5.567,5.567,0,0,1,2.349-1.877c.647-.245,1.015-.236,1.031-.175.027.088-.292.231-.817.58a6.127,6.127,0,0,0-1.827,1.963,5.8,5.8,0,0,0-.748,3.977,6.512,6.512,0,0,0,3.048,4.269,7.508,7.508,0,0,0,6.288.6,8.839,8.839,0,0,0,3.147-1.78,3.868,3.868,0,0,0,1.47-2.949,2.119,2.119,0,0,0-1.894-2.092,4.079,4.079,0,0,0-1.809.085,5.213,5.213,0,0,0-1.707.894,6.229,6.229,0,0,0-2.153,3.43,5.994,5.994,0,0,0,.529,4.113,7.437,7.437,0,0,0,2.977,3.095,7.714,7.714,0,0,0,4.1.954,9.332,9.332,0,0,0,4.029-1.1,6.982,6.982,0,0,0,1.608-1.133,2.709,2.709,0,0,0,.816-1.33,1.159,1.159,0,0,0-.33-1.07,2.412,2.412,0,0,0-1.332-.587,3.364,3.364,0,0,0-1.569.133,5.031,5.031,0,0,0-1.462.8,6.086,6.086,0,0,0-2.228,5.642,7.777,7.777,0,0,0,2.637,4.672,9.294,9.294,0,0,0,3.791,1.891C377.034,133.992,378.439,133.722,378.457,133.92Z" transform="translate(-353.44 -108.353)"/></g></g></g><g transform="translate(11.276 256.178)"><g transform="translate(0 0.138)"><path class="e" d="M11.276,455.992H261.1" transform="translate(-11.276 -455.992)"/></g><path class="f" d="M301.1,455.869c0,.075-95.93.137-164.908.137-69,0-164.92-.062-164.92-.137s95.919-.138,164.92-.138C205.174,455.731,301.1,455.793,301.1,455.869Z" transform="translate(-11.276 -455.731)"/></g><g transform="translate(193.931 97.703)"><g transform="translate(19.061 28.88)"><g transform="translate(0 0.13)"><path class="g" d="M393.548,233.111l2.275-3.874a14.3,14.3,0,1,1,2.49,4.477l0,.007Z" transform="translate(-393.548 -210.383)"/></g><path class="g" d="M393.548,232.995s.094.018.294.048l.9.129,3.566.5a.062.062,0,0,0,.07-.053.065.065,0,0,0,0-.035l0-.007-.1.065a14.286,14.286,0,0,0,5.675,4.22,14.042,14.042,0,0,0,4.482,1.025,14.3,14.3,0,0,0,10.173-3.316,14.345,14.345,0,0,0,3.423-17.87,14.221,14.221,0,0,0-4.659-5.123,14.631,14.631,0,0,0-6.193-2.324,14.314,14.314,0,0,0-6.2.586,14.395,14.395,0,0,0-9.781,11.282,14.21,14.21,0,0,0,.582,7.023l.005-.05-1.672,2.92-.419.74c-.092.165-.132.244-.132.244s.06-.089.162-.257l.451-.741,1.714-2.844a.063.063,0,0,0,0-.051,14.207,14.207,0,0,1,15.249-18.58,14.384,14.384,0,0,1,6.071,2.289,13.957,13.957,0,0,1,4.564,5.023,14.14,14.14,0,0,1-13.33,20.832,13.925,13.925,0,0,1-4.425-.984,14.287,14.287,0,0,1-5.65-4.123.063.063,0,0,0-.088-.009.064.064,0,0,0-.017.074l0,.007.065-.088-3.532-.414-.921-.1C393.662,233,393.548,232.995,393.548,232.995Z" transform="translate(-393.548 -210.136)"/><text class="h" transform="translate(15.473 20.33)"><tspan x="-4.245" y="0">2</tspan></text></g><g transform="translate(17.862 69.088)"><g transform="translate(7.284)"><g transform="translate(0.129 0.106)"><path class="d" d="M430.01,296.609A12.467,12.467,0,1,0,409.7,308.5a2.076,2.076,0,0,0,.188.142l.017.012a14.468,14.468,0,0,0,9.973,2.505,11.015,11.015,0,0,0,3.3-.921A12.49,12.49,0,0,0,430.01,296.609Z" transform="translate(-405.324 -286.534)"/></g><path class="f" d="M429.894,296.515a1.038,1.038,0,0,1,.045.2c.026.145.061.338.105.584a12.467,12.467,0,0,1,.121,2.277,12.842,12.842,0,0,1-.7,3.537,12.572,12.572,0,0,1-2.4,4.122A12.964,12.964,0,0,1,425,309.114a12.256,12.256,0,0,1-2.656,1.453,13.264,13.264,0,0,1-6.6.544,14.779,14.779,0,0,1-3.461-1.026,14.467,14.467,0,0,1-1.665-.845c-.273-.156-.539-.328-.8-.5a5.486,5.486,0,0,1-.749-.614,12.393,12.393,0,0,1-3.769-6.851,11.822,11.822,0,0,1-.087-4.016,13.469,13.469,0,0,1,.415-1.929l.325-.921c.1-.308.262-.59.39-.884a12.337,12.337,0,0,1,2.1-3.124l.308-.345.338-.312c.228-.2.44-.423.678-.609a12.508,12.508,0,0,1,1.47-1.022,12.281,12.281,0,0,1,6.372-1.768,11.49,11.49,0,0,1,1.541.087c.5.05.985.178,1.464.26.465.142.927.264,1.364.424.426.188.862.332,1.252.547a12.728,12.728,0,0,1,3.79,2.9,13.107,13.107,0,0,1,1.168,1.58,10.642,10.642,0,0,1,.79,1.449,4.064,4.064,0,0,1,.273.645l.21.579a6.254,6.254,0,0,1,.265.927l.133.577a1.037,1.037,0,0,1,.036.2,1.168,1.168,0,0,1-.064-.193l-.16-.569a6.671,6.671,0,0,0-.289-.914l-.22-.571a4.018,4.018,0,0,0-.283-.635,10.8,10.8,0,0,0-.8-1.424,13.229,13.229,0,0,0-1.172-1.548,12.666,12.666,0,0,0-3.762-2.828c-.386-.208-.816-.347-1.236-.53-.431-.155-.887-.271-1.344-.409-.471-.078-.946-.2-1.44-.248a11.375,11.375,0,0,0-1.514-.078,12.08,12.08,0,0,0-6.242,1.757,12.281,12.281,0,0,0-1.436,1c-.233.183-.44.4-.663.6l-.33.306-.3.339a12.114,12.114,0,0,0-2.055,3.063c-.124.288-.283.564-.381.866l-.317.9a13.22,13.22,0,0,0-.4,1.888,11.57,11.57,0,0,0,.086,3.928,12.146,12.146,0,0,0,3.683,6.7,5.21,5.21,0,0,0,.715.589c.26.172.52.341.789.5a14.239,14.239,0,0,0,1.635.834,14.574,14.574,0,0,0,3.4,1.018,13.072,13.072,0,0,0,6.481-.508,12.067,12.067,0,0,0,2.611-1.411,12.848,12.848,0,0,0,2.037-1.84,12.512,12.512,0,0,0,2.4-4.046,12.967,12.967,0,0,0,.739-3.491,13.558,13.558,0,0,0-.069-2.264l-.078-.586A1.129,1.129,0,0,1,429.894,296.515Z" transform="translate(-405.079 -286.334)"/><text class="i" transform="translate(12.389 18.122)"><tspan x="-4.492" y="0">3</tspan></text></g><g transform="translate(0 9.834)"><g transform="translate(0.137 0.117)"><path class="d" d="M396.583,307.715a2.524,2.524,0,1,1-2.524-2.524A2.524,2.524,0,0,1,396.583,307.715Z" transform="translate(-391.535 -305.191)"/></g><path class="f" d="M396.46,307.61c-.027,0-.023-.225-.131-.6a2.519,2.519,0,0,0-.925-1.326,2.406,2.406,0,1,0,0,3.858,2.522,2.522,0,0,0,.925-1.326c.108-.378.1-.6.131-.6.009,0,.016.055.02.163a1.9,1.9,0,0,1-.047.467,2.51,2.51,0,0,1-.911,1.454,2.612,2.612,0,0,1-2.489.406,2.642,2.642,0,0,1,0-4.979,2.612,2.612,0,0,1,2.489.406,2.512,2.512,0,0,1,.911,1.454,1.894,1.894,0,0,1,.047.466C396.476,307.555,396.47,307.61,396.46,307.61Z" transform="translate(-391.275 -304.969)"/></g></g><g transform="translate(0.969)"><g transform="translate(0.129 0.105)"><path class="d" d="M384.957,165.993a12.854,12.854,0,1,0-20.939,12.261,2.284,2.284,0,0,0,.194.147l.018.012A14.917,14.917,0,0,0,374.512,181a11.371,11.371,0,0,0,3.4-.95A12.877,12.877,0,0,0,384.957,165.993Z" transform="translate(-359.505 -155.605)"/></g><path class="f" d="M384.842,165.9a1.249,1.249,0,0,1,.046.2c.026.149.062.348.108.6a12.845,12.845,0,0,1,.123,2.347,13.22,13.22,0,0,1-.724,3.646,12.964,12.964,0,0,1-2.477,4.249,13.382,13.382,0,0,1-2.122,1.941,12.61,12.61,0,0,1-2.738,1.5,13.683,13.683,0,0,1-6.8.56,15.264,15.264,0,0,1-3.567-1.059,14.936,14.936,0,0,1-1.717-.871c-.282-.161-.555-.338-.829-.519a5.71,5.71,0,0,1-.771-.633,12.769,12.769,0,0,1-3.885-7.061,12.167,12.167,0,0,1-.089-4.14,13.851,13.851,0,0,1,.428-1.988l.335-.949c.1-.318.271-.608.4-.912a12.737,12.737,0,0,1,2.168-3.22l.317-.355.348-.321c.235-.209.453-.436.7-.628a12.937,12.937,0,0,1,1.514-1.054,12.66,12.66,0,0,1,6.568-1.823,11.852,11.852,0,0,1,1.588.09c.518.051,1.016.183,1.509.268.479.147.955.272,1.405.437.44.194.888.342,1.291.563a13.124,13.124,0,0,1,3.907,2.989,13.512,13.512,0,0,1,1.2,1.628,11.056,11.056,0,0,1,.815,1.493,4.178,4.178,0,0,1,.282.665l.216.6a6.374,6.374,0,0,1,.273.955l.139.6a1.25,1.25,0,0,1,.038.2,1.134,1.134,0,0,1-.065-.2l-.165-.587a6.9,6.9,0,0,0-.3-.942l-.226-.588a4.235,4.235,0,0,0-.291-.655,11.143,11.143,0,0,0-.828-1.468,13.589,13.589,0,0,0-1.208-1.6,13.054,13.054,0,0,0-3.879-2.918c-.4-.215-.842-.358-1.274-.546-.445-.16-.914-.28-1.386-.422-.486-.08-.976-.208-1.485-.255a11.63,11.63,0,0,0-1.561-.08,12.455,12.455,0,0,0-6.438,1.812,12.615,12.615,0,0,0-1.481,1.036c-.24.188-.453.412-.683.617l-.34.316-.31.349a12.5,12.5,0,0,0-2.119,3.159c-.128.3-.292.582-.393.894l-.327.93a13.52,13.52,0,0,0-.417,1.947,11.929,11.929,0,0,0,.089,4.051,12.527,12.527,0,0,0,3.8,6.915,5.443,5.443,0,0,0,.738.608c.268.177.537.352.814.511a14.791,14.791,0,0,0,1.686.86,15.054,15.054,0,0,0,3.5,1.049,13.492,13.492,0,0,0,6.685-.524,12.468,12.468,0,0,0,2.692-1.456,13.248,13.248,0,0,0,2.1-1.9,12.917,12.917,0,0,0,2.478-4.172,13.393,13.393,0,0,0,.762-3.6,13.981,13.981,0,0,0-.072-2.334c-.034-.255-.061-.455-.081-.6A1.18,1.18,0,0,1,384.842,165.9Z" transform="translate(-359.261 -155.406)"/></g><g transform="translate(0 25.084)"><g transform="translate(0.138 0.117)"><path class="d" d="M362.891,205.767a2.6,2.6,0,1,1-2.6-2.6A2.6,2.6,0,0,1,362.891,205.767Z" transform="translate(-357.686 -203.165)"/></g><path class="f" d="M362.767,205.662c-.027,0-.023-.232-.133-.622a2.6,2.6,0,0,0-.954-1.369,2.484,2.484,0,1,0,0,3.982,2.6,2.6,0,0,0,.954-1.369c.11-.39.106-.623.133-.622.009,0,.016.057.02.168a1.955,1.955,0,0,1-.049.481,2.589,2.589,0,0,1-.939,1.5,2.69,2.69,0,0,1-2.563.418,2.72,2.72,0,0,1,0-5.126,2.69,2.69,0,0,1,2.563.417,2.589,2.589,0,0,1,.939,1.5,1.956,1.956,0,0,1,.049.481C362.783,205.605,362.777,205.662,362.767,205.662Z" transform="translate(-357.425 -202.943)"/></g><text class="i" transform="translate(13.535 18.21)"><tspan x="-2.475" y="0">1</tspan></text></g><g transform="translate(56.683 37.578)"><g transform="translate(0 33.68)"><g transform="translate(0.135 0.113)"><path class="j" d="M132.625,133.93H97.29a9.225,9.225,0,0,0-9.225,9.225V160.6a9.225,9.225,0,0,0,9.225,9.225h26.28l4.54,7.527,4.247-7.527h.269a9.225,9.225,0,0,0,9.225-9.225V143.155A9.225,9.225,0,0,0,132.625,133.93Z" transform="translate(-88.065 -133.93)"/></g><path class="f" d="M132.5,133.829s.073,0,.218,0l.646.023c.283.026.635.081,1.05.148a10.062,10.062,0,0,1,1.4.412,9.192,9.192,0,0,1,3.373,2.218,9.624,9.624,0,0,1,1.518,2.078,9.384,9.384,0,0,1,.945,2.757,18.1,18.1,0,0,1,.153,3.236q0,1.7.007,3.544c0,2.464.008,5.126.013,7.967q0,2.132,0,4.395a9.408,9.408,0,0,1-1.207,4.493,9.809,9.809,0,0,1-1.464,1.948,9.484,9.484,0,0,1-1.974,1.528,8.867,8.867,0,0,1-2.362.967,9.555,9.555,0,0,1-1.277.242c-.433.034-.876.063-1.31.062l.107-.062-4.242,7.529-.108.192-.113-.188-4.543-7.524.113.064-21.954,0-4.432-.005a9.558,9.558,0,0,1-4.261-1.079,9.374,9.374,0,0,1-4.866-6.8l-.079-.527-.027-.531c-.025-.355-.022-.7-.021-1.049V157.8q0-2.064,0-4.085,0-4.044,0-7.909,0-.966,0-1.919a17.834,17.834,0,0,1,.068-1.905,9.269,9.269,0,0,1,1.166-3.548,9.39,9.39,0,0,1,5.505-4.34c.281-.067.558-.154.841-.2l.849-.126c.57-.034,1.132-.055,1.682-.044l3.252,0,6.113.008,18.447.044,5.015.026,1.3.014c.294,0,.444.014.444.014s-.15.009-.444.014l-1.3.014-5.015.026-18.447.044-6.113.009-3.252,0-.832,0-.829.043-.827.124c-.276.049-.545.135-.82.2a9.156,9.156,0,0,0-5.359,4.24,9.044,9.044,0,0,0-1.13,3.456,17.638,17.638,0,0,0-.063,1.878q0,.954,0,1.919,0,3.863,0,7.909,0,2.022,0,4.085,0,1.031,0,2.073c0,.347,0,.7.021,1.037l.026.516.078.511a9.1,9.1,0,0,0,4.728,6.6,9.289,9.289,0,0,0,4.136,1.046l4.429.005,21.954,0h.075l.039.064,4.535,7.529-.222,0,4.253-7.523.035-.063h.071c.436,0,.859-.027,1.283-.059a9.255,9.255,0,0,0,1.245-.233,8.649,8.649,0,0,0,2.3-.938A9.232,9.232,0,0,0,139,166.888a9.58,9.58,0,0,0,1.433-1.9,9.2,9.2,0,0,0,1.189-4.384q.006-2.261.011-4.392c0-2.841.009-5.5.014-7.967q0-1.847.007-3.544a18,18,0,0,0-.135-3.211,9.284,9.284,0,0,0-.916-2.722,9.534,9.534,0,0,0-1.485-2.061,9.171,9.171,0,0,0-3.32-2.224,10.186,10.186,0,0,0-1.386-.426c-.412-.073-.76-.133-1.042-.166l-.643-.042C132.578,133.839,132.5,133.829,132.5,133.829Z" transform="translate(-87.81 -133.715)"/><g transform="translate(7.494 9.454)"><path class="f" d="M141.044,151.769c0,.076-8.738.138-19.516.138s-19.518-.062-19.518-.138,8.737-.137,19.518-.137S141.044,151.694,141.044,151.769Z" transform="translate(-102.011 -151.632)"/></g><g transform="translate(7.494 13.689)"><path class="f" d="M141.044,159.8c0,.076-8.738.138-19.516.138s-19.518-.062-19.518-.138,8.737-.137,19.518-.137S141.044,159.719,141.044,159.8Z" transform="translate(-102.011 -159.658)"/></g><g transform="translate(7.494 17.924)"><path class="f" d="M141.044,167.821c0,.076-8.738.137-19.516.137s-19.518-.061-19.518-.137,8.737-.138,19.518-.138S141.044,167.745,141.044,167.821Z" transform="translate(-102.011 -167.683)"/></g><g transform="translate(7.494 22.159)"><path class="f" d="M141.044,175.846c0,.076-8.738.138-19.516.138s-19.518-.062-19.518-.138,8.737-.137,19.518-.137S141.044,175.771,141.044,175.846Z" transform="translate(-102.011 -175.709)"/></g><g transform="translate(7.494 26.394)"><path class="f" d="M141.044,183.872c0,.076-8.738.137-19.516.137s-19.518-.061-19.518-.137,8.737-.137,19.518-.137S141.044,183.8,141.044,183.872Z" transform="translate(-102.011 -183.735)"/></g></g><g transform="translate(25.255)"><g transform="translate(0.142 0.12)"><path class="d" d="M182.772,70.117H142.894a6.954,6.954,0,0,0-6.954,6.953V91.1a6.954,6.954,0,0,0,6.954,6.953h28.552l4.539,7.527,4.247-7.527h2.54a6.954,6.954,0,0,0,6.954-6.953V77.07A6.954,6.954,0,0,0,182.772,70.117Z" transform="translate(-135.94 -70.117)"/></g><path class="f" d="M182.645,70.009s.239,0,.7.017a7.252,7.252,0,0,1,1.99.486A7.081,7.081,0,0,1,188,72.453a7.555,7.555,0,0,1,1.109,1.791,7.137,7.137,0,0,1,.535,2.328c.05,3.362.031,7.436.047,12.121q0,.879,0,1.785a9.489,9.489,0,0,1-.128,1.851,7.039,7.039,0,0,1-1.735,3.434,7.042,7.042,0,0,1-3.479,2.073,7.217,7.217,0,0,1-1.042.185c-.355.018-.713.042-1.064.035l-2.144,0,.1-.06-4.24,7.531-.106.187-.111-.184-4.544-7.524.112.063-24.226.007h-4.121a7.158,7.158,0,0,1-3.941-1.072A7.039,7.039,0,0,1,136.355,94a8.084,8.084,0,0,1-.676-3.9q0-3.909,0-7.673,0-1.881,0-3.721,0-.921.006-1.831a7.107,7.107,0,0,1,2.062-4.9,7.234,7.234,0,0,1,2.986-1.782,7.009,7.009,0,0,1,1.69-.28c.569-.033,1.117-.008,1.669-.015l3.249,0,11.85.017,17.158.044,4.665.025,1.213.014c.273,0,.413.014.413.014s-.14.009-.413.014l-1.213.013-4.665.026-17.158.044-11.85.017-3.249,0a10.884,10.884,0,0,0-3.29.292,6.992,6.992,0,0,0-2.88,1.726,6.866,6.866,0,0,0-1.73,2.978,12.951,12.951,0,0,0-.256,3.578q0,1.839,0,3.721,0,3.76,0,7.673a11.756,11.756,0,0,0,.089,1.938,6.375,6.375,0,0,0,.564,1.848,6.765,6.765,0,0,0,2.575,2.892,6.879,6.879,0,0,0,3.8,1.03h4.121l24.226.006h.074l.039.063,4.534,7.529-.216,0L180,97.884l.034-.06h.069l2.144,0c.356.007.7-.015,1.043-.032a7.057,7.057,0,0,0,1.008-.177,6.826,6.826,0,0,0,3.376-2,6.839,6.839,0,0,0,1.693-3.328,9.306,9.306,0,0,0,.13-1.813q0-.906,0-1.785c0-4.682.037-8.766.008-12.113a7.029,7.029,0,0,0-.51-2.289,7.51,7.51,0,0,0-1.078-1.77,7.057,7.057,0,0,0-2.612-1.942A7.624,7.624,0,0,0,182.645,70.009Z" transform="translate(-135.671 -69.889)"/><g transform="translate(8.637 9.815)"><g transform="translate(0 0.137)"><path class="d" d="M152.039,88.749h39.033" transform="translate(-152.039 -88.749)"/></g><path class="f" d="M191.072,88.626c0,.076-8.738.137-19.516.137s-19.518-.061-19.518-.137,8.737-.137,19.518-.137S191.072,88.55,191.072,88.626Z" transform="translate(-152.039 -88.489)"/></g><g transform="translate(8.637 14.049)"><g transform="translate(0 0.138)"><path class="d" d="M152.039,96.775h39.033" transform="translate(-152.039 -96.775)"/></g><path class="f" d="M191.072,96.652c0,.075-8.738.137-19.516.137s-19.518-.062-19.518-.137,8.737-.138,19.518-.138S191.072,96.576,191.072,96.652Z" transform="translate(-152.039 -96.514)"/></g><g transform="translate(8.637 18.284)"><g transform="translate(0 0.137)"><path class="d" d="M152.039,104.8h39.033" transform="translate(-152.039 -104.8)"/></g><path class="f" d="M191.072,104.677c0,.076-8.738.138-19.516.138s-19.518-.062-19.518-.138,8.737-.137,19.518-.137S191.072,104.6,191.072,104.677Z" transform="translate(-152.039 -104.54)"/></g></g></g><g transform="translate(131.552 127.56)"><g transform="translate(14.351)"><g transform="translate(0.611)"><path class="f" d="M330.078,248.891a4.8,4.8,0,0,1-1.318-1.905,5.458,5.458,0,0,1,.356-2.2,4.482,4.482,0,0,0-2.823-5.006c-1.138-.392-2.6-.425-3.178-1.481-.568-1.037.152-2.266.576-3.37a6.746,6.746,0,0,0-.452-5.666,9.238,9.238,0,0,0-.484-1.138,8.87,8.87,0,0,0-7.624-4.908,6.2,6.2,0,0,0-4.7-4.752,5.408,5.408,0,0,0-.568-2.47,7.95,7.95,0,0,0-5.887-3.871,11.218,11.218,0,0,0-9.664,3.2c-1.328,1.367-2.4,3.151-4.2,3.778-1.583.551-3.333.054-5,.269a7.537,7.537,0,0,0-5.279,3.807,16.272,16.272,0,0,0-1.878,6.421c-.242,2.047-.4,4.294-1.823,5.788-1.385,1.457-3.573,1.766-5.3,2.8a7.249,7.249,0,0,0-2.153,9.9c.682.994,1.661,1.907,1.74,3.11.072,1.1-.638,2.077-.97,3.126a4.893,4.893,0,0,0,4.186,6.076c1.429.082,2.96-.475,4.24.164s1.746,2.169,2.559,3.334a6.119,6.119,0,0,0,7.46,1.927c1.051-.516,2.044-1.366,3.211-1.288s2.083,1.074,3.23,1.3c1.5.29,2.926-.815,3.819-2.057s1.515-2.7,2.657-3.721c1.5-1.33,3.6-1.659,5.491-2.311a15.653,15.653,0,0,0,6.95-4.893L313.07,263.4a3.453,3.453,0,0,0,3.061-1.356,4.4,4.4,0,0,0,1.048.527,4.811,4.811,0,0,0,5.212-1.633c.609-.81.987-1.849,1.851-2.38a7.2,7.2,0,0,1,2.566-.585,5.577,5.577,0,0,0,3.271-9.077Z" transform="translate(-267.564 -211.986)"/></g><g transform="translate(15.286 8.546)"><g transform="translate(0 1.321)"><g transform="translate(5.196)"><path class="k" d="M312.462,233.085h0c-2.185,1.376-7.144,7.438-7.241,9.223l.51,36.268c-.081,2.725-.547,5.071,1.047,7.283h0c4.421,5.283,14.653,5.931,16.991,1.58a4.1,4.1,0,0,0,.375-.875,8.086,8.086,0,0,0,.205-.894,28.842,28.842,0,0,0,.533-6.029c.305-3.545.413-5,.412-4.967,0,0,7.577-.688,9.852-10.337,1.131-4.8,1.479-12.78,1.551-19.319a10.7,10.7,0,0,0-.778-3.743c-2.813-7.526-9.279-11.179-17.054-10.511A13.005,13.005,0,0,0,312.462,233.085Z" transform="translate(-305.221 -230.685)"/></g><g transform="translate(12.45 16.697)"><g transform="translate(13.071)"><path class="f" d="M343.739,273.6a8.961,8.961,0,0,1,2.218-.232c.347-.011.678-.054.753-.285a1.757,1.757,0,0,0-.154-1.037q-.393-1.285-.824-2.7a45.141,45.141,0,0,1-1.777-7.024,45.269,45.269,0,0,1,2.338,6.864c.272.946.532,1.846.779,2.709a2,2,0,0,1,.078,1.364.868.868,0,0,1-.6.461,2.343,2.343,0,0,1-.59.037A8.77,8.77,0,0,1,343.739,273.6Z" transform="translate(-343.739 -262.328)"/></g><g transform="translate(0 22.832)"><path class="l" d="M331.787,310.056a24.91,24.91,0,0,1-12.819-4.459s2.787,7,12.628,6.815Z" transform="translate(-318.968 -305.597)"/></g><g transform="translate(8.174 13.415)"><path class="l" d="M338.545,288.816a2.434,2.434,0,0,0-2.11-1.063,2.222,2.222,0,0,0-1.592.708,1.409,1.409,0,0,0-.226,1.6,1.634,1.634,0,0,0,1.733.578,5.121,5.121,0,0,0,1.8-.9,1.492,1.492,0,0,0,.414-.37.451.451,0,0,0,.035-.5" transform="translate(-334.458 -287.751)"/></g><g transform="translate(8.757 11.912)"><path class="f" d="M335.842,284.9c.22,0,.115,1.467,1.29,2.6s2.744,1.086,2.74,1.291c.014.093-.368.259-1.028.227a3.65,3.65,0,0,1-2.293-1,3.175,3.175,0,0,1-.987-2.171C335.553,285.237,335.743,284.887,335.842,284.9Z" transform="translate(-335.563 -284.902)"/></g></g><g transform="translate(15.046 12.741)"><path class="f" d="M330.082,256.049c-.16.356-1.493.083-3.087.156-1.6.041-2.906.409-3.092.065-.082-.164.166-.492.708-.809a5.378,5.378,0,0,1,4.708-.169C329.882,255.57,330.152,255.879,330.082,256.049Z" transform="translate(-323.888 -254.831)"/></g><g transform="translate(29.221 12.34)"><path class="f" d="M356.207,255.688c-.306.285-1.389-.115-2.72-.229-1.327-.152-2.474.023-2.71-.316-.1-.164.1-.457.612-.71a4.328,4.328,0,0,1,2.25-.337,4.249,4.249,0,0,1,2.125.776C356.211,255.221,356.342,255.547,356.207,255.688Z" transform="translate(-350.751 -254.071)"/></g><g transform="translate(0 21.366)"><path class="k" d="M302.533,274.041c.052-.727-.661-2.5-1.371-2.67-1.9-.441-5.364-.543-5.757,4.324-.538,6.655,6.254,5.822,6.281,5.632C301.707,281.179,302.353,276.553,302.533,274.041Z" transform="translate(-295.374 -271.176)"/></g><g transform="translate(1.7 23.463)"><path class="l" d="M301.378,280.52c-.027-.024-.122.071-.326.146a1.165,1.165,0,0,1-.868-.052,2.878,2.878,0,0,1-1.119-2.681,3.833,3.833,0,0,1,.459-1.634,1.342,1.342,0,0,1,.944-.819.592.592,0,0,1,.659.373c.074.194.021.323.055.337.017.018.152-.1.12-.379a.741.741,0,0,0-.228-.439.879.879,0,0,0-.627-.221,1.634,1.634,0,0,0-1.294.934,3.949,3.949,0,0,0-.552,1.822,3.02,3.02,0,0,0,1.459,3.011,1.247,1.247,0,0,0,1.074-.091C301.353,280.68,301.4,280.534,301.378,280.52Z" transform="translate(-298.596 -275.15)"/></g></g><g transform="translate(3.084)"><g transform="translate(1.349 12.845)"><path class="e" d="M303.83,252.622c0-.334-.121.311,0,0Z" transform="translate(-303.776 -252.524)"/></g><path class="m" d="M329.9,231.786c-2.477-1.669-4.511-3.6-10.559-3.6-4.67-.007-8.089,2.71-11.769,5.92-4.725,4.123-7.72,10.842-5.729,16.789h0l1.985.776,1.886-4.561c3.25-7.071,10.011-13.018,17.306-13.367a13.893,13.893,0,0,1,2.017.032c4.825.483,9.768,9.267,9.768,9.267S335.7,235.694,329.9,231.786Z" transform="translate(-301.218 -228.181)"/></g></g><g transform="translate(20.991 24.182)"><path class="f" d="M306.187,265.63c.107,1.381.318,2.628.425,4.009.045.582.193,1.3.755,1.453a.984.984,0,0,0,1.043-.513,2.877,2.877,0,0,0,.3-1.2c.411-4.186.76-7.376,1.17-11.562A38.68,38.68,0,0,0,306.187,265.63Z" transform="translate(-306.187 -257.813)"/></g><g transform="translate(16.331 39.587)"><path class="n" d="M300.913,289.909c.013,0,.039.134-.049.353a1.353,1.353,0,0,1-.694.682,1.9,1.9,0,0,1-1.444.039,2.053,2.053,0,0,1-1.257-1.239,2.145,2.145,0,0,1,.17-1.759,1.979,1.979,0,0,1,1.139-.887,1.929,1.929,0,0,1,.966-.051c.224.051.333.117.328.131a2.8,2.8,0,0,0-1.231.1,1.843,1.843,0,0,0-.981.828,1.941,1.941,0,0,0-.13,1.544,1.842,1.842,0,0,0,1.086,1.092,1.752,1.752,0,0,0,1.277.021,1.346,1.346,0,0,0,.675-.551C300.876,290.032,300.889,289.905,300.913,289.909Z" transform="translate(-297.355 -287.007)"/></g><g transform="translate(33.917 13.984)"><path class="f" d="M330.683,240.271s5.26,1.452,7.041.9a5.252,5.252,0,0,0,2.877-2.157S336.515,237.212,330.683,240.271Z" transform="translate(-330.683 -238.487)"/></g><g transform="translate(48.429 11.052)"><path class="f" d="M372.87,251.156a5.621,5.621,0,0,0,.555-.672,3.626,3.626,0,0,0,.56-2.285,4.3,4.3,0,0,0-1.8-3.019,6.54,6.54,0,0,0-4.344-1.119l-.23.016.1-.208a12.544,12.544,0,0,0,1.236-3.6,6.618,6.618,0,0,0-.2-3.037,5.228,5.228,0,0,0-1.581-2.328,7.854,7.854,0,0,0-4.462-1.752,16.2,16.2,0,0,0-3.308.095l-.9.113a1.365,1.365,0,0,1-.316.026,1.416,1.416,0,0,1,.307-.081c.2-.043.5-.1.893-.164a14.753,14.753,0,0,1,3.339-.183,7.956,7.956,0,0,1,4.611,1.754,5.452,5.452,0,0,1,1.672,2.435,6.835,6.835,0,0,1,.221,3.163,12.633,12.633,0,0,1-1.269,3.676l-.128-.192a6.723,6.723,0,0,1,4.5,1.2,4.448,4.448,0,0,1,1.826,3.19,3.626,3.626,0,0,1-.654,2.349A2.144,2.144,0,0,1,372.87,251.156Z" transform="translate(-358.184 -232.931)"/></g><g transform="translate(0 6.453)"><path class="f" d="M274.894,258.262a.552.552,0,0,1-.145,0l-.423-.016c-.371-.019-.92-.047-1.623-.13a10.834,10.834,0,0,1-2.517-.577,6.037,6.037,0,0,1-2.765-2,6.311,6.311,0,0,1-1.008-3.994,21.693,21.693,0,0,1,.225-2.3,12.657,12.657,0,0,1,.5-2.408,3.666,3.666,0,0,1,4.144-2.7,4.229,4.229,0,0,0,2.588-.493,3.285,3.285,0,0,0,1.178-2.38,19.43,19.43,0,0,0-.1-2.827,14.613,14.613,0,0,1,.116-2.789,14.464,14.464,0,0,1,1.616-5,12.646,12.646,0,0,1,2.992-3.7,11.634,11.634,0,0,1,3.6-2.049,11.277,11.277,0,0,1,5.926-.5,8.078,8.078,0,0,1,2.09.669.558.558,0,0,1-.14-.037l-.4-.136a10.526,10.526,0,0,0-1.569-.39,11.39,11.39,0,0,0-5.841.582,11.526,11.526,0,0,0-3.52,2.042,12.477,12.477,0,0,0-2.916,3.642,14.721,14.721,0,0,0-1.682,7.654,19.443,19.443,0,0,1,.106,2.868,3.548,3.548,0,0,1-1.292,2.575,2.943,2.943,0,0,1-1.359.5,10.482,10.482,0,0,1-1.391.043,3.416,3.416,0,0,0-3.9,2.515,12.484,12.484,0,0,0-.5,2.358,21.7,21.7,0,0,0-.236,2.274,6.13,6.13,0,0,0,.938,3.873,5.918,5.918,0,0,0,2.663,1.967,11.1,11.1,0,0,0,2.475.614c.7.1,1.243.144,1.613.181l.421.043A.566.566,0,0,1,274.894,258.262Z" transform="translate(-266.407 -224.216)"/></g><g transform="translate(19.432 14.469)"><path class="f" d="M309.191,239.406a3.824,3.824,0,0,1-.427.6c-.147.184-.323.411-.513.685s-.425.573-.648.929a25.264,25.264,0,0,0-1.49,2.539,24.774,24.774,0,0,0-2.308,6.8,25.377,25.377,0,0,0-.362,2.922c-.04.418-.037.8-.051,1.131s-.014.621-.009.856a3.745,3.745,0,0,1-.023.733,3.791,3.791,0,0,1-.083-.729c-.021-.235-.039-.524-.037-.86s-.017-.719.011-1.141a22.346,22.346,0,0,1,.307-2.956,23.164,23.164,0,0,1,2.332-6.875,22.444,22.444,0,0,1,1.555-2.532c.235-.352.48-.646.685-.912s.393-.486.553-.66A3.716,3.716,0,0,1,309.191,239.406Z" transform="translate(-303.233 -239.406)"/></g><g transform="translate(19.894 11.946)"><path class="f" d="M314.926,234.626a5.541,5.541,0,0,1-.64.613c-.214.188-.472.42-.758.706s-.628.592-.97.967a31.72,31.72,0,0,0-2.325,2.7,31.017,31.017,0,0,0-4.276,7.572,31.817,31.817,0,0,0-1.11,3.385c-.145.487-.233.938-.327,1.331s-.163.733-.213,1.013a5.439,5.439,0,0,1-.194.864,5.5,5.5,0,0,1,.089-.882c.034-.284.084-.63.168-1.026s.155-.855.289-1.348a28.445,28.445,0,0,1,1.063-3.428,29.26,29.26,0,0,1,4.312-7.635,28.414,28.414,0,0,1,2.387-2.681c.353-.369.706-.669,1-.943s.567-.5.793-.674A5.449,5.449,0,0,1,314.926,234.626Z" transform="translate(-304.107 -234.625)"/></g><g transform="translate(4.141 3.806)"><path class="e" d="M282.17,258.688a.851.851,0,0,1-.143.1,2.893,2.893,0,0,1-.453.254,4.526,4.526,0,0,1-1.946.42,5.272,5.272,0,0,1-2.994-.941,5.732,5.732,0,0,1-2.224-3.488,6.742,6.742,0,0,1-.079-2.446,7.326,7.326,0,0,1,.89-2.5,8.756,8.756,0,0,1,1.8-2.2,12.649,12.649,0,0,1,2.5-1.666,9.8,9.8,0,0,0,2.522-1.771,6.573,6.573,0,0,0,1.492-2.8,15.783,15.783,0,0,0,.468-3.32c.06-1.139.053-2.31.17-3.491a11.332,11.332,0,0,1,.789-3.429,5.888,5.888,0,0,1,2.161-2.645,10.476,10.476,0,0,1,3.029-1.308c1.033-.294,2.055-.521,3.024-.823a8.959,8.959,0,0,0,2.655-1.237,3.746,3.746,0,0,0,.541-.45,4.822,4.822,0,0,0,.48-.5,9.221,9.221,0,0,0,.763-1.133,12.225,12.225,0,0,1,1.469-2.2,6.088,6.088,0,0,1,2-1.408,5.924,5.924,0,0,1,4.133-.248,6.031,6.031,0,0,1,2.638,1.712,5.731,5.731,0,0,1,1.066,1.683,3.248,3.248,0,0,1,.212.662c-.018.006-.073-.228-.262-.64a6.071,6.071,0,0,0-3.7-3.27,5.781,5.781,0,0,0-4.01.279,5.919,5.919,0,0,0-1.926,1.374,12.092,12.092,0,0,0-1.428,2.171,9.482,9.482,0,0,1-.777,1.166,5.028,5.028,0,0,1-.5.526,3.932,3.932,0,0,1-.563.471,9.166,9.166,0,0,1-2.722,1.284c-.981.308-2,.539-3.027.833a10.245,10.245,0,0,0-2.95,1.278,5.623,5.623,0,0,0-2.062,2.53,11.114,11.114,0,0,0-.767,3.347c-.116,1.165-.11,2.328-.171,3.479a16,16,0,0,1-.481,3.378,6.83,6.83,0,0,1-1.56,2.91,9.991,9.991,0,0,1-2.59,1.813,12.494,12.494,0,0,0-2.461,1.625,8.55,8.55,0,0,0-1.759,2.132,7.143,7.143,0,0,0-.879,2.419,6.562,6.562,0,0,0,.06,2.372,5.586,5.586,0,0,0,2.122,3.4,5.2,5.2,0,0,0,2.906.959,4.641,4.641,0,0,0,1.922-.363C281.968,258.82,282.159,258.669,282.17,258.688Z" transform="translate(-274.255 -219.199)"/></g><g transform="translate(45.805 30.405)"><path class="f" d="M355.835,270.791a1.315,1.315,0,0,1-1.265,1.33,1.257,1.257,0,0,1-1.358-1.183,1.315,1.315,0,0,1,1.263-1.33A1.258,1.258,0,0,1,355.835,270.791Z" transform="translate(-353.211 -269.606)"/></g><g transform="translate(44.343 26.203)"><path class="f" d="M355.637,263.02c-.163.172-1.16-.563-2.575-.556-1.413-.013-2.45.717-2.6.544-.076-.076.09-.386.541-.717a3.608,3.608,0,0,1,2.084-.647,3.462,3.462,0,0,1,2.05.657C355.569,262.634,355.717,262.943,355.637,263.02Z" transform="translate(-350.44 -261.644)"/></g><g transform="translate(33.556 30.405)"><path class="f" d="M332.622,270.791a1.315,1.315,0,0,1-1.265,1.329A1.258,1.258,0,0,1,330,270.938a1.315,1.315,0,0,1,1.264-1.33A1.258,1.258,0,0,1,332.622,270.791Z" transform="translate(-329.998 -269.606)"/></g><g transform="translate(30.947 26.203)"><path class="f" d="M330.251,263.021c-.163.172-1.162-.563-2.576-.557-1.413-.013-2.45.717-2.6.544-.075-.076.088-.386.541-.716a3.6,3.6,0,0,1,2.084-.648,3.466,3.466,0,0,1,2.05.657C330.182,262.633,330.331,262.944,330.251,263.021Z" transform="translate(-325.055 -261.644)"/></g></g><g transform="translate(0 57.758)"><g transform="translate(63.111 5.615)"><path class="m" d="M370.2,340.57c-6.107-7.432-11.387-8.487-11.387-8.487l.035,26.517,19.469,24.624,7.92-20.267S374.338,345.6,370.2,340.57Z" transform="translate(-358.813 -332.083)"/></g><g transform="translate(6.397)"><path class="m" d="M299.4,324.958l8.728,2.119s4.507,26.135,2.872,32.9c-1.391,5.752-5.854,32.293-5.854,32.293H251.334l18.029-51.8s.1-11.387-2.679-16.648c1.688-.405,7.385-1.454,12.309-2.378,0,0,3.274,4.085,10.978,5.253S299.4,324.958,299.4,324.958Z" transform="translate(-251.334 -321.443)"/></g><g transform="translate(6.397 25.405)"><path class="e" d="M310.081,369.587H276.273c-2.955,17.291-10.148,23.92-22.835,33.93L251.334,415h53.811l3.122-18.05-.184-6.647Z" transform="translate(-251.334 -369.587)"/></g><g transform="translate(0 2.123)"><path class="m" d="M262.256,325.466s-12.858,1.03-17.471,22.1c-2.087,9.528-4.723,20.7-5.483,28.2-.551,5.444,1.4,12.967,6.628,14.213l9.5,1.212c4.245.063,7.158-3.386,8.051-7.082l1.482-5.876c1.022-7.186-4.449-7.808-7.525-7.742l6.766-26.758,1.31-12.947Z" transform="translate(-239.211 -325.466)"/></g><g transform="translate(63.691 20.041)"><path class="f" d="M363.185,359.423a1.57,1.57,0,0,1,.059.294c.033.214.075.5.129.849l.089.614q.035.341.074.734c.053.528.118,1.128.146,1.795a44.37,44.37,0,0,1,.032,4.686,56.357,56.357,0,0,1-.569,5.709c-.295,2.015-.666,3.92-1.044,5.641s-.75,3.265-1.07,4.559-.6,2.336-.8,3.054l-.23.827a.15.15,0,1,1-.04-.01l.193-.836.731-3.069c.3-1.3.666-2.84,1.025-4.564s.732-3.623,1.026-5.632.5-3.932.583-5.688.091-3.341.013-4.669c-.018-.665-.072-1.264-.114-1.791q-.032-.394-.058-.735t-.07-.615c-.038-.355-.068-.638-.091-.853A1.673,1.673,0,0,1,363.185,359.423Z" transform="translate(-359.911 -359.423)"/></g><g transform="translate(8.076 47.064)"><path class="f" d="M254.518,418.1a2.285,2.285,0,0,1,.1-.53,8.454,8.454,0,0,1,.5-1.386,9.451,9.451,0,0,1,7.547-5.493,8.478,8.478,0,0,1,1.472-.046,2.3,2.3,0,0,1,.536.066,19.244,19.244,0,0,0-1.988.125,9.727,9.727,0,0,0-7.434,5.41A19.181,19.181,0,0,0,254.518,418.1Z" transform="translate(-254.515 -410.634)"/></g><g transform="translate(11.051 44.007)"><path class="f" d="M260.153,404.872a.916.916,0,0,1,.31-.029,6.786,6.786,0,0,1,.848.037,9.781,9.781,0,0,1,5.122,2.107,6.57,6.57,0,0,1,.629.569c.138.145.21.229.2.239-.024.025-.347-.275-.918-.693a11.294,11.294,0,0,0-5.051-2.077C260.593,404.921,260.152,404.907,260.153,404.872Z" transform="translate(-260.153 -404.841)"/></g><g transform="translate(20.549 3.185)"><path class="f" d="M281.965,341.055a3.005,3.005,0,0,1-.031-.564c0-.361-.023-.885-.068-1.529a24.5,24.5,0,0,0-2.708-9.645c-.3-.573-.552-1.031-.738-1.341a3,3,0,0,1-.266-.5,2.937,2.937,0,0,1,.335.455c.207.3.483.747.8,1.315a22.152,22.152,0,0,1,2.724,9.705c.026.65.025,1.176,0,1.539A2.931,2.931,0,0,1,281.965,341.055Z" transform="translate(-278.153 -327.479)"/></g><g class="o" transform="translate(66.276 19.172)"><path d="M364.908,376.333a19.842,19.842,0,0,0,.489-18.557,51.911,51.911,0,0,1-.586,18.533" transform="translate(-364.811 -357.776)"/></g><g transform="translate(0.929 60.372)"><path class="f" d="M261.932,441c-.022-.018-.224.269-.7.664a6.437,6.437,0,0,1-2.353,1.123,12.541,12.541,0,0,1-3.873.34c-1.469-.106-3.089-.278-4.772-.528a24.332,24.332,0,0,1-4.658-1.073,5.942,5.942,0,0,1-1.712-1.143,9.137,9.137,0,0,1-1.2-1.359,12.789,12.789,0,0,1-1.314-2.281c-.123-.287-.218-.51-.276-.664a1.127,1.127,0,0,0-.1-.23,1.154,1.154,0,0,0,.063.244c.045.159.129.388.241.681a11.736,11.736,0,0,0,1.27,2.334,9.081,9.081,0,0,0,1.2,1.4A6.048,6.048,0,0,0,245.5,441.7a23.6,23.6,0,0,0,4.7,1.1c1.693.252,3.311.418,4.793.514a12.312,12.312,0,0,0,3.921-.389,6.24,6.24,0,0,0,2.366-1.2,4.171,4.171,0,0,0,.5-.523A1.157,1.157,0,0,0,261.932,441Z" transform="translate(-240.971 -435.854)"/></g><g transform="translate(18.154 23.475)"><path class="f" d="M279.472,365.931c-.055-.014-1.411,5.25-3.028,11.756s-2.883,11.793-2.828,11.806,1.411-5.249,3.028-11.757S279.527,365.945,279.472,365.931Z" transform="translate(-273.614 -365.931)"/></g><g transform="translate(18.222 47.042)"><path class="f" d="M281.171,416.732a1.7,1.7,0,0,0,.065-.433,7.387,7.387,0,0,0,.027-1.2,3.473,3.473,0,0,0-.578-1.686,5.03,5.03,0,0,0-.66-.829,4.537,4.537,0,0,0-.913-.68,11.432,11.432,0,0,0-3.743-1.208,10.654,10.654,0,0,0-1.188-.106,1.562,1.562,0,0,0-.437.016c0,.034.62.058,1.6.233a12.563,12.563,0,0,1,3.663,1.243,4.473,4.473,0,0,1,.876.646,5.038,5.038,0,0,1,.642.788,3.436,3.436,0,0,1,.592,1.6,10.111,10.111,0,0,1,.037,1.178A1.869,1.869,0,0,0,281.171,416.732Z" transform="translate(-273.744 -410.592)"/></g><g transform="translate(19.326 51.388)"><g transform="translate(0.027)"><g transform="translate(32.276 1.056)"><path class="k" d="M337.076,420.829l-.024.011Z" transform="translate(-337.052 -420.829)"/></g><g transform="translate(32.107 1.123)"><path class="k" d="M336.783,420.956l-.052.025Z" transform="translate(-336.731 -420.956)"/></g><g transform="translate(32.159 1.067)"><path class="k" d="M336.947,420.85l-.117.056Z" transform="translate(-336.83 -420.85)"/></g><g transform="translate(32.3 1.031)"><path class="k" d="M337.149,420.782l-.052.025Z" transform="translate(-337.097 -420.782)"/></g><path class="k" d="M320.315,430.954c-1.032-1.952-9.1-7.1-9.1-7.1l2.184-.5,2.411,1.019a5.933,5.933,0,0,0,1.037,2.258c.887,1.265,2.391-.043,2.391-.043l-1.018-4.883-4.77-2.871a47.008,47.008,0,0,0-5.213,1.031l-1.913,1.751c-.84.658-3.264,3.253-3.927,3.332s-21.486-4.606-21.486-4.606h0c-2.855,2.261-4.359,6.752-4.812,9.992a3.6,3.6,0,0,0,.044,2.456l25.562,2.006,5.416,1.5a38.155,38.155,0,0,0,4.45,1.529c1.8.378,3.016-.2,3.064-1.2s-1.349-1.105-1.349-1.105a27.5,27.5,0,0,1-3.483-1.532,6.119,6.119,0,0,1-1.967-2.157l1.931.231s4.105,2.849,5.649,3.685,1.848-.7,1.972-1.165-4.611-5.1-4.611-5.1,4.5,2.776,5.313,3.476,2.01.91,2.267.44S321.347,432.906,320.315,430.954Z" transform="translate(-275.886 -418.828)"/><g transform="translate(32.061 1.148)"><path class="k" d="M336.69,421l-.045.022Z" transform="translate(-336.645 -421.003)"/></g><g transform="translate(32.031 1.181)"><path class="k" d="M336.593,421.066Z" transform="translate(-336.588 -421.066)"/></g><g transform="translate(32.036 1.169)"><path class="k" d="M336.623,421.044l-.025.012Z" transform="translate(-336.598 -421.044)"/></g></g><g transform="translate(22.215 6.113)"><path class="l" d="M317.961,436.877a1.023,1.023,0,0,1-.024-.317,1.874,1.874,0,0,1,.025-.372,2.76,2.76,0,0,1,.089-.487,6.867,6.867,0,0,1,1.309-2.522,14.708,14.708,0,0,1,1.969-2.047,5.8,5.8,0,0,1,.929-.719,9.505,9.505,0,0,1-.839.818,18.8,18.8,0,0,0-1.91,2.064,7.5,7.5,0,0,0-1.329,2.44C317.98,436.424,318,436.878,317.961,436.877Z" transform="translate(-317.935 -430.413)"/></g><g transform="translate(32.619 4.012)"><path class="l" d="M340.2,427.291a2.98,2.98,0,0,1-2.549-.856c.035-.046.528.32,1.233.552S340.2,427.234,340.2,427.291Z" transform="translate(-337.652 -426.432)"/></g><g transform="translate(32.475 8.554)"><path class="l" d="M341.414,436.7a25.223,25.223,0,0,1-4.035-1.66,25.234,25.234,0,0,1,4.035,1.66Z" transform="translate(-337.378 -435.038)"/></g><g transform="translate(30.105 12.123)"><path class="l" d="M334.966,442.629a17.152,17.152,0,0,1-2.08-.813,4.157,4.157,0,0,1,2.08.813Z" transform="translate(-332.886 -441.803)"/></g><g transform="translate(34.561 10.564)"><path class="l" d="M342.617,438.858a2.627,2.627,0,0,0-1.255,1.649c-.023,0-.047-.128-.015-.333a1.713,1.713,0,0,1,.945-1.242C342.481,438.847,342.611,438.836,342.617,438.858Z" transform="translate(-341.332 -438.848)"/></g><g transform="translate(36.832 7.581)"><path class="l" d="M346.544,433.2c.025.049-.328.24-.561.65a5.216,5.216,0,0,0-.29.808.962.962,0,0,1,.127-.9C346.09,433.29,346.536,433.153,346.544,433.2Z" transform="translate(-345.635 -433.194)"/></g><g transform="translate(36.892 0.508)"><path class="l" d="M345.956,421.543c-.021.01-.094-.079-.151-.254a1.385,1.385,0,0,1,.323-1.337c.13-.13.236-.176.25-.157a2.125,2.125,0,0,0-.423,1.748Z" transform="translate(-345.75 -419.792)"/></g><g transform="translate(0 1.205)"><path class="f" d="M275.893,434.595a3.208,3.208,0,0,0,.034-.587c0-.189.007-.419.027-.687s.024-.573.063-.907a20.463,20.463,0,0,1,1.116-5.122,18.578,18.578,0,0,1,1.211-2.622c.235-.377.441-.747.677-1.064l.328-.469.328-.413c.849-1.044,1.5-1.578,1.469-1.612a3.2,3.2,0,0,0-.459.369,5.372,5.372,0,0,0-.5.475,8.885,8.885,0,0,0-.62.675l-.342.41c-.113.147-.224.305-.342.467-.244.317-.459.688-.7,1.067a17.409,17.409,0,0,0-1.241,2.646,18.769,18.769,0,0,0-1.068,5.182c-.03.338-.027.645-.033.914s0,.5.008.691A3.188,3.188,0,0,0,275.893,434.595Z" transform="translate(-275.836 -421.111)"/></g></g><g class="o" transform="translate(27.003 1)"><path d="M300.474,351.307V352l-3.887.253-1.97-15.661s-.837-5.269-1.379-7.19a35.2,35.2,0,0,0-2.853-5.742l1.712-.323,3.333,5.426Z" transform="translate(-290.385 -323.338)"/></g><g transform="translate(27.338 0.563)"><g transform="translate(0.244 0.147)"><path class="e" d="M301.5,351.023s-1.723-14.544-3.351-20.354-4.167-7.88-4.167-7.88l-2.5.471a19.6,19.6,0,0,1,3.458,8.383c.965,5.349,2.769,19.554,2.769,19.554Z" transform="translate(-291.482 -322.789)"/></g><path class="f" d="M301.286,350.892a1.677,1.677,0,0,1-.233.023l-.718.048-2.842.167-.058,0-.008-.059-1.592-11.509c-.355-2.442-.732-5.111-1.225-7.923a22.522,22.522,0,0,0-1.175-4.209,18.178,18.178,0,0,0-2.132-4.026l-.146-.192-.138-.181.218-.041,2.5-.471.068-.013.044.041A10.982,10.982,0,0,1,295.77,325a20.2,20.2,0,0,1,1.33,2.682,30.661,30.661,0,0,1,1.571,5.393c.716,3.494,1.183,6.649,1.566,9.289s.643,4.772.816,6.242l.188,1.692c.017.182.031.327.041.441a.746.746,0,0,1,0,.15,1.4,1.4,0,0,1-.031-.148c-.017-.112-.039-.256-.066-.436-.056-.4-.136-.967-.237-1.685-.2-1.466-.5-3.592-.9-6.228s-.894-5.785-1.622-9.265a30.716,30.716,0,0,0-1.575-5.344,19.923,19.923,0,0,0-1.317-2.643,10.833,10.833,0,0,0-1.857-2.379l.112.029-2.5.472.081-.223.155.2a18.349,18.349,0,0,1,2.165,4.09,22.671,22.671,0,0,1,1.181,4.262c.488,2.822.854,5.491,1.2,7.937.672,4.893,1.172,8.9,1.486,11.526l-.066-.055,2.807-.092.734-.018A2.337,2.337,0,0,1,301.286,350.892Z" transform="translate(-291.02 -322.51)"/></g><g transform="translate(57.742 4.778)"><g transform="translate(0.157 0.063)"><path class="e" d="M354.147,331.39s.579,15.9-1.413,24.049l-3.8-.121s2.823-19.77,2.451-24.7A5.618,5.618,0,0,1,354.147,331.39Z" transform="translate(-348.935 -330.616)"/></g><path class="f" d="M354.007,331.334c-.015.009-.214-.133-.667-.318a6.118,6.118,0,0,0-2.094-.4l.06-.064a71.883,71.883,0,0,1-.553,9.96c-.44,4.268-1.061,9.337-1.822,14.765l-.132-.157.1,0,3.7.119-.137.1a59.96,59.96,0,0,0,1.237-9.416c.186-2.895.254-5.485.288-7.648s.024-3.9.018-5.1q0-.873-.008-1.375a3.747,3.747,0,0,1,.011-.478,3.221,3.221,0,0,1,.04.476q.02.5.055,1.375c.037,1.2.074,2.936.065,5.1s-.058,4.76-.229,7.661a58.776,58.776,0,0,1-1.213,9.467l-.024.107-.112,0-3.7-.117-.1,0-.153,0,.021-.152c.761-5.423,1.4-10.49,1.864-14.751a79.116,79.116,0,0,0,.663-9.927l0-.068.063,0a5.865,5.865,0,0,1,2.119.459,3.409,3.409,0,0,1,.493.265A.853.853,0,0,1,354.007,331.334Z" transform="translate(-348.637 -330.497)"/></g><g transform="translate(59.132 26.206)"><path class="n" d="M351.3,372.268a1.137,1.137,0,1,0,1.137-1.137A1.136,1.136,0,0,0,351.3,372.268Z" transform="translate(-351.283 -371.118)"/><path class="f" d="M352.421,373.406a1.15,1.15,0,1,1,1.15-1.15A1.151,1.151,0,0,1,352.421,373.406Zm0-2.273a1.123,1.123,0,1,0,1.123,1.123A1.125,1.125,0,0,0,352.421,371.133Z" transform="translate(-351.271 -371.106)"/></g><g transform="translate(34.295 25.827)"><circle class="n" cx="1.137" cy="1.137" r="1.137" transform="translate(0.013 0.013)"/><path class="f" d="M305.353,372.687a1.15,1.15,0,1,1,1.15-1.149A1.151,1.151,0,0,1,305.353,372.687Zm0-2.273a1.123,1.123,0,1,0,1.123,1.123A1.125,1.125,0,0,0,305.353,370.414Z" transform="translate(-304.204 -370.387)"/></g><g transform="translate(33.457 37.737)"><path class="f" d="M327.3,394.219a.8.8,0,0,1,.009.174l0,.51c-.007.449-.018,1.111-.085,1.962a14.553,14.553,0,0,1-.533,3.065,10.059,10.059,0,0,1-2,3.6,14.3,14.3,0,0,1-9.375,4.79,15.293,15.293,0,0,1-3.113.042,8.734,8.734,0,0,1-3.145-.832,10.836,10.836,0,0,1-4.789-4.762,16.717,16.717,0,0,1-1.614-8.234,2.41,2.41,0,0,1,.21-.818,1.248,1.248,0,0,1,.618-.609,3.884,3.884,0,0,1,1.6-.117l1.528.061,10.689.44,7.205.32,1.959.1.509.033a.819.819,0,0,1,.173.021.8.8,0,0,1-.174.007l-.51-.006-1.961-.05-7.209-.232L306.6,393.3l-1.527-.057a3.757,3.757,0,0,0-1.489.1,1.352,1.352,0,0,0-.67,1.215,14.836,14.836,0,0,0-.014,1.609,15.092,15.092,0,0,0,1.606,6.47,10.6,10.6,0,0,0,4.663,4.647,8.481,8.481,0,0,0,3.053.813,15.123,15.123,0,0,0,3.059-.032,14.162,14.162,0,0,0,9.254-4.664,9.957,9.957,0,0,0,2-3.516,14.885,14.885,0,0,0,.574-3.029c.083-.846.111-1.507.137-1.954.013-.212.022-.38.03-.509A.827.827,0,0,1,327.3,394.219Z" transform="translate(-302.615 -392.959)"/></g><g class="o" transform="translate(18.16 25.854)"><path d="M284.108,398.4a6.979,6.979,0,0,0-1.538-5.429,7.259,7.259,0,0,0-5.12-2.64,93.949,93.949,0,0,1,1.452-19.888l-5.277,21.108s7.349.1,7.489,6.219Z" transform="translate(-273.625 -370.439)"/></g></g><g class="o" transform="translate(33.977 17.338)"><path d="M303.876,258.708a29.788,29.788,0,0,1,4.419-12.189c.258-.4.532-.918.289-1.331a.873.873,0,0,0-1.094-.258,2.312,2.312,0,0,0-.878.843,16.713,16.713,0,0,0-2.692,12.789" transform="translate(-303.601 -244.843)"/></g><g transform="translate(51.801 90.301)"><g transform="translate(0.088 0.019)"><path class="n" d="M411.1,384.848,403.637,421.5h-64.8a1.294,1.294,0,0,1-1.294-1.294h0a1.294,1.294,0,0,1,1.294-1.294h13.045l6.921-34.084a1.416,1.416,0,0,1,1.371-1.133l49.524-.54A1.415,1.415,0,0,1,411.1,384.848Z" transform="translate(-337.546 -383.151)"/></g><path class="f" d="M411.024,384.831s.008-.037.02-.11a1.27,1.27,0,0,0,.007-.333,1.426,1.426,0,0,0-.685-1.071,1.476,1.476,0,0,0-.428-.17,2.269,2.269,0,0,0-.51-.032l-1.166.009-2.916.024-18.726.177-13.053.132-7.313.075-3.836.04-1.96.02c-.167,0-.323,0-.5.012a1.5,1.5,0,0,0-1.212.891,2.367,2.367,0,0,0-.136.5l-.1.493-.2.991q-.2.994-.407,2-.409,2.014-.829,4.077-.839,4.126-1.717,8.439c-1.168,5.746-2.383,11.723-3.635,17.881l.087-.071H338.978a2.333,2.333,0,0,0-.5.031,1.384,1.384,0,0,0-.371,2.57,1.4,1.4,0,0,0,.609.165l.6,0h16.284l17.542,0,30.424-.015h.056l.012-.055c2.282-11.265,4.138-20.429,5.424-26.779.638-3.173,1.135-5.642,1.473-7.322.166-.837.293-1.476.379-1.91s.122-.653.122-.653-.052.219-.142.648-.224,1.071-.4,1.906l-1.509,7.315-5.483,26.766.067-.055-30.424-.015-17.542,0H339.309l-.592,0a1.226,1.226,0,0,1-.53-.143,1.2,1.2,0,0,1,.323-2.237,2.2,2.2,0,0,1,.467-.027h12.9l.014-.071c1.25-6.159,2.462-12.136,3.627-17.882l1.711-8.44.826-4.077.406-2,.2-.991.1-.493a2.189,2.189,0,0,1,.126-.467,1.341,1.341,0,0,1,.636-.668,1.321,1.321,0,0,1,.447-.13c.151-.013.325-.008.487-.012l1.961-.023,3.836-.044,7.312-.084,13.054-.154,18.725-.231,2.915-.04,1.166-.016a2.217,2.217,0,0,1,.5.027,1.452,1.452,0,0,1,.419.161,1.412,1.412,0,0,1,.685,1.045A1.848,1.848,0,0,1,411.024,384.831Z" transform="translate(-337.379 -383.115)"/><g transform="translate(43.786 16.349)"><path class="d" d="M420.357,416.237a2.14,2.14,0,1,0,2.14-2.14A2.14,2.14,0,0,0,420.357,416.237Z" transform="translate(-420.357 -414.097)"/></g><g transform="translate(16.244 2.002)"><path class="f" d="M425.5,386.92s-.076-.006-.223-.007l-.655,0-2.519,0-9.265.045-30.567.215-4.421.035-1.086.009a2.824,2.824,0,0,0-.555.034,1.548,1.548,0,0,0-1.183,1.1c-.081.358-.141.7-.213,1.045l-1.58,7.961-2.664,13.481c-.751,3.835-1.359,6.939-1.781,9.092l-.475,2.474-.119.644c-.026.146-.035.221-.035.221s.021-.073.053-.217l.137-.641c.117-.57.289-1.4.508-2.467l1.837-9.081c.77-3.837,1.685-8.4,2.7-13.474.507-2.537,1.038-5.2,1.59-7.959.07-.342.135-.7.211-1.033a1.362,1.362,0,0,1,.583-.789,1.388,1.388,0,0,1,.465-.188,2.728,2.728,0,0,1,.521-.03l1.086-.008,4.421-.034,30.566-.268,9.265-.1,2.519-.037.655-.014C425.427,386.927,425.5,386.92,425.5,386.92Z" transform="translate(-368.162 -386.909)"/></g></g></g><g transform="translate(14.921 95.429)"><g transform="translate(90.66)"><g transform="translate(31.917 0.785)"><path class="f" d="M264.757,179.06a4.284,4.284,0,0,0,5.07-6.852,4.456,4.456,0,0,0-.461-8.447,5.333,5.333,0,0,0-5.541-7.284,6,6,0,0,0-6.673-3.164,4.265,4.265,0,0,0-6.4,5.055" transform="translate(-250.478 -152.583)"/></g><g transform="translate(0 3.924)"><path class="p" d="M236.508,182.673a18.174,18.174,0,0,0-9.641-22.685l-.858-.387c-9.495-3.633-17.884,2.4-21.253,11.992L189.993,204.64h0l7.62,24.5L209,216.976l5.533-6.4s9.517,2.629,13.638-6.212C230.16,200.095,233.543,190.968,236.508,182.673Z" transform="translate(-189.993 -158.532)"/><g transform="translate(14.48 43.401)"><path class="q" d="M227.572,249.446a23.66,23.66,0,0,1-10.112-8.666s-.932,7.344,8.3,10.546Z" transform="translate(-217.434 -240.78)"/></g><g transform="translate(37.845 29.34)"><path class="f" d="M264.4,215.969a1.393,1.393,0,0,1-1.8.729,1.332,1.332,0,0,1-.793-1.735,1.393,1.393,0,0,1,1.8-.73A1.333,1.333,0,0,1,264.4,215.969Z" transform="translate(-261.713 -214.134)"/></g><g transform="translate(37.647 24.829)"><path class="f" d="M266.333,208.385c-.232.094-.873-1.051-2.241-1.664-1.357-.632-2.677-.381-2.75-.615-.04-.107.255-.334.835-.454a3.822,3.822,0,0,1,2.294.288,3.675,3.675,0,0,1,1.691,1.531C266.437,207.982,266.443,208.346,266.333,208.385Z" transform="translate(-261.338 -205.585)"/></g><g transform="translate(25.287 23.98)"><path class="f" d="M240.6,205.811a1.393,1.393,0,0,1-1.8.728,1.331,1.331,0,0,1-.792-1.735,1.393,1.393,0,0,1,1.8-.73A1.333,1.333,0,0,1,240.6,205.811Z" transform="translate(-237.914 -203.975)"/></g><g transform="translate(24.101 19.025)"><path class="f" d="M240.662,197.385c-.232.094-.874-1.052-2.242-1.664-1.357-.632-2.677-.382-2.75-.616-.039-.107.254-.334.836-.454a3.817,3.817,0,0,1,2.294.288,3.67,3.67,0,0,1,1.691,1.531C240.764,196.982,240.772,197.346,240.662,197.385Z" transform="translate(-235.666 -194.585)"/></g><g transform="translate(29.483 22.528)"><path class="f" d="M245.866,212.891a9.908,9.908,0,0,1,2.4.6c.365.122.727.2.893-.011a1.95,1.95,0,0,0,.234-1.139q.079-1.488.167-3.122c.273-4.429.64-8.007.818-7.995s.1,3.613-.173,8.042q-.113,1.632-.217,3.119a2.215,2.215,0,0,1-.437,1.451.96.96,0,0,1-.8.252,2.585,2.585,0,0,1-.63-.185A9.785,9.785,0,0,1,245.866,212.891Z" transform="translate(-245.866 -201.225)"/></g><g transform="translate(26.138 14.156)"><path class="f" d="M245,188.563c-.337.265-1.338-.638-2.759-1.336-1.405-.729-2.742-1.005-2.712-1.425.021-.2.417-.393,1.062-.436a4.748,4.748,0,0,1,2.368.521,4.577,4.577,0,0,1,1.8,1.582C245.09,188.006,245.153,188.433,245,188.563Z" transform="translate(-239.527 -185.358)"/></g><g transform="translate(39.51 19.7)"><path class="f" d="M270.348,199.032c-.428.18-1.41-.65-2.76-1.277-1.33-.666-2.6-.921-2.716-1.365-.045-.21.276-.44.91-.507a4.844,4.844,0,0,1,2.483.508,4.768,4.768,0,0,1,1.93,1.622C270.53,198.547,270.543,198.938,270.348,199.032Z" transform="translate(-264.868 -195.865)"/></g><g transform="translate(4.719 18.585)"><path class="p" d="M206.5,197.526a2.647,2.647,0,0,0-1.557-3.5c-1.729-.59-4-.481-5.436,2.995-2.548,6.166,4.169,7.453,4.252,7.28C203.821,204.183,205.461,200.116,206.5,197.526Z" transform="translate(-198.935 -193.752)"/></g><g transform="translate(7.054 20.816)"><path class="q" d="M205.472,203.422c-.019-.031-.139.031-.355.039a1.161,1.161,0,0,1-.81-.315,2.876,2.876,0,0,1-.244-2.893A3.84,3.84,0,0,1,205,198.84a1.342,1.342,0,0,1,1.149-.491.591.591,0,0,1,.512.556c.012.207-.079.313-.051.338.011.023.175-.049.231-.324a.743.743,0,0,0-.083-.487.874.874,0,0,0-.529-.4,1.632,1.632,0,0,0-1.517.492,3.949,3.949,0,0,0-1.083,1.565,3.017,3.017,0,0,0,.466,3.311,1.245,1.245,0,0,0,1.05.243C205.4,203.567,205.488,203.442,205.472,203.422Z" transform="translate(-203.361 -197.98)"/></g></g><g transform="translate(10.929)"><path class="f" d="M246.943,164.236a2.469,2.469,0,0,0-.017-.53,4.3,4.3,0,0,0-2.248-3.088,16.431,16.431,0,0,0-1.727-1.856,5.808,5.808,0,0,0-8.816-4.433c-.265-.077-.533-.147-.8-.215a5.93,5.93,0,0,0-9.266-1.381,4.306,4.306,0,0,0-7,3.713,4.091,4.091,0,0,0-3.39,2.043,2.384,2.384,0,0,0,1.207,3.2,88.355,88.355,0,0,0-3.974,9.481c-.853,2.178,1.287,4.665.821,6.194-2.38,7.8,1.87,4.814,9.684-10.036.206-.049.418-.106.641-.177.449-.144.69-.475,1.115-.676.508-.24,1.065.158,1.55.442A4.256,4.256,0,0,0,230,165.95a1.788,1.788,0,0,0,2.092,1.192,9.584,9.584,0,0,0,2.454-1.024,2.742,2.742,0,0,1,2.557-.1c.421.266.721.724,1.191.888.83.289,1.642-.47,2.12-1.208a4.063,4.063,0,0,1,1.476-1.628,4.93,4.93,0,0,1,1.743.256c.287.17.566.37.84.547a3.1,3.1,0,0,0,.416.218,4.855,4.855,0,0,1,.452.471c2.1,2.511,1.932,9.137,1.932,9.137C249.055,171.254,248.464,167.449,246.943,164.236Z" transform="translate(-210.705 -151.096)"/></g><g transform="translate(29.702 2.285)"><path class="d" d="M246.282,156.519c-.005-.007.043-.052.142-.131a3.369,3.369,0,0,1,.461-.31,4.974,4.974,0,0,1,4.99.043,5.154,5.154,0,0,1,2.316,3.08l-.178-.093a7.467,7.467,0,0,1,1.929-.438,5.747,5.747,0,0,1,4.333,1.306,4.461,4.461,0,0,1,1.619,3.319,3.975,3.975,0,0,1-.75,2.394,3.131,3.131,0,0,1-.465.506c-.123.1-.189.146-.2.139a8.435,8.435,0,0,0,.573-.706,4.011,4.011,0,0,0,.644-2.329,4.3,4.3,0,0,0-1.589-3.13,5.545,5.545,0,0,0-4.144-1.225,7.339,7.339,0,0,0-1.858.418l-.141.051-.037-.145a4.966,4.966,0,0,0-2.178-2.944,4.769,4.769,0,0,0-2.885-.694,5.185,5.185,0,0,0-1.936.532C246.505,156.377,246.295,156.538,246.282,156.519Z" transform="translate(-246.281 -155.426)"/></g><g transform="translate(16.356 4.836)"><path class="d" d="M220.989,160.737s.03-.026.1-.063a3.31,3.31,0,0,1,.3-.151,3.654,3.654,0,0,1,1.26-.262,4.237,4.237,0,0,1,1.974.426,3.9,3.9,0,0,1,1.876,1.861l-.187-.023a5.27,5.27,0,0,1,3.886-1.908,6.648,6.648,0,0,1,2.481.318A8.094,8.094,0,0,1,235,162.19a13.3,13.3,0,0,1,3.208,3.751l-.2-.026a5.945,5.945,0,0,1,4.039-1.637,5.75,5.75,0,0,1,4.857,2.666,4.078,4.078,0,0,1,.289.531.743.743,0,0,1,.074.2c-.02.01-.138-.251-.435-.679a5.979,5.979,0,0,0-1.587-1.549,5.585,5.585,0,0,0-3.195-.942,5.758,5.758,0,0,0-3.86,1.6l-.118.114-.085-.14a13.249,13.249,0,0,0-3.151-3.667,7.888,7.888,0,0,0-2.242-1.214,6.438,6.438,0,0,0-2.38-.316,5.074,5.074,0,0,0-3.729,1.784l-.112.144-.075-.167a3.74,3.74,0,0,0-1.753-1.792,4.2,4.2,0,0,0-1.894-.459A4.5,4.5,0,0,0,220.989,160.737Z" transform="translate(-220.989 -160.261)"/></g><g transform="translate(13.65 6.637)"><path class="e" d="M244.564,169.643a1.565,1.565,0,0,1-.211.188,5.543,5.543,0,0,0-.546.6c-.222.277-.473.633-.781,1.043a4.136,4.136,0,0,1-1.271,1.227,1.374,1.374,0,0,1-1.06.069,4.9,4.9,0,0,1-1-.532,2.248,2.248,0,0,0-1.067-.392,3.018,3.018,0,0,0-1.194.287c-.4.167-.8.382-1.218.586a4.71,4.71,0,0,1-1.348.559,3.114,3.114,0,0,1-1.533-.155,2.49,2.49,0,0,1-.714-.379,1.144,1.144,0,0,1-.451-.736l.239.064a4.062,4.062,0,0,1-.868.842,3.994,3.994,0,0,1-1.128.526,4.608,4.608,0,0,1-2.534-.066,5.525,5.525,0,0,1-.989-.4,2.257,2.257,0,0,0-.883-.4,1.368,1.368,0,0,0-.886.222,6.685,6.685,0,0,1-.93.405,5.233,5.233,0,0,1-3.79.053,4.8,4.8,0,0,1-2.3-2.51,4.967,4.967,0,0,1-.285-2.913l.073.111a2.624,2.624,0,0,1-1.763-1.366,2.53,2.53,0,0,1,.242-2.634,1.76,1.76,0,0,1,.182-.206c.045-.043.069-.063.072-.06a2.882,2.882,0,0,0-.6,1.25,2.384,2.384,0,0,0,.231,1.581,2.477,2.477,0,0,0,1.669,1.25l.092.018-.018.093a4.8,4.8,0,0,0,.308,2.788,4.6,4.6,0,0,0,2.2,2.367,5.008,5.008,0,0,0,3.6-.076,6.516,6.516,0,0,0,.893-.393,1.645,1.645,0,0,1,1.044-.253,1.5,1.5,0,0,1,.535.167l.446.26a5.3,5.3,0,0,0,.939.383,4.346,4.346,0,0,0,2.382.066,3.727,3.727,0,0,0,1.047-.485,3.817,3.817,0,0,0,.808-.779l.2-.247.042.312c.06.449.545.743.987.9a2.869,2.869,0,0,0,1.406.151,4.532,4.532,0,0,0,1.282-.528c.42-.2.822-.413,1.238-.583a3.209,3.209,0,0,1,1.29-.291,2.437,2.437,0,0,1,1.164.435,4.781,4.781,0,0,0,.956.528,1.2,1.2,0,0,0,.929-.045,4.093,4.093,0,0,0,1.239-1.155c.316-.4.58-.75.816-1.02a4.408,4.408,0,0,1,.586-.576A1.115,1.115,0,0,1,244.564,169.643Z" transform="translate(-215.86 -163.674)"/></g></g><g transform="translate(0 124.393)"><path class="f" d="M22.289,391.169s-2.725,7.263-3.68,9.212,0,22.946,0,22.946H80.717l.878-18.466-29.9-18.028Z" transform="translate(-18.185 -386.833)"/></g><g transform="translate(126.129 99.326)"><path class="p" d="M267.185,339.328l24.446,4.615s-.464,10.573-.154,10.309-34.266-.324-34.266-.324Z" transform="translate(-257.211 -339.328)"/><g transform="translate(32.136 4.59)"><path class="p" d="M319.963,348.026l16.945,5.231,7.441,5.231,6.631,7.147s-.073,1.989-2.579.737a23.713,23.713,0,0,1-4.936-3.61l4.936,9.062s-1.989,1.989-3.61-.884-4.052-6.557-4.052-6.557l-1.474-1.1a15.731,15.731,0,0,1,1.547,3.463,38.49,38.49,0,0,1-1.547,4.863l-2.431,3.315a1.522,1.522,0,0,1-1.363-1.694,5.247,5.247,0,0,1,.995-2.652l-2.947,2.578s-1.032-.589-.148-2.5l1.105-1.179.368-1.842-.884-1.4a4.887,4.887,0,0,1-4.052-2.5c-1.768-2.653-4.494-2.137-8.325-4.421s-3.463-4.789-3.463-4.789Z" transform="translate(-318.112 -348.026)"/><g transform="translate(10.932 6.459)"><path class="q" d="M338.846,360.266a7.855,7.855,0,0,0,.642,2.041,8.342,8.342,0,0,0,1.326,1.9,19.16,19.16,0,0,0,2.109,1.929,12.072,12.072,0,0,1,2.136,1.97,2.7,2.7,0,0,1,.531,2.311,1.723,1.723,0,0,1-1.113,1.147,1.211,1.211,0,0,1-.44.05c-.1-.013-.151-.028-.15-.037a2.578,2.578,0,0,0,.556-.114,1.655,1.655,0,0,0,.961-1.1,2.537,2.537,0,0,0-.547-2.108,12.779,12.779,0,0,0-2.107-1.909,17.573,17.573,0,0,1-2.124-1.972,7.988,7.988,0,0,1-1.313-1.981,5.366,5.366,0,0,1-.453-1.537A1.716,1.716,0,0,1,338.846,360.266Z" transform="translate(-338.83 -360.266)"/></g><g transform="translate(14.217 8.94)"><path class="q" d="M356.031,370.363a1.76,1.76,0,0,1-.457-.2c-.285-.144-.693-.362-1.191-.64-1-.557-2.359-1.356-3.829-2.29-1.173-.744-2.238-1.461-3.083-2.051l.1.013c-.757.233-1.382.418-1.819.54a2.972,2.972,0,0,1-.694.158,2.957,2.957,0,0,1,.655-.279c.425-.158,1.04-.375,1.789-.631l.049-.017.047.031,3.106,2c1.467.932,2.81,1.756,3.78,2.354A13.288,13.288,0,0,1,356.031,370.363Z" transform="translate(-345.054 -364.968)"/></g><g transform="translate(18.12 14.617)"><path class="q" d="M355.4,375.733a2.669,2.669,0,0,1-2.948.775c.015-.08.712.03,1.526-.192S355.348,375.669,355.4,375.733Z" transform="translate(-352.452 -375.726)"/></g><g transform="translate(18.227 16.362)"><path class="q" d="M352.664,379.034a19.2,19.2,0,0,1,1.1,3.09,1.855,1.855,0,0,1-.146,1.324c-.168.367-.351.665-.475.927a4.247,4.247,0,0,0-.28.891,1.271,1.271,0,0,1,.1-.968c.106-.284.275-.6.421-.95a1.666,1.666,0,0,0,.113-1.154A19.987,19.987,0,0,1,352.664,379.034Z" transform="translate(-352.654 -379.034)"/></g></g></g><g transform="translate(2.41 40.19)"><path class="e" d="M22.752,312.154l21.792-23.522S73.218,239.4,78.92,234.858c14.263-11.351,30.452-5.408,30.452-5.408l5.768-2.19,9.72,24.69a72.239,72.239,0,0,0-3.962,6.328c-.36,1.055-43.582,66.444-43.582,66.444L61.871,346.35s-23.935-4.481-34.179-17.555C23.01,322.818,22.752,312.154,22.752,312.154Z" transform="translate(-22.752 -227.26)"/><g transform="translate(46.757 21.414)"><path class="e" d="M169.126,270.567l3.2-2.725.036,8.316,5.527,7.807s-16.178,19.486-19.5,22.734-29.945,34.848-29.945,34.848-1.407,14.989-3.2,19.235-13.877,3.129-13.877,3.129l6.006-17.2,2.5-12.41,30.2-39.97,11.855-15.52Z" transform="translate(-111.36 -267.842)"/></g><g transform="translate(96.433 33.324)"><path class="e" d="M205.5,307.967c0,.5,16.436,16.208,16.436,16.208s1.186,2.977,2.542,3.473,8.133,3.638,8.133,3.638l10.618-15.215s-5.366-4.962-6.891-5.789-5.195-5.1-5.195-5.1l-12.3-14.771L209.4,295.23Z" transform="translate(-205.501 -290.412)"/></g><g transform="translate(86.618 2.19)"><path class="f" d="M197.6,261.605a.606.606,0,0,1,.072-.148l.239-.414.938-1.564,3.449-5.629.122.166-8.94,2.384-.131.035-.035-.132-.941-3.57c-1.529-5.872-2.913-11.187-3.922-15.064-.484-1.911-.879-3.467-1.158-4.573l-.3-1.247a2.639,2.639,0,0,1-.087-.44,2.807,2.807,0,0,1,.14.425l.351,1.234c.3,1.1.723,2.649,1.243,4.551l4,15.044.938,3.571-.166-.1,8.953-2.336.272-.071-.15.237-3.531,5.579-.989,1.532-.266.4A.638.638,0,0,1,197.6,261.605Z" transform="translate(-186.902 -231.41)"/></g><g transform="translate(97.552 25.382)"><path class="f" d="M217.824,279.414a1.6,1.6,0,0,1-.286.274l-.854.718-3.089,2.507-.223.181.031-.287.576-5.412c.064-.579.127-1.148.188-1.692l.229.113c-1.9,1.8-3.579,3.383-4.791,4.507l-1.436,1.313a3.847,3.847,0,0,1-.545.452,3.838,3.838,0,0,1,.478-.522l1.379-1.373c1.179-1.158,2.837-2.763,4.727-4.573l.269-.258-.04.37c-.059.544-.121,1.113-.184,1.692-.223,1.973-.433,3.823-.613,5.408l-.192-.107,3.15-2.429.895-.666A1.6,1.6,0,0,1,217.824,279.414Z" transform="translate(-207.622 -275.361)"/></g><g transform="translate(92.674 41.175)"><path class="f" d="M215.478,305.292a1.006,1.006,0,0,1-.146.224l-.46.61c-.4.527-1,1.281-1.741,2.205-1.485,1.85-3.572,4.377-5.933,7.12s-4.553,5.183-6.162,6.926c-.8.872-1.461,1.572-1.922,2.049l-.535.546a1.006,1.006,0,0,1-.2.177.99.99,0,0,1,.159-.215l.5-.58,1.857-2.106c1.571-1.776,3.736-4.234,6.1-6.976s4.469-5.247,5.992-7.065l1.808-2.149.5-.578C215.406,305.351,215.471,305.285,215.478,305.292Z" transform="translate(-198.378 -305.291)"/></g><g transform="translate(113.903 53.274)"><path class="f" d="M251.225,328.221a3.767,3.767,0,0,1-.4.609c-.274.382-.684.924-1.2,1.587-1.035,1.323-2.52,3.112-4.267,4.992s-3.425,3.491-4.669,4.62c-.623.565-1.134,1.013-1.495,1.314a3.744,3.744,0,0,1-.578.448,3.714,3.714,0,0,1,.506-.528l1.434-1.376c1.208-1.164,2.858-2.791,4.6-4.665s3.245-3.637,4.317-4.927l1.269-1.53A3.687,3.687,0,0,1,251.225,328.221Z" transform="translate(-238.609 -328.22)"/></g><g transform="translate(44.294 32.399)"><path class="f" d="M106.694,368.68s.04-.075.128-.213l.4-.611,1.551-2.334,5.753-8.551c4.865-7.215,11.62-17.16,19-28.2,7.358-11.056,14-21.075,18.4-28.587,2.261-3.719,4.228-6.649,5.7-8.587.73-.974,1.323-1.711,1.738-2.2l.472-.555c.108-.124.168-.183.168-.183s-.046.071-.147.2l-.451.572c-.4.5-.979,1.246-1.695,2.228-1.445,1.956-3.383,4.9-5.622,8.625-4.357,7.537-10.982,17.583-18.339,28.639-7.377,11.04-14.158,20.968-19.064,28.155l-5.825,8.5-1.594,2.3-.42.6C106.749,368.616,106.694,368.68,106.694,368.68Z" transform="translate(-106.694 -288.66)"/></g><g transform="translate(27.003 66.648)"><path class="f" d="M92.426,373.146a1.026,1.026,0,0,1-.225-.159l-.611-.5c-.528-.434-1.278-1.079-2.189-1.893-1.825-1.625-4.277-3.951-6.841-6.661s-4.744-5.295-6.264-7.209c-.76-.957-1.362-1.741-1.765-2.293l-.461-.638a1.021,1.021,0,0,1-.146-.234,1.058,1.058,0,0,1,.189.2l.5.606,1.832,2.236c1.556,1.88,3.757,4.435,6.313,7.143s4.983,5.046,6.772,6.706l2.129,1.956.577.535A1.053,1.053,0,0,1,92.426,373.146Z" transform="translate(-73.924 -353.563)"/></g></g><g transform="translate(54.647 44.602)"><g transform="translate(2.521)"><path class="f" d="M150.942,241.209c-.024.015-.233-.345-.7-.922a9.468,9.468,0,0,0-2.379-2.03,15.752,15.752,0,0,0-4.332-1.685,19.788,19.788,0,0,0-5.655-.661,12.517,12.517,0,0,0-5.456,1.45,12.705,12.705,0,0,0-3.6,2.906,14.052,14.052,0,0,0-1.762,2.6c-.35.658-.5,1.044-.529,1.033a1.263,1.263,0,0,1,.094-.287,8.2,8.2,0,0,1,.339-.795,12.863,12.863,0,0,1,1.71-2.679,12.351,12.351,0,0,1,9.2-4.5,19.545,19.545,0,0,1,5.73.69,15.42,15.42,0,0,1,4.37,1.766,8.973,8.973,0,0,1,2.36,2.129,7.322,7.322,0,0,1,.479.721A1.205,1.205,0,0,1,150.942,241.209Z" transform="translate(-126.524 -235.622)"/></g><g transform="translate(0 10.344)"><g transform="translate(0.112)"><path class="e" d="M122.372,257.477s-.93,32.625,0,48.088c.283,4.719,2.037,7.84,2.4,7.946.948.28,20.107-1.341,20.107-1.341s.154-5.855,1.6-8.05-2.258-1.28-2.258-1.28,7.911-40.215,6.922-47.615" transform="translate(-121.959 -255.225)"/></g><path class="f" d="M151.04,255.225s.051.313.092.92c.024.608.037,1.51-.03,2.676-.112,2.334-.465,5.723-1.042,9.962-1.15,8.479-3.167,20.36-5.814,34.082l-.16-.152a6.96,6.96,0,0,1,1.485-.194,2.315,2.315,0,0,1,.775.108.823.823,0,0,1,.361.247.667.667,0,0,1,.136.435,1.756,1.756,0,0,1-.277.756c-.135.225-.251.42-.36.643a8.634,8.634,0,0,0-.495,1.4,28.868,28.868,0,0,0-.8,6.067l-.005.122-.12.01-8.159.659c-2.358.182-4.689.355-6.988.5-1.15.07-2.291.145-3.427.185-.283.014-.568.02-.853.021a3.944,3.944,0,0,1-.436-.007l-.23-.021c-.054.02-.213-.089-.24-.135a6.187,6.187,0,0,1-.854-1.5,19.42,19.42,0,0,1-1.459-6.415q-.079-1.608-.156-3.181-.051-1.574-.1-3.111c-.2-8.2-.147-15.578-.078-21.776s.186-11.212.278-14.676c.052-1.725.092-3.067.12-3.989q.027-.674.041-1.037c.011-.234.024-.353.024-.353s.006.12,0,.354-.008.588-.014,1.038c-.016.922-.039,2.264-.069,3.99-.059,3.465-.142,8.48-.191,14.676s-.077,13.577.137,21.766q.052,1.536.106,3.108.079,1.57.159,3.176a19.192,19.192,0,0,0,1.444,6.324,6.1,6.1,0,0,0,.8,1.414.148.148,0,0,0,.048.045c0,.013.029.019.065.018l.191.014a3.859,3.859,0,0,0,.409.005c.28,0,.561-.007.844-.021,1.13-.042,2.271-.116,3.419-.187,2.3-.149,4.627-.323,6.984-.5l8.157-.657-.125.132a29.063,29.063,0,0,1,.812-6.131,8.823,8.823,0,0,1,.513-1.443,4.806,4.806,0,0,0,.612-1.295.42.42,0,0,0-.323-.423,2.081,2.081,0,0,0-.683-.092,6.731,6.731,0,0,0-1.422.184l-.2.045.039-.2c2.663-13.714,4.713-25.587,5.909-34.054.6-4.233.977-7.616,1.116-9.944.081-1.164.082-2.063.073-2.67,0-.3-.033-.533-.039-.688S151.04,255.225,151.04,255.225Z" transform="translate(-121.746 -255.225)"/></g><g transform="translate(1.572 58.155)"><path class="f" d="M146.129,345.837a5.019,5.019,0,0,1-.828.168c-.536.09-1.314.2-2.279.321-1.929.24-4.605.478-7.567.606s-5.651.116-7.593.042c-.971-.034-1.756-.081-2.3-.126a4.917,4.917,0,0,1-.84-.1,5,5,0,0,1,.845-.009l2.3.038c1.939.024,4.619,0,7.576-.123s5.628-.335,7.558-.525l2.285-.234A4.917,4.917,0,0,1,146.129,345.837Z" transform="translate(-124.725 -345.831)"/></g><g transform="translate(2.924 67.424)"><path class="p" d="M127.288,364.6l11.264,47.417h11.264l-3.15-48.624Z" transform="translate(-127.288 -363.396)"/><g transform="translate(11.264 41.915)"><path class="p" d="M158.9,442.83l11.226,1.962,10.107,3.056c.936.319,1.536.861,1.16,2.034h0l-32.756-.344v-5.694Z" transform="translate(-148.635 -442.83)"/></g><g transform="translate(24.345 45.363)"><path class="q" d="M188.565,452.92a4.589,4.589,0,0,0-.018-.641,1.611,1.611,0,0,0-1.084-1.206,12.68,12.68,0,0,0-2.578-.367l-3.215-.328c-2.281-.24-4.344-.472-5.836-.654l-1.765-.23a2.973,2.973,0,0,1-.643-.121,3.008,3.008,0,0,1,.654.015l1.774.142c1.5.132,3.563.335,5.845.574l3.213.349,1.4.161a4.519,4.519,0,0,1,1.222.278,1.706,1.706,0,0,1,1.118,1.372,1.574,1.574,0,0,1-.03.493C188.594,452.868,188.574,452.923,188.565,452.92Z" transform="translate(-173.425 -449.363)"/></g></g><g class="o" transform="translate(22.364 18.302)"><path d="M164.74,329.436l3.964-17.292v-5.417l-1.487-.947,3.484-35.474-6.564,39.657.792-.068c.9-.077,2.025-.287,1.807.592L165.5,313.2l-1.371,7.181Z" transform="translate(-164.128 -270.306)"/></g></g><g transform="translate(113.497 38.431)"><g transform="translate(0.124 0.152)"><path class="q" d="M234.692,224.216a3.661,3.661,0,0,0-.584,4.678,2.632,2.632,0,0,0,3.7.465,4.744,4.744,0,0,0,1.333-1.829C237.917,226.559,235.918,225.187,234.692,224.216Z" transform="translate(-233.506 -224.216)"/></g><path class="f" d="M237.3,229.533a1.229,1.229,0,0,1-.526.193,2.833,2.833,0,0,1-1.522-.138,2.992,2.992,0,0,1-1.656-1.542,3.455,3.455,0,0,1-.066-2.763,4.247,4.247,0,0,1,.77-1.263l.082-.093.1.073c1.283.95,2.4,1.791,3.19,2.4a10.366,10.366,0,0,1,1.236,1.016,10.6,10.6,0,0,1-1.339-.875c-.819-.572-1.956-1.385-3.246-2.325l.181-.02a4.079,4.079,0,0,0-.717,1.185,3.251,3.251,0,0,0,.04,2.557,2.844,2.844,0,0,0,1.5,1.468,2.951,2.951,0,0,0,1.435.213C237.1,229.581,237.289,229.51,237.3,229.533Z" transform="translate(-233.272 -223.927)"/></g></g></g></svg>