<svg xmlns="http://www.w3.org/2000/svg" width="41" height="28" viewBox="0 0 41 28"><defs><style>.a,.b{fill:#0c534e;}.a{opacity:0.201;}.b{stroke:#0c534e;}</style></defs><g transform="translate(-324 -33)"><path class="a" d="M14,0H27a14,14,0,0,1,0,28H14A14,14,0,0,1,14,0Z" transform="translate(324 33)"/><g transform="translate(336.484 36.854)"><g transform="translate(0.624 4.725)"><path class="b" d="M15.292,12.885H8.342a2.464,2.464,0,0,0-4.829,0H1.493a.493.493,0,0,0,0,.986H3.514a2.464,2.464,0,0,0,4.829,0h6.949a.493.493,0,1,0,0-.986ZM5.928,14.857a1.478,1.478,0,1,1,1.478-1.478,1.478,1.478,0,0,1-1.478,1.478Zm-4.435-6.9H8.442a2.464,2.464,0,0,0,4.829,0h2.021a.493.493,0,1,0,0-.986H13.271a2.464,2.464,0,0,0-4.829,0H1.493a.493.493,0,0,0,0,.986Zm9.363-1.971A1.478,1.478,0,1,1,9.378,7.464a1.478,1.478,0,0,1,1.478-1.478Z" transform="translate(-1 -5)"/></g></g></g></svg>