<svg xmlns="http://www.w3.org/2000/svg" width="21.017" height="23.062" viewBox="0 0 21.017 23.062"><defs><style>.a{fill:none;}.a,.b{stroke:#fff;stroke-linecap:round;stroke-linejoin:round;}.b{fill:#fff;}</style></defs><g transform="translate(-308.582 -740.907)"><path class="a" d="M194.89,225.807l1.729-.759-1.729-.758" transform="translate(120.884 529.374)"/><ellipse class="b" cx="0.726" cy="0.726" rx="0.726" ry="0.726" transform="translate(321.247 753.729)"/><path class="a" d="M211.65,302.18a3.235,3.235,0,0,1-5.74,0" transform="translate(110.495 455.947)"/><path class="a" d="M89.981,188.58h-.087a2.491,2.491,0,0,0,0,4.974h.087Z" transform="translate(222.083 563.038)"/><path class="a" d="M113.841,230.351s-.324-.893-.991-1.021" transform="translate(198.223 524.623)"/><path class="a" d="M384.85,188.58h.088a2.491,2.491,0,0,1,0,4.974h-.088Z" transform="translate(-58.192 563.038)"/><path class="a" d="M384.85,230.351s.324-.893.992-1.021" transform="translate(-58.192 524.623)"/><path class="b" d="M94.629,12.718h0a2.891,2.891,0,0,0-1.617.492,4.729,4.729,0,0,0-4.332-2.83H78.11v1.926A6.619,6.619,0,0,0,79.519,16.4v4.577l.787-.466h.787V17.85a6.61,6.61,0,0,0,3.663,1.1h4.831a2.235,2.235,0,0,0,1.423-.5,1.987,1.987,0,0,0,.716-1.2l.883,1.691a4.206,4.206,0,0,0,3.332,1.636l1.4.436v-5.6A2.711,2.711,0,0,0,94.629,12.718Z" transform="translate(230.973 731.027)"/><path class="a" d="M141.677,132.181l-.883-1.691a1.987,1.987,0,0,1-.716,1.2,2.235,2.235,0,0,1-1.423.5h-4.831a6.617,6.617,0,0,1-3.491-.991,7.333,7.333,0,0,0-.172,1.581v5.6a7.3,7.3,0,0,0,7.3,7.3h0a7.3,7.3,0,0,0,7.3-7.3v-4.565A4.207,4.207,0,0,1,141.677,132.181Z" transform="translate(181.905 617.799)"/></g></svg>