<svg xmlns="http://www.w3.org/2000/svg" width="20.34" height="17.701" viewBox="0 0 20.34 17.701"><defs><style>.a{fill:#0c534e;stroke:#0c534e;stroke-width:2px;}</style></defs><g transform="translate(36.196 -312.415)"><path class="a" d="M-30.448,313.415a.327.327,0,0,0-.28.16l-4.4,7.5a.328.328,0,0,0,0,.378l4.4,7.5a.327.327,0,0,0,.28.16h8.836a.327.327,0,0,0,.28-.16l4.415-7.524a.327.327,0,0,0,0-.333l-4.415-7.525a.327.327,0,0,0-.28-.16Zm4.42,4.578a3.272,3.272,0,0,1,3.267,3.27,3.276,3.276,0,0,1-3.267,3.275,3.28,3.28,0,0,1-3.272-3.275A3.276,3.276,0,0,1-26.028,317.993Z" transform="translate(0)"/></g></svg>