<svg xmlns="http://www.w3.org/2000/svg" width="212.191" height="108.66" viewBox="0 0 212.191 108.66"><defs><style>.a{fill:#fff;}.b{fill:#e88600;}.c{fill:#e39e49;}.d,.f{fill:#fcc21b;}.e{fill:#4285f4;}.f{stroke:#e39e49;stroke-linecap:round;stroke-miterlimit:10;stroke-width:4px;}</style></defs><g transform="translate(-28.826 -110.34)"><path class="a" d="M38.291-41.654V0H29.913V-18.113H12.1V0H3.776V-41.654H12.1V-24.78H29.913V-41.654ZM76.936-17.582a15.75,15.75,0,0,1-.3,2.832H52.687q.177,4.366,2.36,6.431a7.593,7.593,0,0,0,5.428,2.065A7.875,7.875,0,0,0,65.284-7.67,6.272,6.272,0,0,0,67.732-11.5h8.791A14.064,14.064,0,0,1,73.75-5.369a14.491,14.491,0,0,1-5.457,4.248,17.5,17.5,0,0,1-7.4,1.534,17.4,17.4,0,0,1-8.5-2.035A14.308,14.308,0,0,1,46.61-7.434a18.291,18.291,0,0,1-2.065-8.909,18.463,18.463,0,0,1,2.065-8.938,14.074,14.074,0,0,1,5.782-5.812,17.6,17.6,0,0,1,8.5-2.006,17.219,17.219,0,0,1,8.466,2.006,14.139,14.139,0,0,1,5.605,5.517A16.011,16.011,0,0,1,76.936-17.582Zm-8.378-.826q.177-4.012-2.094-6.077a7.985,7.985,0,0,0-5.576-2.065,8.172,8.172,0,0,0-5.664,2.065,8.453,8.453,0,0,0-2.537,6.077ZM91.509-43.66V0H83.19V-43.66Zm16.225,0V0H99.415V-43.66ZM130.744-33.1a18.125,18.125,0,0,1,8.584,2.006,14.682,14.682,0,0,1,5.989,5.812,17.655,17.655,0,0,1,2.183,8.938,17.492,17.492,0,0,1-2.183,8.909,14.933,14.933,0,0,1-5.989,5.812A17.912,17.912,0,0,1,130.744.413a17.912,17.912,0,0,1-8.585-2.035,14.933,14.933,0,0,1-5.989-5.812,17.492,17.492,0,0,1-2.183-8.909,17.655,17.655,0,0,1,2.183-8.938,14.682,14.682,0,0,1,5.989-5.812A18.125,18.125,0,0,1,130.744-33.1Zm0,7.2a7.979,7.979,0,0,0-5.9,2.448q-2.419,2.449-2.419,7.11t2.419,7.11a7.979,7.979,0,0,0,5.9,2.448,7.979,7.979,0,0,0,5.9-2.448q2.419-2.449,2.419-7.11t-2.419-7.11A7.979,7.979,0,0,0,130.744-25.9ZM32.1,22.346v6.608H20.591V64H12.272V28.954H.826V22.346Zm24.426,8.5a11.574,11.574,0,0,1,9.027,3.717Q68.912,38.276,68.912,45V64h-8.26V45.946A8.536,8.536,0,0,0,58.646,39.9a7.133,7.133,0,0,0-5.487-2.153,7.338,7.338,0,0,0-5.664,2.3q-2.124,2.3-2.124,6.608V64H37.052V20.34h8.319V37.863A10.414,10.414,0,0,1,49.648,32.7,12.715,12.715,0,0,1,56.522,30.842Zm50.8,15.576a15.751,15.751,0,0,1-.295,2.832H83.072q.177,4.366,2.36,6.431a7.593,7.593,0,0,0,5.428,2.065,7.875,7.875,0,0,0,4.809-1.416A6.272,6.272,0,0,0,98.117,52.5h8.791a14.064,14.064,0,0,1-2.773,6.136,14.491,14.491,0,0,1-5.458,4.248,18.7,18.7,0,0,1-15.9-.5A14.308,14.308,0,0,1,77,56.566a18.291,18.291,0,0,1-2.065-8.909A18.463,18.463,0,0,1,77,38.718a14.074,14.074,0,0,1,5.782-5.812,17.6,17.6,0,0,1,8.5-2.006,17.219,17.219,0,0,1,8.467,2.006,14.139,14.139,0,0,1,5.6,5.517A16.011,16.011,0,0,1,107.321,46.418Zm-8.378-.826q.177-4.012-2.095-6.077a7.985,7.985,0,0,0-5.576-2.065,8.172,8.172,0,0,0-5.664,2.065,8.453,8.453,0,0,0-2.537,6.077Zm22.951-8.024a13.673,13.673,0,0,1,4.838-4.926,12.853,12.853,0,0,1,6.726-1.8v8.909h-2.419q-9.145,0-9.145,8.5V64h-8.319V31.314h8.319Zm47.259,8.85a15.75,15.75,0,0,1-.295,2.832H144.9q.177,4.366,2.36,6.431a7.593,7.593,0,0,0,5.428,2.065A7.875,7.875,0,0,0,157.5,56.33a6.272,6.272,0,0,0,2.449-3.835h8.791a14.064,14.064,0,0,1-2.773,6.136,14.491,14.491,0,0,1-5.457,4.248,18.7,18.7,0,0,1-15.9-.5,14.308,14.308,0,0,1-5.782-5.811,18.291,18.291,0,0,1-2.065-8.909,18.463,18.463,0,0,1,2.065-8.938,14.074,14.074,0,0,1,5.782-5.812,17.6,17.6,0,0,1,8.5-2.006,17.219,17.219,0,0,1,8.467,2.006,14.139,14.139,0,0,1,5.6,5.517A16.011,16.011,0,0,1,169.153,46.418Zm-8.378-.826q.177-4.012-2.094-6.077A7.985,7.985,0,0,0,153.1,37.45a8.172,8.172,0,0,0-5.664,2.065,8.453,8.453,0,0,0-2.537,6.077Z" transform="translate(28 154)"/><circle class="b" cx="6" cy="6" r="6" transform="translate(202 207)"/><g transform="translate(219 196.979)"><path class="c" d="M62.688,21l-.344-.344L62,21V5l.222.222a.173.173,0,0,0,.244,0L62.688,5Z" transform="translate(-51.335 -4.136)"/><path class="d" d="M66,7.789V.984a1,1,0,0,1,.158-.559A.946.946,0,0,1,67.689.366l.062.079a.953.953,0,0,1,.184.4L68.446,6.5c.2,2.547.662,3.149,1.225,5.848.279,1.337-2.193,5.547-2.193,5.547s-1.02.523-.991-1.942C66.5,15.07,66,7.789,66,7.789Z" transform="translate(-54.647 0)"/><path class="d" d="M44.225,7.789V.984a1,1,0,0,0-.158-.559A.946.946,0,0,0,42.536.366l-.062.079a.953.953,0,0,0-.184.4L41.779,6.5c-.2,2.547-.662,3.149-1.225,5.848-.279,1.337,2.193,5.547,2.193,5.547s1.02.523.991-1.942C43.728,15.07,44.225,7.789,44.225,7.789Z" transform="translate(-33.561 0)"/><path class="d" d="M75.8,74.38s1.548,2.537,2.709,3.162S75.976,83.2,75.976,83.2s-1.992-3.344-2.616-3.387" transform="translate(-60.741 -61.582)"/><path class="d" d="M67.362,27.908s-1.383-.1-1.355-2.245S66,18.57,66,18.57V12.637a.749.749,0,0,1,.2-.507h0a.878.878,0,0,1,.246-.191.984.984,0,0,1,1.381.611l.107,1.987" transform="translate(-54.647 -9.792)"/><path class="d" d="M67.928,22.716a.976.976,0,1,0-1.937.005V34.153c-.029,1.877.3,1.751.3,1.751l1.065.217a2.367,2.367,0,0,0,2.308-1.827l.132-.566a12.716,12.716,0,0,0-.994-6.844,15.625,15.625,0,0,1-.87-4.243" transform="translate(-54.638 -17.896)"/><path class="d" d="M41.3,22.716a.976.976,0,1,1,1.937.005V34.153c.029,1.877-1.362,1.97-1.362,1.97h0A2.367,2.367,0,0,1,39.57,34.3l-.132-.566a12.716,12.716,0,0,1,.994-6.844,15.625,15.625,0,0,0,.87-4.243" transform="translate(-32.576 -17.896)"/><path class="d" d="M26.3,74.38s-1.548,2.537-2.709,3.162S26.131,83.2,26.131,83.2s1.992-3.344,2.616-3.387" transform="translate(-19.349 -61.582)"/><path class="e" d="M84.925,90.83,80.46,95.619l1.409,1.6h6.769V93.885Z" transform="translate(-66.62 -75.203)"/><path class="d" d="M52.6,27.528s.1.273.074-1.865.007-7.094.007-7.094V12.637a.749.749,0,0,0-.2-.507h0a.878.878,0,0,0-.246-.191.984.984,0,0,0-1.381.611l-.107,1.987" transform="translate(-42.012 -9.792)"/><g transform="translate(10.66 1.911)"><path class="d" d="M65.8,12.187c-.556-.814-1.8-.485-1.8.984" transform="translate(-63.652 -11.638)"/><path class="c" d="M64.125,11.637l-.089-.086a.559.559,0,0,0-.11-.088c-.022-.015-.043-.031-.069-.046l-.084-.04a.814.814,0,0,0-.193-.06.83.83,0,0,0-.217,0,.348.348,0,0,0-.108.022.388.388,0,0,0-.1.04.739.739,0,0,0-.186.122l-.076.081a1.058,1.058,0,0,0-.064.089.364.364,0,0,0-.053.095c-.014.033-.031.064-.043.1a1.274,1.274,0,0,0-.052.2,1.2,1.2,0,0,0-.022.182c0,.057,0,.11-.005.157s.007.089.01.124c.005.064.009.1.009.1l0,.026a.348.348,0,1,1-.693.057.418.418,0,0,1,0-.081s.009-.052.022-.141q.01-.067.026-.16l.057-.2a1.877,1.877,0,0,1,.091-.236,1.92,1.92,0,0,1,.139-.249c.028-.041.062-.079.095-.12a.663.663,0,0,1,.107-.114,1.342,1.342,0,0,1,.12-.1l.136-.086a1.055,1.055,0,0,1,.3-.1.649.649,0,0,1,.151-.017.592.592,0,0,1,.146.005,1,1,0,0,1,.261.067,1.021,1.021,0,0,1,.2.12l.079.064c.022.022.043.046.062.069a.548.548,0,0,1,.088.114Z" transform="translate(-61.976 -11.088)"/></g><g transform="translate(8.84 0.009)"><path class="d" d="M51.39,1.114c.428-.839,1.961-.4,2.179.839" transform="translate(-51.39 -0.571)"/><path class="c" d="M51.39.577l.057-.115a.52.52,0,0,1,.088-.124A.789.789,0,0,1,51.686.2a.65.65,0,0,1,.1-.058A.51.51,0,0,1,51.9.094l.131-.038.139-.017a1.032,1.032,0,0,1,.146,0,.723.723,0,0,1,.15.012c.05.009.1.015.151.028l.15.045a1.335,1.335,0,0,1,.144.058.815.815,0,0,1,.139.071l.132.081c.041.029.081.064.12.095a1.841,1.841,0,0,1,.212.2c.062.071.11.146.16.213s.077.139.11.2a1.225,1.225,0,0,1,.067.163l.052.148a.347.347,0,1,1-.655.229.372.372,0,0,1-.017-.076l0-.034s0-.036-.01-.1a.533.533,0,0,0-.017-.117c-.012-.043-.022-.1-.04-.15s-.041-.112-.074-.17a1.473,1.473,0,0,0-.114-.179c-.024-.029-.046-.06-.071-.089L52.823.584A.684.684,0,0,0,52.73.5a.72.72,0,0,0-.1-.072L52.52.369c-.038-.019-.076-.033-.114-.05A.58.58,0,0,0,52.29.281a.733.733,0,0,0-.119-.026L52.054.242c-.038,0-.076,0-.112.007a.344.344,0,0,0-.1.019.587.587,0,0,0-.1.028.7.7,0,0,0-.157.086.529.529,0,0,0-.11.1Z" transform="translate(-51.39 -0.034)"/></g><g transform="translate(10.626 0.01)"><path class="d" d="M66.049,1.114c-.428-.839-1.961-.4-2.179.839" transform="translate(-63.51 -0.571)"/><path class="c" d="M64.317.579l-.083-.1a.464.464,0,0,0-.108-.095A.7.7,0,0,0,63.97.3a.432.432,0,0,0-.1-.028.419.419,0,0,0-.1-.019c-.036,0-.074,0-.112-.007s-.077.009-.117.014a.733.733,0,0,0-.119.026A.58.58,0,0,0,63.3.323c-.038.017-.077.031-.114.05l-.108.064a1,1,0,0,0-.1.072.58.58,0,0,0-.093.079c-.029.028-.057.055-.084.083s-.048.062-.071.089a1.306,1.306,0,0,0-.115.179c-.031.058-.05.12-.074.17s-.028.107-.04.15a.549.549,0,0,0-.017.117c-.007.064-.01.1-.01.1l0,.033a.348.348,0,0,1-.691-.076.389.389,0,0,1,.017-.077l.052-.148a1.138,1.138,0,0,1,.067-.163c.033-.06.065-.131.11-.2s.1-.143.16-.213a1.841,1.841,0,0,1,.212-.2c.04-.031.079-.064.12-.095s.088-.053.132-.081A.954.954,0,0,1,62.79.182a1.058,1.058,0,0,1,.144-.058l.15-.045c.05-.012.1-.019.151-.028a.732.732,0,0,1,.15-.012.69.69,0,0,1,.146,0l.139.017L63.8.1a.544.544,0,0,1,.117.05.58.58,0,0,1,.1.058.79.79,0,0,1,.151.136.52.52,0,0,1,.088.124C64.3.536,64.317.579,64.317.579Z" transform="translate(-61.778 -0.037)"/></g><path class="f" d="M64,10" transform="translate(-52.991 -8.276)"/><g transform="translate(9.185 1.909)"><path class="d" d="M55.223,13.169c0-1.49-1.28-1.806-1.823-.951" transform="translate(-53.4 -11.635)"/><path class="c" d="M54.879,12.633s0-.046.009-.126c0-.04.005-.088.009-.144s0-.091-.005-.144a1.068,1.068,0,0,0-.024-.181,1.318,1.318,0,0,0-.055-.2c-.014-.033-.031-.064-.045-.1a.4.4,0,0,0-.055-.095.9.9,0,0,0-.144-.17.759.759,0,0,0-.193-.117.411.411,0,0,0-.107-.036l-.055-.015-.055,0a.783.783,0,0,0-.22.01.909.909,0,0,0-.193.069l-.084.043-.069.052a.54.54,0,0,0-.107.091l-.086.091.064-.11a.632.632,0,0,1,.086-.119c.019-.022.038-.046.06-.071l.079-.067a.974.974,0,0,1,.2-.129,1,1,0,0,1,.263-.076l.072-.012H54.3a.766.766,0,0,1,.153.012,1.1,1.1,0,0,1,.3.1,1.3,1.3,0,0,1,.263.186.623.623,0,0,1,.11.114c.033.04.067.079.1.12a2.1,2.1,0,0,1,.143.251,1.854,1.854,0,0,1,.095.243c.022.081.041.157.058.222s.019.1.026.143c.014.079.022.124.022.124v0a.347.347,0,0,1-.683.119A.2.2,0,0,1,54.879,12.633Z" transform="translate(-53.4 -11.08)"/></g><path class="e" d="M3.8,90.83l4.512,4.789-1.362,1.6H0V93.888Z" transform="translate(0 -75.203)"/><path class="d" d="M85.27,105.93" transform="translate(-70.603 -87.706)"/><g transform="translate(9.063 5.155)"><path class="d" d="M54.644,32.169c0-1.615-1.5-1.851-1.944-.71" transform="translate(-52.698 -30.613)"/><path class="c" d="M54.291,31.527s0-.05.007-.138c0-.043,0-.1.007-.157s-.007-.1-.01-.157a1.133,1.133,0,0,0-.034-.194,1.5,1.5,0,0,0-.072-.208.983.983,0,0,0-.127-.193.392.392,0,0,0-.083-.086c-.033-.022-.058-.058-.1-.072s-.071-.041-.108-.057l-.117-.036-.122-.014a.972.972,0,0,0-.122.009.868.868,0,0,0-.23.071c-.034.019-.069.036-.1.053l-.086.069a.82.82,0,0,0-.139.139.7.7,0,0,0-.091.124c-.046.074-.072.117-.072.117s.017-.046.046-.131a.583.583,0,0,1,.065-.146.928.928,0,0,1,.114-.179l.079-.1c.033-.028.067-.057.1-.088a1.045,1.045,0,0,1,.26-.144,1.146,1.146,0,0,1,.155-.045c.055-.007.11-.014.169-.019l.174.014a1.583,1.583,0,0,1,.172.045.925.925,0,0,1,.163.072.717.717,0,0,1,.15.1,1.423,1.423,0,0,1,.248.239,1.836,1.836,0,0,1,.169.27,1.937,1.937,0,0,1,.108.263q.036.134.067.243c.01.06.019.114.028.157.014.086.022.136.022.136v0a.346.346,0,0,1-.683.115A.535.535,0,0,1,54.291,31.527Z" transform="translate(-52.69 -29.95)"/></g><g transform="translate(10.662 5.152)"><path class="d" d="M65.987,31.587C65.612,30.3,64,30.5,64,32.17" transform="translate(-63.654 -30.61)"/><path class="c" d="M64.319,30.906s-.024-.046-.064-.127a.64.64,0,0,0-.083-.139.869.869,0,0,0-.129-.158c-.026-.026-.055-.052-.083-.079s-.067-.045-.1-.069a.376.376,0,0,0-.11-.058.715.715,0,0,0-.12-.043l-.127-.022-.129,0a.736.736,0,0,0-.243.074.376.376,0,0,0-.1.067.346.346,0,0,0-.091.083.569.569,0,0,0-.077.093c-.021.034-.041.069-.062.1a1.429,1.429,0,0,0-.083.213,1.7,1.7,0,0,0-.04.2c-.005.065-.009.126-.014.179s.007.1.009.143c.005.074.007.119.007.119l0,.033a.346.346,0,0,1-.691.038.323.323,0,0,1,0-.071l.024-.162c.009-.052.015-.114.031-.184s.043-.15.069-.237a2.212,2.212,0,0,1,.117-.27,1.8,1.8,0,0,1,.184-.277c.041-.043.083-.084.124-.129a1.041,1.041,0,0,1,.144-.112.676.676,0,0,1,.162-.091.69.69,0,0,1,.175-.064,1.04,1.04,0,0,1,.363-.031c.058.01.117.021.172.033s.1.043.157.064a1.065,1.065,0,0,1,.136.084.52.52,0,0,1,.115.1,1.057,1.057,0,0,1,.1.1c.026.036.05.072.072.107a.94.94,0,0,1,.1.2.674.674,0,0,1,.053.157C64.305,30.856,64.319,30.906,64.319,30.906Z" transform="translate(-61.986 -29.929)"/></g><g transform="translate(8.922 15.937)"><path class="d" d="M51.87,96.866s2.019.48,2.074-1.916" transform="translate(-51.87 -94.551)"/><path class="c" d="M51.87,94.944a1.4,1.4,0,0,0,.143.009c.045,0,.1,0,.162,0s.132-.009.208-.024a1.672,1.672,0,0,0,.237-.055,1.635,1.635,0,0,0,.248-.1,1.259,1.259,0,0,0,.23-.15,1.223,1.223,0,0,0,.2-.193,1.889,1.889,0,0,0,.144-.229,2.163,2.163,0,0,0,.093-.246c.019-.084.038-.165.055-.241s.014-.157.019-.227a.913.913,0,0,0,0-.193q0-.088-.005-.15c0-.083,0-.129,0-.129l0-.031a.347.347,0,0,1,.693-.022.487.487,0,0,1-.005.071s-.01.057-.026.155c-.009.048-.019.108-.031.175a1.412,1.412,0,0,1-.053.227c-.026.083-.053.17-.081.265s-.086.187-.132.286a2.845,2.845,0,0,1-.184.284,2.232,2.232,0,0,1-.244.249,1.624,1.624,0,0,1-.6.3,1.881,1.881,0,0,1-.292.048,1.911,1.911,0,0,1-.26.005c-.079,0-.153-.014-.217-.021s-.119-.019-.163-.031A.777.777,0,0,1,51.87,94.944Z" transform="translate(-51.87 -92.629)"/></g><g transform="translate(10.666 15.945)"><path class="d" d="M66.118,96.892s-2.016.494-2.088-1.9" transform="translate(-63.683 -94.593)"/><path class="c" d="M64.446,94.98a1.366,1.366,0,0,1-.138.038c-.045.012-.1.021-.163.033s-.136.019-.217.022a1.655,1.655,0,0,1-.26,0,1.87,1.87,0,0,1-.292-.046,1.64,1.64,0,0,1-.6-.3,2.231,2.231,0,0,1-.246-.248,3.06,3.06,0,0,1-.186-.282c-.046-.1-.095-.193-.134-.286l-.083-.265a1.2,1.2,0,0,1-.055-.227c-.012-.067-.022-.127-.033-.175-.017-.1-.028-.155-.028-.155a.347.347,0,0,1,.683-.122.44.44,0,0,1,.005.067l0,.033s0,.046,0,.129c0,.043,0,.095,0,.153a.92.92,0,0,0,.005.193c.007.071.014.146.021.225s.038.158.057.241a2.542,2.542,0,0,0,.095.244,1.884,1.884,0,0,0,.146.227,1.155,1.155,0,0,0,.2.191,1.264,1.264,0,0,0,.232.148,1.825,1.825,0,0,0,.248.095,1.657,1.657,0,0,0,.237.053,2.008,2.008,0,0,0,.208.022c.062,0,.117.005.162,0A.963.963,0,0,0,64.446,94.98Z" transform="translate(-62.01 -92.68)"/></g></g></g></svg>