<svg height="24.308" viewBox="0 0 19.379 24.308" width="19.379" xmlns="http://www.w3.org/2000/svg"><g fill="#d9d1d1"><path d="m23.283 15a1.288 1.288 0 0 0 -1.283 1.317v21.668a1.3 1.3 0 0 0 2.045 1.075l6.9-4.958a1.3 1.3 0 0 1 1.491 0l6.9 4.958a1.291 1.291 0 0 0 2.045-1.075v-21.668a1.31 1.31 0 0 0 -1.281-1.317zm13 9.326-1.8 1.768a.521.521 0 0 0 -.139.381l.416 2.5a.427.427 0 0 1 -.624.451l-2.219-1.179a.442.442 0 0 0 -.416 0l-2.221 1.175a.427.427 0 0 1 -.624-.451l.416-2.5a.412.412 0 0 0 -.139-.381l-1.8-1.768a.451.451 0 0 1 .243-.763l2.5-.347a.5.5 0 0 0 .347-.243l1.109-2.253a.457.457 0 0 1 .8 0l1.109 2.253a.439.439 0 0 0 .347.243l2.5.347a.454.454 0 0 1 .195.767z" transform="translate(-22 -15)"/><path d="m2 0h8.589" stroke="#fff" stroke-linecap="round" stroke-width="2" transform="translate(3.395 3.117)"/></g></svg>