<svg height="11.349" viewBox="0 0 23.256 11.349" width="23.256" xmlns="http://www.w3.org/2000/svg"><g fill="#0c534e" transform="translate(0 -214.718)"><path d="m112.654 283.047h-12.421a1.135 1.135 0 0 1 0-2.27h12.422c3.286 0 4.379 2.27-.001 2.27zm0 0" transform="translate(-92.288 -61.52)"/><path d="m7.944 226.066a1.134 1.134 0 0 1 -.63-.191l-6.809-4.54a1.135 1.135 0 0 1 0-1.888l6.809-4.54a1.135 1.135 0 0 1 1.765.944v9.079a1.134 1.134 0 0 1 -1.135 1.135zm-4.764-5.675 3.629 2.419v-4.839zm0 0"/></g></svg>