<svg height="28" viewBox="0 0 41 28" width="41" xmlns="http://www.w3.org/2000/svg"><g fill="#0c534e"><path d="m14 0h13a14 14 0 0 1 0 28h-13a14 14 0 0 1 0-28z" opacity=".201"/><path d="m15.292 12.885h-6.95a2.464 2.464 0 0 0 -4.829 0h-2.02a.493.493 0 0 0 0 .986h2.021a2.464 2.464 0 0 0 4.829 0h6.949a.493.493 0 1 0 0-.986zm-9.364 1.972a1.478 1.478 0 1 1 1.478-1.478 1.478 1.478 0 0 1 -1.478 1.478zm-4.435-6.9h6.949a2.464 2.464 0 0 0 4.829 0h2.021a.493.493 0 1 0 0-.986h-2.021a2.464 2.464 0 0 0 -4.829 0h-6.949a.493.493 0 0 0 0 .986zm9.363-1.971a1.478 1.478 0 1 1 -1.478 1.478 1.478 1.478 0 0 1 1.478-1.478z" stroke="#0c534e" transform="translate(12.108 3.579)"/></g></svg>