<svg height="22.5" viewBox="0 0 18.957 22.5" width="18.957" xmlns="http://www.w3.org/2000/svg"><g fill="#0c534e"><path d="m19.5 22.326a.61.61 0 0 0 .5-.019l5.912-2.936a.613.613 0 0 0 .34-.548v-14.334a.612.612 0 0 0 -.884-.548l-1.507.748c0-.06.008-.119.008-.177a4.141 4.141 0 0 0 -8.282 0c0 .07 0 .142.011.215l-2.354-.817a.61.61 0 0 0 -.474.031l-4.634 2.317a.612.612 0 0 0 -.339.548v14.337a.612.612 0 0 0 .854.563l4.508-1.936zm-6.456-11.59a1.707 1.707 0 0 1 1.7 1.7 6.741 6.741 0 0 1 -1.705 2.779 6.73 6.73 0 0 1 -1.7-2.779 1.706 1.706 0 0 1 1.705-1.7zm11.985-5.26v12.967l-4.687 2.328v-10.4a20.074 20.074 0 0 0 3-4.053zm-5.3-3.88a2.919 2.919 0 0 1 2.917 2.915c0 1.106-1.641 3.3-2.917 4.714-1.276-1.417-2.916-3.609-2.916-4.714a2.919 2.919 0 0 1 2.916-2.911zm-.612 8.773v10.482l-5.461-2.2v-2.28c.636-.685 2.317-2.619 2.317-3.928a2.933 2.933 0 0 0 -2.317-2.864v-4.23l2.4.831a19.571 19.571 0 0 0 3.061 4.188zm-10.096-3.185 3.41-1.7v4.1a2.933 2.933 0 0 0 -2.317 2.864c0 1.309 1.68 3.243 2.317 3.928v2.38l-3.41 1.465z" stroke="#0c534e" stroke-width=".5" transform="translate(-7.547 -.121)"/><path d="m27.058 48.449a.678.678 0 1 0 -.677-.677.678.678 0 0 0 .677.677z" transform="translate(-21.581 -35.412)"/><path d="m52.367 10.747a1.867 1.867 0 1 0 -1.867 1.869 1.869 1.869 0 0 0 1.867-1.869zm-2.581 0a.714.714 0 1 1 .713.715.714.714 0 0 1 -.713-.715z" transform="translate(-38.274 -6.677)"/></g></svg>