<svg height="21.351" viewBox="0 0 21.266 21.351" width="21.266" xmlns="http://www.w3.org/2000/svg"><g fill="#0c534e"><path d="m26.793 45.838v4.922a2.461 2.461 0 1 0 0-4.922zm0 6.814c-.05 0-.1-.006-.146-.008a4.234 4.234 0 0 1 -4.075 3.141h-8.472a4.234 4.234 0 0 1 -4.22-4.222v-9.919h16.914v2.3a4.353 4.353 0 0 1 0 8.706zm-15.506-1.089a2.817 2.817 0 0 0 2.813 2.814h4.075v-11.326h-6.89z" transform="translate(-9.88 -34.434)"/><path d="m44.573 18.995c-.084.084-.507.549.169 1.52a3.5 3.5 0 0 1 .633 1.689 1.072 1.072 0 0 1 -1.9.76c.084-.084.507-.591-.127-1.562a3.5 3.5 0 0 1 -.633-1.689 1.054 1.054 0 0 1 1.858-.718zm-4.264-1.1c-.084.084-.507.549.169 1.52a3.5 3.5 0 0 1 .633 1.689 1.072 1.072 0 0 1 -1.9.76c.084-.084.507-.591-.127-1.562a3.5 3.5 0 0 1 -.633-1.689 1.051 1.051 0 0 1 1.858-.713zm-4.264 1.1c-.084.084-.507.549.169 1.52a3.5 3.5 0 0 1 .633 1.689 1.072 1.072 0 0 1 -1.9.76c.084-.084.507-.591-.127-1.562a3.5 3.5 0 0 1 -.633-1.689 1.051 1.051 0 0 1 1.859-.718z" transform="translate(-32.177 -17.53)"/></g></svg>