<svg height="18.643" viewBox="0 0 18.213 18.643" width="18.213" xmlns="http://www.w3.org/2000/svg"><path d="m13.467 5.942v8.248a.861.861 0 0 1 -1.721 0v-8.25l-.972.972a.861.861 0 0 1 -1.217-1.217l2.443-2.446a.847.847 0 0 1 .6-.249h.007a.847.847 0 0 1 .6.246l2.446 2.446a.861.861 0 0 1 -1.217 1.217zm-7.746 12.98h13.77v-6.028a.861.861 0 0 1 1.721 0v6.893a.853.853 0 0 1 -.25.605.863.863 0 0 1 -.609.251h-15.494a.858.858 0 0 1 -.859-.856v-6.893a.861.861 0 0 1 1.721 0z" fill="#0c534e" fill-rule="evenodd" stroke="#0c534e" transform="translate(-3.5 -2.5)"/></svg>