<svg height="330.225" viewBox="0 0 325.986 330.225" width="325.986" xmlns="http://www.w3.org/2000/svg"><path d="m423.023 160.076a12.206 12.206 0 1 0 -22.666-6.388h-.006l.006.058c0 .917.209 1.7.292 2.717l1.255 11.7a2.2 2.2 0 0 0 3.018 1.808l10.723-4.34a26.39 26.39 0 0 0 2.727-1.1l.039-.015a12.133 12.133 0 0 0 4.612-4.44zm-13.2-1.713a5.372 5.372 0 1 1 7.369-1.848 5.371 5.371 0 0 1 -7.371 1.848z" fill="#d9c7bb" transform="translate(-131.673 -49.812)"/><path d="m0 0h27.186v86.159h-27.186z" fill="#f5f5f5" transform="matrix(.976 -.218 .218 .976 90.767 127.669)"/><path d="m0 0h13.593v85.922h-13.593z" fill="#ebebeb" transform="matrix(.976 -.218 .218 .976 104.034 124.712)"/><path d="m0 0h9.6v8.459h-9.6z" fill="#f5f5f5" transform="matrix(.97605363 -.21753001 .21753001 .97605363 91.957 118.737)"/><path d="m0 0h2.288v8.459h-2.288z" fill="#ebebeb" transform="matrix(.97604984 -.21754705 .21754705 .97604984 99.094 117.147)"/><path d="m144.057 190.37-.107-.482 29.523-6.58.107.482" fill="#e0e0e0" transform="translate(-55.502 -62.209)"/><path d="m0 0h2.301v4.852h-2.301z" fill="#fafafa" transform="matrix(.97605363 -.21753001 .21753001 .97605363 96.807 130.102)"/><g fill="#e0e0e0"><path d="m163.749 202.95c.011.05-2.95.753-6.613 1.569s-6.643 1.438-6.655 1.388 2.949-.752 6.614-1.569 6.642-1.438 6.654-1.388z" transform="translate(-57.442 -68.043)"/><path d="m0 0h2.301v4.852h-2.301z" transform="matrix(.97604984 -.21754705 .21754705 .97604984 110.19 127.12)"/><path d="m182.788 198.707c.011.05-2.95.752-6.613 1.569s-6.643 1.438-6.655 1.388 2.949-.752 6.614-1.569 6.643-1.438 6.654-1.388z" transform="translate(-63.098 -66.782)"/><path d="m0 0h2.301v4.852h-2.301z" transform="matrix(.97604984 -.21754705 .21754705 .97604984 112.286 136.523)"/><path d="m185.77 212.084c.011.05-2.95.753-6.614 1.569s-6.643 1.438-6.654 1.388 2.949-.752 6.614-1.569 6.642-1.438 6.654-1.388z" transform="translate(-63.984 -70.756)"/><path d="m0 0h2.301v4.852h-2.301z" transform="matrix(.97604984 -.21754705 .21754705 .97604984 114.445 146.209)"/><path d="m188.841 225.865c.011.05-2.95.752-6.613 1.569s-6.643 1.438-6.655 1.388 2.949-.753 6.614-1.57 6.642-1.437 6.654-1.387z" transform="translate(-64.896 -74.851)"/><path d="m0 0h2.301v4.852h-2.301z" transform="matrix(.97604984 -.21754705 .21754705 .97604984 116.603 155.896)"/><path d="m191.912 239.645c.011.05-2.949.753-6.613 1.569s-6.643 1.438-6.655 1.388 2.95-.752 6.614-1.569 6.642-1.438 6.654-1.388z" transform="translate(-65.809 -78.944)"/><path d="m0 0h2.301v4.852h-2.301z" transform="matrix(.976 -.218 .218 .976 118.701 165.306)"/><path d="m194.9 253.032c.011.05-2.95.752-6.613 1.569s-6.643 1.438-6.655 1.388 2.949-.753 6.614-1.57 6.638-1.437 6.654-1.387z" transform="translate(-66.695 -82.921)"/><path d="m0 0h2.301v4.852h-2.301z" transform="matrix(.97604984 -.21754705 .21754705 .97604984 120.807 174.753)"/><path d="m0 0h2.301v4.852h-2.301z" transform="matrix(.97605363 -.21753001 .21753001 .97605363 122.94 184.324)"/><path d="m197.892 266.472c.011.051-2.95.753-6.614 1.569s-6.643 1.438-6.654 1.388 2.949-.752 6.614-1.569 6.642-1.438 6.654-1.388z" transform="translate(-67.585 -86.914)"/></g><path d="m0 0h2.301v4.852h-2.301z" fill="#fafafa" transform="matrix(.97604984 -.21754705 .21754705 .97604984 98.935 139.649)"/><path d="m166.776 216.532c.011.05-2.95.752-6.613 1.569s-6.643 1.437-6.655 1.388 2.949-.752 6.614-1.569 6.642-1.438 6.654-1.388z" fill="#e0e0e0" transform="translate(-58.341 -72.078)"/><path d="m0 0h2.301v4.852h-2.301z" fill="#fafafa" transform="matrix(.97604984 -.21754705 .21754705 .97604984 101.062 149.195)"/><path d="m169.8 230.113c.011.05-2.95.752-6.613 1.569s-6.643 1.438-6.655 1.388 2.949-.753 6.614-1.57 6.645-1.437 6.654-1.387z" fill="#e0e0e0" transform="translate(-59.241 -76.112)"/><path d="m0 0h2.301v4.852h-2.301z" fill="#fafafa" transform="matrix(.97604984 -.21754705 .21754705 .97604984 103.19 158.742)"/><path d="m172.83 243.694c.011.05-2.95.753-6.614 1.569s-6.643 1.438-6.654 1.388 2.949-.752 6.614-1.569 6.642-1.438 6.654-1.388z" fill="#e0e0e0" transform="translate(-60.14 -80.147)"/><path d="m0 0h2.301v4.852h-2.301z" fill="#fafafa" transform="matrix(.97605363 -.21753001 .21753001 .97605363 105.318 168.288)"/><path d="m175.857 257.275c.011.05-2.95.753-6.614 1.569s-6.643 1.438-6.654 1.388 2.949-.752 6.614-1.569 6.642-1.438 6.654-1.388z" fill="#e0e0e0" transform="translate(-61.039 -84.182)"/><path d="m0 0h2.301v4.852h-2.301z" fill="#fafafa" transform="matrix(.97604984 -.21754705 .21754705 .97604984 107.445 177.835)"/><path d="m178.884 270.856c.011.051-2.95.753-6.614 1.569s-6.643 1.438-6.654 1.388 2.949-.752 6.614-1.569 6.642-1.437 6.654-1.388z" fill="#e0e0e0" transform="translate(-61.938 -88.216)"/><path d="m0 0h2.301v4.852h-2.301z" fill="#fafafa" transform="matrix(.97604984 -.21754705 .21754705 .97604984 109.573 187.382)"/><path d="m0 0h39.689v52.348h-39.689z" fill="#ebebeb" transform="matrix(.99544458 -.09534192 .09534192 .99544458 120.687 163.989)"/><path d="m0 0h18.609v52.348h-18.609z" fill="#e0e0e0" transform="matrix(.99544458 -.09534192 .09534192 .99544458 141.671 161.979)"/><path d="m0 0h3.569v8.67h-3.569z" fill="#f5f5f5" transform="matrix(.99544292 -.0953593 .0953593 .99544292 129.647 170.251)"/><path d="m0 0h3.569v8.67h-3.569z" fill="#f5f5f5" transform="matrix(.99544292 -.0953593 .0953593 .99544292 132.882 204.029)"/><path d="m213.4 268.592c.009.1-4.681.626-10.474 1.18s-10.5.926-10.509.829 4.68-.626 10.476-1.18 10.493-.921 10.507-.829z" fill="#f5f5f5" transform="translate(-69.898 -87.54)"/><path d="m0 0h3.569v8.67h-3.569z" fill="#f5f5f5" transform="matrix(.99544458 -.09534192 .09534192 .99544458 131.277 187.268)"/><path d="m215.715 292.8c.009.1-4.681.626-10.475 1.181s-10.5.926-10.509.829 4.679-.625 10.475-1.18 10.494-.93 10.509-.83z" fill="#f5f5f5" transform="translate(-70.587 -94.732)"/><path d="m0 0h3.568v8.67h-3.568z" fill="#f5f5f5" transform="matrix(.995 -.095 .095 .995 146.28 168.658)"/><path d="m0 0h3.569v8.67h-3.569z" fill="#f5f5f5" transform="matrix(.99544292 -.0953593 .0953593 .99544292 153.987 167.92)"/><path d="m0 0h3.568v8.67h-3.568z" fill="#f5f5f5" transform="matrix(.99544292 -.0953593 .0953593 .99544292 147.848 185.035)"/><path d="m0 0h3.569v8.67h-3.569z" fill="#f5f5f5" transform="matrix(.99544458 -.09534192 .09534192 .99544458 155.555 184.297)"/><path d="m0 0h3.568v8.67h-3.568z" fill="#f5f5f5" transform="matrix(.99544292 -.0953593 .0953593 .99544292 149.417 201.412)"/><path d="m0 0h3.569v8.67h-3.569z" fill="#f5f5f5" transform="matrix(.99544458 -.09534192 .09534192 .99544458 157.124 200.673)"/><path d="m0 0h45.656v1.888h-45.656z" fill="#e0e0e0" transform="matrix(.99544458 -.09534192 .09534192 .99544458 117.543 162.46)"/><path d="m229.774 239.245c.01.1-8.813 1.021-19.7 2.064s-19.73 1.81-19.74 1.713 8.813-1.021 19.706-2.064 19.725-1.81 19.734-1.713z" fill="#ebebeb" transform="translate(-69.28 -78.823)"/><path d="m170.384 296.209-36.591 16.172-25.718-57.759 36.591-16.172z" fill="#ebebeb" transform="translate(-44.844 -78.59)"/><path d="m0 0h20.003v63.226h-20.003z" fill="#e0e0e0" transform="matrix(.915 -.404 .404 .915 81.526 167.946)"/><path d="m0 0h14.127v12.447h-14.127z" fill="#ebebeb" transform="matrix(.915 -.404 .404 .915 62.377 162.801)"/><path d="m0 0h3.367v12.447h-3.367z" fill="#e0e0e0" transform="matrix(.91465655 -.40423185 .40423185 .91465655 72.219 158.451)"/><path d="m0 0h44.51v.726h-44.51z" fill="#e0e0e0" transform="matrix(.9146495 -.40424782 .40424782 .9146495 59.888 176.716)"/><path d="m0 0h3.386v7.14h-3.386z" fill="#fff" transform="matrix(.915 -.404 .404 .915 72.648 177.805)"/><path d="m135.21 269.953c.031.069-4.04 1.935-9.092 4.168s-9.173 3.988-9.2 3.919 4.04-1.935 9.093-4.168 9.169-3.988 9.199-3.919z" fill="#e0e0e0" transform="translate(-47.47 -87.948)"/><path d="m0 0h3.386v7.14h-3.386z" fill="#f5f5f5" transform="matrix(.91465655 -.40423185 .40423185 .91465655 91.103 169.649)"/><path d="m161.465 258.35c.03.069-4.041 1.934-9.092 4.168s-9.173 3.987-9.2 3.918 4.04-1.934 9.093-4.168 9.168-3.987 9.199-3.918z" fill="#ebebeb" transform="translate(-55.27 -84.501)"/><path d="m0 0h3.386v7.14h-3.386z" fill="#f5f5f5" transform="matrix(.915 -.404 .404 .915 96.834 182.615)"/><path d="m169.617 276.8c.031.069-4.04 1.935-9.092 4.168s-9.173 3.987-9.2 3.918 4.04-1.934 9.093-4.168 9.169-3.991 9.199-3.918z" fill="#ebebeb" transform="translate(-57.692 -89.981)"/><path d="m0 0h3.386v7.14h-3.386z" fill="#f5f5f5" transform="matrix(.915 -.404 .404 .915 102.737 195.973)"/><path d="m178.016 295.8c.03.069-4.041 1.935-9.092 4.168s-9.172 3.987-9.2 3.918 4.04-1.934 9.093-4.168 9.168-3.988 9.199-3.918z" fill="#ebebeb" transform="translate(-60.187 -95.626)"/><path d="m0 0h3.386v7.14h-3.386z" fill="#f5f5f5" transform="matrix(.915 -.404 .404 .915 108.641 209.33)"/><path d="m186.415 314.8c.03.069-4.041 1.935-9.092 4.168s-9.173 3.987-9.2 3.918 4.04-1.934 9.093-4.168 9.168-3.985 9.199-3.918z" fill="#ebebeb" transform="translate(-62.682 -101.272)"/><path d="m0 0h3.386v7.14h-3.386z" fill="#fff" transform="matrix(.91465655 -.40423185 .40423185 .91465655 78.466 190.969)"/><path d="m143.487 288.681c.031.069-4.04 1.935-9.092 4.168s-9.173 3.987-9.2 3.918 4.04-1.934 9.093-4.168 9.169-3.987 9.199-3.918z" fill="#e0e0e0" transform="translate(-49.929 -93.511)"/><path d="m0 0h3.386v7.14h-3.386z" fill="#fff" transform="matrix(.91464244 -.40426378 .40426378 .91464244 84.284 204.134)"/><path d="m151.765 307.409c.03.069-4.041 1.935-9.092 4.168s-9.173 3.987-9.2 3.918 4.04-1.934 9.093-4.168 9.168-3.987 9.199-3.918z" fill="#e0e0e0" transform="translate(-52.388 -99.075)"/><path d="m0 0h3.386v7.14h-3.386z" fill="#fff" transform="matrix(.91464244 -.40426378 .40426378 .91464244 90.102 217.298)"/><path d="m160.042 326.137c.03.069-4.041 1.935-9.092 4.168s-9.173 3.987-9.2 3.918 4.04-1.934 9.093-4.168 9.168-3.987 9.199-3.918z" fill="#e0e0e0" transform="translate(-54.847 -104.639)"/><path d="m378.231 301.157-15 17.593a.9.9 0 0 0 .1 1.27l36.887 31.441a.9.9 0 0 0 1.277-.11l5.407-6.514a.9.9 0 0 0 .205-.518l.739-11.583a.9.9 0 0 0 -.309-.738l-6.056-5.243a.9.9 0 0 1 -.1-1.265l2.268-2.66a.9.9 0 0 0 -.1-1.269l-24.055-20.5a.9.9 0 0 0 -1.263.096z" fill="#d9c7bb" transform="translate(-120.583 -97.125)"/><path d="m415.269 341.069-4.812 5.645a.516.516 0 0 0 .065.734l8.266 6.794a.516.516 0 0 0 .841-.342l.981-8.862a.515.515 0 0 0 -.189-.458l-4.435-3.58a.516.516 0 0 0 -.717.069z" fill="#fbf8f3" transform="translate(-134.639 -109.022)"/><path d="m0 0h52.21v1.611h-52.21z" fill="#f5f5f5" transform="matrix(.761 .649 -.649 .761 240.87 222.214)"/><path d="m375.072 340.16a5.164 5.164 0 1 1 -.58-7.28 5.164 5.164 0 0 1 .58 7.28z" fill="#cbb1a0" transform="translate(-121.461 -106.276)"/><path d="m374.354 339.68a3.04 3.04 0 1 1 -.342-4.285 3.039 3.039 0 0 1 .342 4.285z" fill="#fafafa" transform="translate(-122.359 -107.174)"/><path d="m398.623 350.074c-.1-.084 3.439-4.4 7.9-9.634s8.163-9.414 8.262-9.33-3.439 4.4-7.9 9.636-8.163 9.412-8.262 9.328z" fill="#ebebeb" transform="translate(-131.159 -106.116)"/><path d="m405.54 366.13a5.164 5.164 0 1 1 -.58-7.28 5.164 5.164 0 0 1 .58 7.28z" fill="#cbb1a0" transform="translate(-130.513 -113.992)"/><path d="m404.822 365.649a3.04 3.04 0 1 1 -.342-4.285 3.039 3.039 0 0 1 .342 4.285z" fill="#fafafa" transform="translate(-131.411 -114.889)"/><path d="m411.535 353.746c-.084.1-.716-.3-1.41-.892s-1.188-1.152-1.1-1.251.716.3 1.409.892 1.185 1.152 1.101 1.251z" fill="#ebebeb" transform="translate(-134.246 -112.201)"/><path d="m61.765 292.442a12.206 12.206 0 1 0 -14.412 18.623h-.006l.056.015c.849.347 1.657.444 2.629.747l11.314 3.216a2.2 2.2 0 0 0 2.807-2.121l-.008-11.568a26.4 26.4 0 0 0 0-2.942v-.041a12.134 12.134 0 0 0 -2.38-5.929zm-6.533 11.6a5.371 5.371 0 1 1 1.046-7.524 5.371 5.371 0 0 1 -1.046 7.523z" fill="#d9c7bb" transform="translate(-24.565 -93.19)"/><path d="m107.227 82.943a16.6 16.6 0 1 0 -27.158 16.957h-.008l.063.046c.919.843 1.9 1.346 3 2.192l12.915 9.433a3 3 0 0 0 4.58-1.383l5.441-14.758a35.788 35.788 0 0 0 1.384-3.754l.02-.053h-.006a16.488 16.488 0 0 0 -.231-8.68zm-13.8 11.716a7.3 7.3 0 1 1 4.88-9.1 7.3 7.3 0 0 1 -4.878 9.1z" fill="#d9c7bb" transform="translate(-34.938 -28.886)"/><path d="m275.41 79.865c.7-5.071-6.457-9.242-11.836-9.677-2.563-.205-5.227.186-7.657-.661-5.263-1.835-7.367-8.634-12.5-10.8-3.84-1.62-8.26-.178-11.983 1.694s-7.4 4.232-11.56 4.5c-3.617.232-7.545-1.11-10.711.658-2.358 1.317-3.594 4.035-5.768 5.638-2.126 1.569-4.9 1.9-7.539 2.044s-5.371.171-7.773 1.27-4.391 3.641-3.892 6.236z" fill="#ebebeb" transform="translate(-91.676 -58.024)"/><path d="m107.878 205.719c-.359-2.4-4.173-3.344-6.679-2.823a14.4 14.4 0 0 1 -3.574.722c-2.64-.131-4.505-2.946-7.132-3.246-1.964-.225-3.784 1.022-5.228 2.372s-2.8 2.914-4.661 3.591c-1.615.588-3.583.5-4.787 1.729-.9.915-1.1 2.316-1.872 3.336a6.529 6.529 0 0 1 -3.159 1.938 10.06 10.06 0 0 0 -3.368 1.616 2.912 2.912 0 0 0 -.939 3.358z" fill="#fff" transform="translate(-39.878 -70.49)"/><path d="m372.61 236.9c.581-1.982-2.025-4.074-4.145-4.569a12.29 12.29 0 0 1 -3.016-.721c-1.991-1.047-2.423-3.886-4.343-5.058-1.435-.875-3.285-.564-4.883-.039s-3.206 1.246-4.882 1.1c-1.457-.124-2.945-.894-4.313-.378-1.02.384-1.676 1.4-2.639 1.906a5.555 5.555 0 0 1 -3.131.365 8.572 8.572 0 0 0 -3.178.042 2.479 2.479 0 0 0 -1.926 2.256z" fill="#f5f5f5" transform="translate(-112.601 -74.893)"/><path d="m265.769 418.5c-.119-1.642 1.256-3.1 2.774-3.8 1.518-.727 3.226-.938 4.791-1.572.616-.259 1.3-.7 1.328-1.36 0-.986-1.376-1.384-1.732-2.3-.379-1.033.688-1.994 1.139-3 .973-2.3-1.447-4.622-3.794-5.56-2.325-.938-5.146-1.618-6.237-3.87a13.272 13.272 0 0 1 -.758-3.354c-.545-2.838-2.657-5.583-5.549-6.053-2.918-.47-6.143 2.088-5.669 4.95.285 1.572 1.471 2.791 2.111 4.246.664 1.455.474 3.612-1.043 4.082-2.49.751-4.885-3.753-6.972-2.205.853 2.885 1.683 5.771 2.537 8.68-3.272 1.643-7.185-1.337-8.585-4.715-1.4-3.354-1.447-7.2-3.107-10.439-1.66-3.26-6.141-5.677-8.988-3.378-.142 4.175 5.431 5.864 7.9 9.243 1.778 2.44 1.518 6.4-1.116 7.952-2.608 1.548-6.758-1.149-5.762-3.988.356-.985 1.186-1.807 1.281-2.862.094-1.314-1.02-2.37-2.04-3.214-1.589-1.337-3.178-2.651-4.766-3.964a10.035 10.035 0 0 0 -3.392-2.112c-3.273-.938-6.546 1.689-8.276 4.575-1.731 2.909-2.7 6.311-5.1 8.727-3.439 3.519-9.96 3.73-13.185.047-3.249-3.683-1.589-10.58 3.178-11.917 1.8-.492 4.079-.446 5.028-2.017 1.66-2.792-3.084-6.357-1.447-9.173 1.257-2.157 4.577-1.172 7-1.9 2.395-.728 3.747-3.12 5.169-5.184 1.4-2.041 3.606-4.106 6.071-3.567a7.438 7.438 0 0 1 .261-4.269c.64-1.314 2.443-2.159 3.628-1.314-1.21 1.97.237 4.715 2.348 5.7s4.577.751 6.9.493c2.325-.283 5.241-1.126 5.431-3.425.071-.751-.213-1.549.071-2.252 1.02-2.745 6.142 1.033 8.111-1.172 1.138-1.15-.119-3.191-1.707-3.567-1.565-.4-3.2.188-4.814.236-1.612.07-3.581-.775-3.653-2.37-.07-1.572 1.708-2.7 1.9-4.246.308-2.628-4.2-3.309-5.787-1.174-1.565 2.135-1.019 5.067-.545 7.671.5 2.6.735 5.677-1.21 7.507-.829 1.243-2.987.586-3.7-.728-.735-1.314-.569-2.909-.687-4.386-.118-1.5-.782-3.191-2.253-3.59-1.02-.281-2.11.211-3.154.352-4.126.493-7-4.785-5.692-8.679 1.281-3.918 5.028-6.429 8.656-8.422 2.656-1.454 5.952-2.815 8.585-1.337 1.233.68 2.087 1.852 3.3 2.557 2.086 1.22 4.672.774 7.067.821a16.568 16.568 0 0 1 10.315 3.965c1.067.962 2.064 2.557 1.234 3.706-.9 1.22-3.486 1.478-3.036 2.909a5.14 5.14 0 0 0 6.45-4.105 4.272 4.272 0 0 1 2.49 3.472 7.733 7.733 0 0 1 11.265.914 9.629 9.629 0 0 0 2.086 2.651c.95.609 2.609.305 2.727-.8a2.215 2.215 0 0 0 -.19-1.032c-.569-1.6-1.161-3.167-1.731-4.738 2.206-1.173 4.814.657 6.307 2.628 5.55 7.343 9.511 2.932 17.336 4.128 5.288.8 7.613 4.152 10.6 8.211 9.154 12.48 21.249 22.709 29.573 35.75.878 1.362 1.683 2.745 2.443 4.152-.142-.351-.261-.7-.4-1.055a143.911 143.911 0 0 0 -12.094-24.327q-1.53-2.463-3.131-4.856c-.664-.986-1.352-1.994-2.039-2.956-.877-1.267-1.8-2.487-2.727-3.706-.735-.986-1.471-1.947-2.23-2.886-.521-.656-1.066-1.313-1.612-1.97-.569-.751-1.187-1.478-1.85-2.206l-1.992-2.275a8.559 8.559 0 0 0 -.64-.7c-.687-.8-1.423-1.572-2.158-2.346a.662.662 0 0 0 -.214-.235c-.189-.212-.4-.422-.616-.633-.593-.657-1.233-1.291-1.849-1.923-1.02-1.033-2.064-2.065-3.131-3.051-.877-.867-1.778-1.688-2.7-2.51-.806-.727-1.613-1.454-2.443-2.157-.807-.7-1.613-1.385-2.443-2.065-1-.844-2.015-1.665-3.059-2.486h-.024q-4.3-3.413-8.869-6.451c-.758-.516-1.494-1.009-2.254-1.5-.758-.517-1.542-.986-2.3-1.455-.782-.469-1.541-.962-2.324-1.407-.783-.493-1.565-.939-2.348-1.385-.64-.375-1.256-.727-1.9-1.055a10.094 10.094 0 0 0 -.972-.54c-1.351-.751-2.727-1.478-4.1-2.157-.688-.352-1.376-.7-2.087-1.033-.877-.445-1.778-.867-2.68-1.266a2.149 2.149 0 0 0 -.4-.188c-.806-.375-1.613-.751-2.443-1.1-1.162-.493-2.324-.985-3.486-1.454-1.328-.54-2.656-1.08-4.008-1.572-1.494-.563-2.988-1.1-4.506-1.595-1.518-.517-3.059-1.009-4.6-1.478s-3.083-.891-4.648-1.314c-3.082-.821-6.213-1.548-9.367-2.182-.047-.023-.119-.023-.166-.046-1.21-.235-2.419-.47-3.628-.657a1.063 1.063 0 0 0 -.237-.047c-.522-.093-1.068-.188-1.613-.258-2.253-.375-4.53-.68-6.83-.938-.26-.047-.545-.071-.83-.094-.664-.093-1.328-.141-2.015-.211-1.518-.141-3.036-.259-4.577-.352-1.589-.117-3.2-.188-4.814-.234-1.684-.071-3.367-.095-5.05-.095-4.459 0-8.87.188-13.234.587-1.043.07-2.062.165-3.083.282-1.066.117-2.133.234-3.2.375s-2.135.282-3.179.446c-1.067.164-2.11.328-3.178.516-.9.141-1.825.305-2.727.493q-3.343.633-6.616 1.407-1.531.352-3.06.775c-1.019.258-2.04.539-3.036.822-1.684.469-3.32.985-4.956 1.5h-.024c-1.329.446-2.68.891-3.984 1.337a.186.186 0 0 0 -.095.047c-1.352.469-2.656.962-3.984 1.478l-.214.07c-1.209.47-2.419.962-3.6 1.455-1.494.61-2.964 1.267-4.411 1.924-1.233.563-2.443 1.126-3.628 1.712-1.281.633-2.561 1.267-3.818 1.924l-.143.07c-1.209.633-2.419 1.29-3.6 1.97-1.233.68-2.442 1.384-3.652 2.135h-.024c-1.138.68-2.253 1.36-3.367 2.064-.427.258-.83.54-1.257.821-1.186.751-2.325 1.525-3.486 2.322-1.423.962-2.8 1.97-4.174 2.979-1.209.892-2.4 1.806-3.557 2.722a148.594 148.594 0 0 0 -18.64 17.476c-2.015 2.206-3.913 4.458-5.763 6.756-1.565 1.971-3.082 3.965-4.53 6.029.38-.047.76-.094 1.139-.117 2.135-.164 4.387-.093 6.308-1.009 1.779-.868 3.036-2.44 4.648-3.565 4.127-2.909 10.886-3.449 12-8.328.379-1.642-.072-3.425.545-5 1.162-2.932 5.122-3.354 8.3-3.307 1.352 0 2.941.187 3.557 1.36a3.326 3.326 0 0 1 -.142 2.722 25.558 25.558 0 0 1 -10.885 13.23c-4.126 2.486-9.51 4.41-10.648 9.055.569 1.572 3.462 1.454 3.7 3.1.167 1.314-1.541 1.994-2.157 3.167-.9 1.712 1.162 3.8 3.13 3.707s3.605-1.5 5.052-2.815c4.316-3.964 8.845-8.234 10.411-13.864.664-2.322.9-5.043 2.8-6.592 2.254-1.83 6.286-.564 7.044 2.228 1.874-1.032 4.79-1.806 5.763.117a9.788 9.788 0 0 1 .4 2.205c.616 3 4.767 4.364 5.194 7.39.5 3.5-4.032 5.3-7.566 5.841-3.2.492-6.4.985-9.6 1.5a8.938 8.938 0 0 0 -3.984 1.267 3.059 3.059 0 0 0 -1.186 3.683 9.361 9.361 0 0 0 1.661 1.689c2.656 2.628.474 8.046-3.273 8.164-1.281.047-2.538-.422-3.818-.469-3.794-.165-6.806 3.143-8.609 6.451s-3.154 7.084-6.19 9.336c-4.885 3.636-13.3 2.791-15.675 8.375-.949 2.252-.451 4.785-.071 7.2.06.382.111.772.155 1.164h104.221c2.173-.861 4.527-1.5 6.386-2.878 4.27-3.163 4.838-9.2 7.53-13.754s11.119-6.482 12.365-1.351c8.912-18.87 28.608 9.164 40.32 7.057 3.4-.612 6.724-2.228 10.147-1.755 5.894.816 9.006 7.1 11.065 12.681h4.894c-.562-1.949-.534-4.1-1.682-5.761-1.328-1.955-4.151-3.081-4.339-5.426zm-79.5-83.752c-.919 2.125-.5 4.768-1.921 6.607-1.123 1.456-3.07 1.972-4.873 2.4l-11.328 2.663a17.129 17.129 0 0 0 -4.868 1.677c-2.97 1.755-4.549 5.07-6.839 7.634s-6.4 4.392-9.1 2.258a6.162 6.162 0 0 1 -2.034-4.362 11.092 11.092 0 0 1 1.613-6.792c1.291-2.081 3.261-3.718 4.354-5.907s.87-5.394-1.37-6.421c-1.211-.555-2.735-.337-3.81-1.121-1.932-1.407-.548-4.735 1.7-5.575s4.734-.189 7.129-.038c8.687.548 15.074-5.079 21.6-9.752 5.079-3.635 15.9-7.928 21.774-4.214 2.345 1.481 3.262 5.29 1.052 6.963-.988.749-2.352.916-3.273 1.745-1.1.995-1.26 2.629-1.892 3.967-1.647 3.473-6.39 4.736-7.916 8.267z" fill="#455a64" transform="translate(-34.78 -99.637)"/><g opacity=".3" transform="translate(17.093 212.736)"><path d="m214.341 342.653c1.417-1.839 1-4.482 1.921-6.607 1.526-3.53 6.269-4.793 7.912-8.271.633-1.338.789-2.973 1.892-3.967.921-.829 2.284-1 3.273-1.745 2.209-1.673 1.293-5.482-1.052-6.963-5.878-3.714-16.7.579-21.774 4.214-6.53 4.673-12.918 10.3-21.6 9.752-2.395-.151-4.885-.8-7.129.038s-3.627 4.168-1.7 5.575c1.075.784 2.6.566 3.81 1.121 2.24 1.027 2.463 4.232 1.37 6.421s-3.063 3.827-4.354 5.907a11.092 11.092 0 0 0 -1.613 6.792 6.162 6.162 0 0 0 2.034 4.362c2.7 2.134 6.813.306 9.1-2.258s3.869-5.879 6.839-7.634a17.129 17.129 0 0 1 4.868-1.677l11.328-2.663c1.805-.426 3.752-.941 4.875-2.397z" transform="translate(-81.868 -313.672)"/><path d="m300.158 457.5c-3.423-.473-6.747 1.143-10.147 1.755-11.712 2.107-31.408-25.927-40.32-7.057-1.246-5.131-9.674-3.2-12.365 1.351s-3.26 10.591-7.53 13.754c-1.859 1.378-4.213 2.017-6.386 2.878h87.813c-2.059-5.581-5.171-11.863-11.065-12.681z" transform="translate(-96.2 -352.876)"/><path d="m123.553 392.875c-.427-3.026-4.577-4.387-5.194-7.39a9.789 9.789 0 0 0 -.4-2.205c-.973-1.923-3.889-1.149-5.763-.117-.758-2.792-4.79-4.058-7.044-2.228-1.9 1.549-2.133 4.27-2.8 6.592-1.566 5.63-6.1 9.9-10.411 13.864-1.447 1.314-3.084 2.722-5.052 2.815s-4.031-1.994-3.13-3.707c.616-1.173 2.324-1.853 2.157-3.167-.237-1.642-3.129-1.525-3.7-3.1 1.138-4.645 6.522-6.569 10.648-9.055a25.558 25.558 0 0 0 10.885-13.23 3.326 3.326 0 0 0 .142-2.722c-.616-1.173-2.205-1.36-3.557-1.36-3.178-.047-7.138.375-8.3 3.307-.616 1.572-.166 3.355-.545 5-1.114 4.88-7.873 5.419-12 8.328-1.613 1.125-2.869 2.7-4.648 3.565-1.921.915-4.173.845-6.308 1.009-.379.024-.758.07-1.139.117q-1.955 2.692-3.773 5.484t-3.506 5.659a145.879 145.879 0 0 0 -12.995 28.666q-1.743 5.26-3.077 10.691-.9 3.656-1.606 7.386h.71c.477-1.627.822-3.259 1.121-4.682.076-.359.148-.7.219-1.033.783-3.542 1.945-7.249 4.719-9.618 2.8-2.369 7.637-2.651 9.794.305 1.542 2.112 1.186 5 .782 7.577q-.585 3.725-1.187 7.45h6.8c-.044-.392-.095-.782-.155-1.164-.38-2.417-.878-4.949.071-7.2 2.372-5.583 10.791-4.738 15.675-8.375 3.036-2.252 4.388-6.029 6.19-9.336s4.814-6.616 8.609-6.451c1.28.047 2.537.516 3.818.469 3.747-.117 5.928-5.536 3.273-8.164a9.362 9.362 0 0 1 -1.661-1.689 3.059 3.059 0 0 1 1.186-3.683 8.939 8.939 0 0 1 3.984-1.267c3.2-.517 6.4-1.009 9.6-1.5 3.536-.54 8.066-2.346 7.568-5.841z" transform="translate(-42.437 -329.771)"/><path d="m393 430.089q-.835-2.9-1.781-5.756t-2.013-5.668v-.023c-.759-1.407-1.565-2.791-2.443-4.152-8.323-13.042-20.418-23.271-29.573-35.75-2.987-4.059-5.312-7.413-10.6-8.211-7.826-1.2-11.787 3.214-17.336-4.128-1.493-1.971-4.1-3.8-6.307-2.628.569 1.572 1.162 3.143 1.731 4.738a2.215 2.215 0 0 1 .19 1.032c-.118 1.1-1.778 1.408-2.727.8a9.628 9.628 0 0 1 -2.086-2.651 7.733 7.733 0 0 0 -11.265-.914 4.272 4.272 0 0 0 -2.49-3.472 5.139 5.139 0 0 1 -6.45 4.105c-.45-1.43 2.134-1.688 3.036-2.909.83-1.149-.167-2.745-1.234-3.706a16.568 16.568 0 0 0 -10.315-3.965c-2.4-.047-4.981.4-7.067-.821-1.21-.7-2.064-1.877-3.3-2.557-2.632-1.478-5.928-.117-8.585 1.337-3.629 1.993-7.375 4.5-8.656 8.422-1.3 3.893 1.566 9.172 5.692 8.679 1.044-.141 2.134-.633 3.154-.352 1.471.4 2.135 2.088 2.253 3.59.119 1.478-.048 3.072.687 4.386.712 1.314 2.87 1.971 3.7.728 1.945-1.83 1.707-4.9 1.21-7.507-.474-2.6-1.02-5.536.545-7.671 1.589-2.135 6.1-1.454 5.787 1.174-.19 1.547-1.969 2.673-1.9 4.246.072 1.594 2.041 2.439 3.653 2.37 1.613-.048 3.249-.634 4.814-.236 1.589.375 2.845 2.417 1.707 3.567-1.969 2.205-7.091-1.572-8.111 1.172-.284.7 0 1.5-.071 2.252-.19 2.3-3.106 3.143-5.431 3.425-2.324.257-4.79.493-6.9-.493s-3.558-3.73-2.348-5.7c-1.185-.845-2.987 0-3.628 1.314a7.438 7.438 0 0 0 -.262 4.269c-2.465-.539-4.672 1.525-6.071 3.567-1.423 2.064-2.774 4.456-5.169 5.184-2.419.728-5.739-.258-7 1.9-1.637 2.816 3.106 6.381 1.447 9.173-.949 1.572-3.226 1.525-5.028 2.017-4.767 1.337-6.427 8.234-3.178 11.917 3.226 3.683 9.747 3.472 13.185-.047 2.4-2.416 3.368-5.817 5.1-8.727 1.731-2.885 5-5.512 8.276-4.575a10.035 10.035 0 0 1 3.392 2.112c1.588 1.314 3.177 2.628 4.766 3.964 1.02.844 2.134 1.9 2.04 3.214-.095 1.056-.925 1.877-1.281 2.862-1 2.838 3.154 5.535 5.762 3.988 2.633-1.548 2.894-5.512 1.116-7.952-2.467-3.378-8.04-5.067-7.9-9.243 2.847-2.3 7.328.117 8.988 3.378 1.66 3.237 1.708 7.085 3.107 10.439 1.4 3.378 5.313 6.358 8.585 4.715-.854-2.909-1.684-5.794-2.537-8.68 2.086-1.548 4.481 2.956 6.972 2.205 1.518-.47 1.707-2.627 1.043-4.082-.64-1.454-1.826-2.674-2.111-4.246-.474-2.862 2.751-5.419 5.669-4.95 2.892.47 5 3.214 5.549 6.053a13.271 13.271 0 0 0 .758 3.354c1.091 2.252 3.912 2.933 6.237 3.87 2.348.938 4.767 3.261 3.794 5.56-.451 1.009-1.518 1.97-1.139 3 .356.915 1.732 1.313 1.732 2.3-.023.657-.711 1.1-1.328 1.36-1.565.633-3.273.845-4.791 1.572-1.518.7-2.893 2.158-2.774 3.8.188 2.346 3.011 3.472 4.339 5.419 1.148 1.662 1.12 3.812 1.682 5.761h17.361c-.623-1.248-1.241-2.492-1.873-3.744 1.4-1.173 3.628-.68 5.075.469a16.273 16.273 0 0 1 2.737 3.275h51.15q-1.203-6.353-2.962-12.518z" transform="translate(-101.606 -325.299)"/></g><path d="m224.174 327.775c.633-1.338.789-2.973 1.892-3.967.921-.829 2.284-1 3.273-1.745 2.209-1.673 1.293-5.482-1.052-6.963-5.878-3.714-16.7.579-21.774 4.214-6.53 4.673-12.918 10.3-21.6 9.752-2.395-.151-4.885-.8-7.129.038s-3.627 4.168-1.7 5.575c1.075.784 2.6.566 3.81 1.121 2.24 1.027 2.463 4.232 1.37 6.421s-3.063 3.827-4.354 5.907a11.092 11.092 0 0 0 -1.613 6.792 6.162 6.162 0 0 0 2.034 4.362c2.7 2.134 6.813.306 9.1-2.258s3.869-5.879 6.839-7.634a17.129 17.129 0 0 1 4.868-1.677l11.328-2.663c1.8-.424 3.749-.939 4.873-2.4 1.417-1.839 1-4.482 1.921-6.607 1.528-3.527 6.271-4.79 7.914-8.268z" fill="#263238" transform="translate(-64.775 -100.936)"/><path d="m300.158 457.5c-3.423-.473-6.747 1.143-10.147 1.755-11.712 2.107-31.408-25.927-40.32-7.057-1.246-5.131-9.674-3.2-12.365 1.351s-3.26 10.591-7.53 13.754c-1.859 1.378-4.213 2.017-6.386 2.878h87.813c-2.059-5.581-5.171-11.863-11.065-12.681z" fill="#263238" transform="translate(-79.107 -140.141)"/><path d="m391.219 424.332q-.947-2.854-2.013-5.668v-.023c-.759-1.407-1.565-2.791-2.443-4.152-8.323-13.042-20.418-23.271-29.573-35.75-2.987-4.059-5.312-7.413-10.6-8.211-7.826-1.2-11.787 3.214-17.336-4.128-1.493-1.971-4.1-3.8-6.307-2.628.569 1.572 1.162 3.143 1.731 4.738a2.215 2.215 0 0 1 .19 1.032c-.118 1.1-1.778 1.408-2.727.8a9.628 9.628 0 0 1 -2.086-2.651 7.733 7.733 0 0 0 -11.265-.914 4.272 4.272 0 0 0 -2.49-3.472 5.139 5.139 0 0 1 -6.45 4.105c-.45-1.43 2.134-1.688 3.036-2.909.83-1.149-.167-2.745-1.234-3.706a16.568 16.568 0 0 0 -10.315-3.965c-2.4-.047-4.981.4-7.067-.821-1.21-.7-2.064-1.877-3.3-2.557-2.632-1.478-5.928-.117-8.585 1.337-3.629 1.993-7.375 4.5-8.656 8.422-1.3 3.893 1.566 9.172 5.692 8.679 1.044-.141 2.134-.633 3.154-.352 1.471.4 2.135 2.088 2.253 3.59.119 1.478-.048 3.072.687 4.386.712 1.314 2.87 1.971 3.7.728 1.945-1.83 1.707-4.9 1.21-7.507-.474-2.6-1.02-5.536.545-7.671 1.589-2.135 6.1-1.454 5.787 1.174-.19 1.547-1.969 2.673-1.9 4.246.072 1.594 2.041 2.439 3.653 2.37 1.613-.048 3.249-.634 4.814-.236 1.589.375 2.845 2.417 1.707 3.567-1.969 2.205-7.091-1.572-8.111 1.172-.284.7 0 1.5-.071 2.252-.19 2.3-3.106 3.143-5.431 3.425-2.324.257-4.79.493-6.9-.493s-3.558-3.73-2.348-5.7c-1.185-.845-2.987 0-3.628 1.314a7.438 7.438 0 0 0 -.262 4.269c-2.465-.539-4.672 1.525-6.071 3.567-1.423 2.064-2.774 4.456-5.169 5.184-2.419.728-5.739-.258-7 1.9-1.637 2.816 3.106 6.381 1.447 9.173-.949 1.572-3.226 1.525-5.028 2.017-4.767 1.337-6.427 8.234-3.178 11.917 3.226 3.683 9.747 3.472 13.185-.047 2.4-2.416 3.368-5.817 5.1-8.727 1.731-2.885 5-5.512 8.276-4.575a10.035 10.035 0 0 1 3.392 2.112c1.588 1.314 3.177 2.628 4.766 3.964 1.02.844 2.134 1.9 2.04 3.214-.095 1.056-.925 1.877-1.281 2.862-1 2.838 3.154 5.535 5.762 3.988 2.633-1.548 2.894-5.512 1.116-7.952-2.467-3.378-8.04-5.067-7.9-9.243 2.847-2.3 7.328.117 8.988 3.378 1.66 3.237 1.708 7.085 3.107 10.439 1.4 3.378 5.313 6.358 8.585 4.715-.854-2.909-1.684-5.794-2.537-8.68 2.086-1.548 4.481 2.956 6.972 2.205 1.518-.47 1.707-2.627 1.043-4.082-.64-1.454-1.826-2.674-2.111-4.246-.474-2.862 2.751-5.419 5.669-4.95 2.892.47 5 3.214 5.549 6.053a13.271 13.271 0 0 0 .758 3.354c1.091 2.252 3.912 2.933 6.237 3.87 2.348.938 4.767 3.261 3.794 5.56-.451 1.009-1.518 1.97-1.139 3 .356.915 1.732 1.313 1.732 2.3-.023.657-.711 1.1-1.328 1.36-1.565.633-3.273.845-4.791 1.572-1.518.7-2.893 2.158-2.774 3.8.188 2.346 3.011 3.472 4.339 5.419 1.148 1.662 1.12 3.812 1.682 5.761h17.361c-.623-1.248-1.241-2.492-1.873-3.744 1.4-1.173 3.628-.68 5.075.469a16.273 16.273 0 0 1 2.737 3.275h51.15q-1.214-6.353-2.972-12.518-.825-2.903-1.771-5.756z" fill="#263238" transform="translate(-84.513 -112.564)"/><path d="m382.407 475.416c-1.447-1.149-3.676-1.642-5.075-.469.633 1.252 1.25 2.5 1.873 3.744h5.939a16.272 16.272 0 0 0 -2.737-3.275z" fill="#455a64" transform="translate(-124.835 -148.648)"/><path d="m65.309 438.713c2.372-5.583 10.791-4.738 15.675-8.375 3.036-2.252 4.388-6.029 6.19-9.336s4.814-6.616 8.609-6.451c1.28.047 2.537.516 3.818.469 3.747-.117 5.928-5.536 3.273-8.164a9.362 9.362 0 0 1 -1.661-1.689 3.059 3.059 0 0 1 1.186-3.683 8.939 8.939 0 0 1 3.984-1.267c3.2-.517 6.4-1.009 9.6-1.5 3.534-.54 8.063-2.346 7.566-5.841-.427-3.026-4.577-4.387-5.194-7.39a9.789 9.789 0 0 0 -.4-2.205c-.973-1.923-3.889-1.149-5.763-.117-.758-2.792-4.79-4.058-7.044-2.228-1.9 1.549-2.133 4.27-2.8 6.592-1.566 5.63-6.1 9.9-10.411 13.864-1.447 1.314-3.084 2.722-5.052 2.815s-4.031-1.994-3.13-3.707c.616-1.173 2.324-1.853 2.157-3.167-.237-1.642-3.129-1.525-3.7-3.1 1.138-4.645 6.522-6.569 10.648-9.055a25.558 25.558 0 0 0 10.885-13.23 3.326 3.326 0 0 0 .142-2.722c-.616-1.173-2.205-1.36-3.557-1.36-3.178-.047-7.138.375-8.3 3.307-.616 1.572-.166 3.355-.545 5-1.114 4.88-7.873 5.419-12 8.328-1.613 1.125-2.869 2.7-4.648 3.565-1.921.915-4.173.845-6.308 1.009-.379.024-.758.07-1.139.117q-1.955 2.692-3.773 5.484t-3.506 5.659a145.879 145.879 0 0 0 -12.991 28.665q-1.743 5.26-3.077 10.691-.9 3.656-1.606 7.386h.71c.477-1.627.822-3.259 1.121-4.682.076-.359.148-.7.219-1.033.783-3.542 1.945-7.249 4.719-9.618 2.8-2.369 7.637-2.651 9.794.305 1.542 2.112 1.186 5 .782 7.577q-.585 3.725-1.187 7.45h6.8c-.044-.392-.095-.782-.155-1.164-.381-2.412-.88-4.947.069-7.199z" fill="#263238" transform="translate(-25.344 -117.036)"/><path d="m59.3 458.27c-2.158-2.956-7-2.674-9.794-.305-2.774 2.37-3.936 6.076-4.719 9.618-.071.328-.143.673-.219 1.033-.3 1.423-.645 3.056-1.121 4.682h15.453q.6-3.725 1.187-7.45c.4-2.582.756-5.467-.787-7.578z" fill="#455a64" transform="translate(-25.644 -143.255)"/><path d="m184.238 439.523c.325-2.363-3.01-4.307-5.517-4.509a14.172 14.172 0 0 1 -3.569-.309c-2.453-.855-3.433-4.025-5.827-5.034-1.79-.755-3.85-.083-5.585.79s-3.449 1.972-5.388 2.1c-1.686.108-3.517-.517-4.993.306-1.1.614-1.675 1.88-2.688 2.628a6.412 6.412 0 0 1 -3.514.952 9.9 9.9 0 0 0 -3.624.592 2.864 2.864 0 0 0 -1.814 2.907z" fill="#fafafa" transform="translate(-54.829 -135.3)"/><path d="m205.459 416.9c.223-1.619-2.061-2.95-3.777-3.089a9.7 9.7 0 0 1 -2.444-.211c-1.681-.586-2.351-2.756-3.991-3.448a4.693 4.693 0 0 0 -3.825.541 9.982 9.982 0 0 1 -3.69 1.436c-1.155.074-2.409-.355-3.419.209-.753.42-1.147 1.288-1.841 1.8a4.391 4.391 0 0 1 -2.406.652 6.8 6.8 0 0 0 -2.481.406 1.961 1.961 0 0 0 -1.242 1.991z" fill="#fafafa" transform="translate(-65.118 -129.531)"/><path d="m112.5 311.714a1.009 1.009 0 0 1 -.181.126l-.55.337-2.133 1.267-1.546.907-1.8 1.137c-1.287.827-2.781 1.721-4.355 2.831l-2.5 1.7c-.866.6-1.733 1.262-2.649 1.927-1.846 1.311-3.725 2.834-5.723 4.409a150.8 150.8 0 0 0 -23.243 23.494c-1.553 2.015-3.056 3.911-4.348 5.771-.654.924-1.312 1.8-1.9 2.67l-1.672 2.516c-1.093 1.586-1.972 3.091-2.785 4.386l-1.117 1.816-.891 1.555-1.243 2.147-.332.554a1.018 1.018 0 0 1 -.124.183.979.979 0 0 1 .091-.2l.3-.572 1.184-2.182.864-1.572c.325-.569.7-1.176 1.092-1.833.8-1.308 1.662-2.824 2.743-4.422l1.66-2.532c.58-.878 1.234-1.757 1.884-2.687 1.283-1.872 2.78-3.778 4.33-5.8a146.5 146.5 0 0 1 23.29-23.547c2.008-1.571 3.9-3.089 5.756-4.392.922-.66 1.794-1.323 2.666-1.913l2.514-1.686c1.586-1.1 3.093-1.979 4.392-2.791.654-.4 1.256-.781 1.822-1.113l1.563-.881 2.169-1.208.568-.306a.981.981 0 0 1 .204-.096z" fill="#263238" transform="translate(-28.602 -100.355)"/><path d="m145.946 290.692a2.02 2.02 0 0 1 -.418.155l-1.215.375c-.53.155-1.177.349-1.92.6s-1.6.5-2.526.841c-1.867.637-4.061 1.478-6.464 2.49-2.394 1.032-4.992 2.248-7.651 3.654s-5.113 2.9-7.307 4.307c-2.181 1.428-4.1 2.779-5.675 3.972-.8.579-1.489 1.145-2.109 1.626s-1.144.905-1.568 1.258l-.99.8a2 2 0 0 1 -.362.26 2.113 2.113 0 0 1 .313-.316l.946-.852c.411-.37.92-.815 1.531-1.31s1.29-1.078 2.081-1.672c1.556-1.222 3.469-2.6 5.649-4.048 2.191-1.43 4.655-2.921 7.319-4.348s5.282-2.623 7.692-3.642c2.419-1 4.629-1.817 6.513-2.424.935-.324 1.8-.564 2.549-.792s1.405-.4 1.942-.539l1.235-.309a2.04 2.04 0 0 1 .435-.086z" fill="#263238" transform="translate(-44.744 -94.109)"/><path d="m33.365 397.658a9.39 9.39 0 1 0 -3.621 17.752l.044-.008c.7-.049 1.295-.257 2.069-.377l8.9-1.624a1.7 1.7 0 0 0 1.217-2.418l-3.937-7.983a20.328 20.328 0 0 0 -1-2.031l-.014-.029a9.329 9.329 0 0 0 -3.658-3.282zm-.565 10.226a4.132 4.132 0 1 1 -1.834-5.549 4.131 4.131 0 0 1 1.834 5.549z" fill="#ff725e" transform="translate(-18.601 -125.589)"/><path d="m357.075 303.488a9.39 9.39 0 1 0 -17.533-4.563l.006.044c.011.706.188 1.306.266 2.086l1.147 8.976a1.7 1.7 0 0 0 2.35 1.344l8.181-3.5a20.219 20.219 0 0 0 2.081-.891l.03-.013a9.33 9.33 0 0 0 3.472-3.483zm-10.181-1.113a4.133 4.133 0 1 1 5.639-1.536 4.133 4.133 0 0 1 -5.639 1.536z" fill="#ff725e" transform="translate(-113.607 -93.732)"/><path d="m160.914 301.839a5.694 5.694 0 1 0 -7.121 8.365l.025.008c.388.18.763.242 1.209.4l5.2 1.745a1.029 1.029 0 0 0 1.355-.928l.247-5.391a12.385 12.385 0 0 0 .063-1.371v-.02a5.66 5.66 0 0 0 -.978-2.808zm-3.3 5.263a2.506 2.506 0 1 1 .651-3.484 2.506 2.506 0 0 1 -.648 3.482z" fill="#ff725e" transform="translate(-57.453 -96.685)"/><path d="m263.084 422.094a5.694 5.694 0 1 0 -10.6 2.877l.016.021c.219.368.492.631.768 1.018l3.307 4.379a1.028 1.028 0 0 0 1.641 0l3.251-4.307a12.3 12.3 0 0 0 .827-1.1l.012-.015a5.662 5.662 0 0 0 .778-2.873zm-5.694 2.479a2.506 2.506 0 1 1 2.506-2.506 2.506 2.506 0 0 1 -2.506 2.506z" fill="#ff725e" transform="translate(-87.511 -131.454)"/><path d="m448.027 394.267a5.694 5.694 0 1 0 -8.988-6.316l-.006.026c-.143.4-.171.782-.292 1.241l-1.255 5.342a1.028 1.028 0 0 0 1.049 1.262l5.391-.252a12.326 12.326 0 0 0 1.371-.064h.02a5.661 5.661 0 0 0 2.71-1.239zm-5.546-2.795a2.506 2.506 0 1 1 3.529.325 2.507 2.507 0 0 1 -3.529-.325z" fill="#ff725e" transform="translate(-142.697 -121.886)"/><path d="m236.716 124.59 32.049-9.377 4.336 10.9-37.209 6.116z" fill="#ffbe9d" transform="translate(-82.816 -41.978)"/><path d="m229.588 128.553s-6.192.411-6.811.8-7.027.73-7.036 1.634.3.435 1.324.5 3.451-.31 3.482.124-7.5 1.632-7.74 1.954-.9.643.041.9c0 0-1.163.567-.917 1.258a1.522 1.522 0 0 0 1.473 1.172c.688-.066 6.262-.266 6.262-.266s-6.155.3-6.124.919-.186.541.569.982 4.809.444 4.809.444l4.707-.948s-3.3 1.612-3.706 2.259-.633 1.84.015 2.244.906-.173 1.381-.675 4.547-2.49 5.276-3.026 4.344-4.012 4.344-4.012z" fill="#ffbe9d" transform="translate(-75.688 -45.941)"/><path d="m324.688 51.917a1.864 1.864 0 0 1 .8-.595 4.342 4.342 0 0 1 3.2-.123 7.8 7.8 0 0 1 -1.25-2.725 2.94 2.94 0 0 1 .815-2.763 3.5 3.5 0 0 1 2.828-.543 6.25 6.25 0 0 1 3.626 1.814 4.29 4.29 0 0 1 1.109 3.808l-2.8 2.2a7.4 7.4 0 0 1 -3.119 2.34 1.662 1.662 0 0 1 -1.708-.058 1.248 1.248 0 0 1 -.179-1.424 3.655 3.655 0 0 1 1-1.147 6.957 6.957 0 0 1 -3.356.621 1.277 1.277 0 0 1 -1.052-.458.89.89 0 0 1 .086-.947z" fill="#263238" transform="translate(-109.142 -21.148)"/><path d="m329.073 46.072c0 .035.5.049 1.274.265a6.567 6.567 0 0 1 4.428 4.055c.283.75.341 1.252.376 1.246a1.147 1.147 0 0 0 -.022-.354 5.486 5.486 0 0 0 -.226-.938 6.28 6.28 0 0 0 -4.522-4.142 5.434 5.434 0 0 0 -.955-.142 1.12 1.12 0 0 0 -.353.01z" fill="#455a64" transform="translate(-110.499 -21.433)"/><path d="m336.4 54.545a2.165 2.165 0 0 1 .439-.663 5.394 5.394 0 0 1 2.491-1.945.636.636 0 0 1 .545.041c.238.181.153.571-.038.8s-.464.4-.593.669l-1.514 1.582a1.123 1.123 0 0 1 -.558.413.669.669 0 0 1 -.657-.148.74.74 0 0 1 -.115-.749z" fill="#455a64" transform="translate(-112.661 -23.169)"/><path d="m328.028 69.077a43.123 43.123 0 0 1 1.82-7.206 15.044 15.044 0 0 1 4.05-6.151c.285-.246 2.4-1.781 2.712-1.569.222.153-1.443 1.754-1.436 2.023a12.763 12.763 0 0 1 -2.323 7.212 33.543 33.543 0 0 1 -4.823 5.691" fill="#263238" transform="translate(-110.188 -23.832)"/><path d="m319.726 79.627 10.174-19.048c2.816-5.548 8.391-8.533 13.859-5.564l.574.356a11.015 11.015 0 0 1 3.985 14.4c-2.479 4.818-5.291 10.133-6.852 12.579-3.212 5.032-8.774 2.671-8.774 2.671s-2 3.479-2.857 5.006c0 0-.778.436-5.652-2.245s-4.457-8.155-4.457-8.155z" fill="#ffbe9d" transform="translate(-107.719 -23.748)"/><path d="m335.886 95.634a14.426 14.426 0 0 1 -5.391-6.053s-.68 4.688 4.663 7.374z" fill="#eb996e" transform="translate(-110.913 -34.364)"/><path d="m354.72 80.334a.853.853 0 0 1 -1.152.3.817.817 0 0 1 -.341-1.117.853.853 0 0 1 1.152-.3.816.816 0 0 1 .341 1.117z" fill="#263238" transform="translate(-117.644 -31.252)"/><path d="m355.969 77.421c-.148.039-.444-.708-1.225-1.19s-1.594-.446-1.619-.595c-.015-.068.182-.181.543-.208a2.335 2.335 0 0 1 1.369.359 2.254 2.254 0 0 1 .9 1.065c.127.332.103.554.032.569z" fill="#263238" transform="translate(-117.644 -30.157)"/><path d="m344.25 74.562a.853.853 0 0 1 -1.152.3.815.815 0 0 1 -.341-1.117.852.852 0 0 1 1.151-.3.816.816 0 0 1 .342 1.117z" fill="#263238" transform="translate(-114.533 -29.537)"/><path d="m344.713 71.324c-.148.038-.446-.709-1.226-1.191s-1.594-.446-1.619-.595c-.015-.067.181-.182.543-.208a2.344 2.344 0 0 1 1.369.359 2.249 2.249 0 0 1 .9 1.065c.128.333.104.555.033.57z" fill="#263238" transform="translate(-114.3 -28.347)"/><path d="m344.488 80.513a6.107 6.107 0 0 1 1.408.557c.212.1.425.181.543.065a1.2 1.2 0 0 0 .233-.672l.352-1.881a30.624 30.624 0 0 1 1.14-4.784 30.625 30.625 0 0 1 -.752 4.865c-.134.654-.261 1.278-.383 1.875a1.358 1.358 0 0 1 -.382.845.588.588 0 0 1 -.508.088 1.583 1.583 0 0 1 -.368-.163 6.008 6.008 0 0 1 -1.283-.795z" fill="#263238" transform="translate(-115.078 -29.675)"/><path d="m346.582 68.638c-.226.138-.867-.527-1.788-1.1-.91-.59-1.784-.887-1.755-1.151.017-.123.282-.212.706-.181a3.653 3.653 0 0 1 2.7 1.714c.21.373.242.65.137.718z" fill="#263238" transform="translate(-114.648 -27.418)"/><path d="m357.451 75.027c-.27.077-.777-.5-1.52-.975-.728-.5-1.456-.749-1.487-1.025-.008-.129.2-.244.585-.237a2.8 2.8 0 0 1 1.425.491 2.766 2.766 0 0 1 1 1.12c.146.347.121.583-.003.626z" fill="#263238" transform="translate(-118.036 -29.376)"/><path d="m329.164 68.564c-.063-.091-2.844-3.195-4.887.341s1.929 4.856 1.994 4.759 2.893-5.1 2.893-5.1z" fill="#ffbe9d" transform="translate(-108.9 -27.72)"/><path d="m326.439 72.212c-.009-.02-.086.008-.218 0a.71.71 0 0 1 -.466-.257 1.759 1.759 0 0 1 .085-1.775 2.355 2.355 0 0 1 .681-.782.823.823 0 0 1 .737-.2.361.361 0 0 1 .266.379c-.009.126-.072.183-.058.2s.11-.015.167-.178a.46.46 0 0 0 -.011-.3.535.535 0 0 0 -.289-.286 1 1 0 0 0 -.96.176 2.41 2.41 0 0 0 -.782.862 1.846 1.846 0 0 0 .016 2.046.762.762 0 0 0 .617.232c.16-.036.224-.104.215-.117z" fill="#eb996e" transform="translate(-109.376 -28.231)"/><path d="m352.463 62.229c.754.008.083-2.831-.968-4.272-1.587-2.178-4.511-4.62-6.8-5.176a9.836 9.836 0 0 0 -7.8.879 16.06 16.06 0 0 0 -5.608 6.249 4.88 4.88 0 0 0 -.728 2.454c.052 1.067.724 2.1.069 3.161a1.709 1.709 0 0 0 -.245 1.293c.259 1.06 1.422.86 2.157.415a11.828 11.828 0 0 0 3.567-4.118 11.947 11.947 0 0 0 1.688-3.507c.162-.691.2-1.409.4-2.089a2.451 2.451 0 0 1 1.255-1.632 2.579 2.579 0 0 1 .454-.129 4.258 4.258 0 0 1 4.073 1.381c1.6 1.84 4.419 4.832 5.7 4.658a6.292 6.292 0 0 0 2.5-.713z" fill="#263238" transform="translate(-110.876 -23.31)"/><path d="m348.465 52.33a8.966 8.966 0 0 1 5.817 3.727 4.669 4.669 0 0 1 .807 3.572 2.676 2.676 0 0 1 -2.727 2.1h-.095a6.214 6.214 0 0 1 -3.891-2.488c-1.023-1.16-1.71-2.585-2.739-3.74a8.3 8.3 0 0 0 -4.157-2.515 13.544 13.544 0 0 1 6.985-.656z" fill="#263238" transform="translate(-114.185 -23.237)"/><path d="m342.476 52.932c0 .018.2.01.55.065a4.136 4.136 0 0 1 1.4.509 5.773 5.773 0 0 1 1.654 1.462 15.821 15.821 0 0 1 1.455 2.319 18.807 18.807 0 0 0 1.44 2.364 6.2 6.2 0 0 0 1.645 1.56 4.087 4.087 0 0 0 1.416.577 2.53 2.53 0 0 0 .413.049.414.414 0 0 0 .146-.006 4.728 4.728 0 0 1 -1.9-.735 6.3 6.3 0 0 1 -1.577-1.552 20.287 20.287 0 0 1 -1.414-2.351 14.96 14.96 0 0 0 -1.485-2.337 5.708 5.708 0 0 0 -1.726-1.471 3.9 3.9 0 0 0 -1.456-.464 2.443 2.443 0 0 0 -.416-.011c-.096.008-.146.015-.145.022z" fill="#455a64" transform="translate(-114.48 -23.468)"/><path d="m345.548 52.493a4.735 4.735 0 0 1 1.751.631 5.928 5.928 0 0 1 1.492 1.357 11.491 11.491 0 0 1 1.277 2.138c.387.8.726 1.583 1.093 2.27a9.775 9.775 0 0 0 1.136 1.727 5.515 5.515 0 0 0 1.019.952 3.136 3.136 0 0 0 .321.2c.076.042.117.06.121.055a7.63 7.63 0 0 1 -1.356-1.295 10.476 10.476 0 0 1 -1.084-1.723c-.354-.683-.687-1.465-1.077-2.272a11.072 11.072 0 0 0 -1.312-2.165 5.809 5.809 0 0 0 -1.56-1.362 3.9 3.9 0 0 0 -1.31-.486 2.6 2.6 0 0 0 -.378-.035c-.087-.002-.132.001-.133.008z" fill="#455a64" transform="translate(-115.393 -23.343)"/><path d="m336.507 55.954a1.007 1.007 0 0 0 -.1.3 6.316 6.316 0 0 0 -.154.855 8.791 8.791 0 0 0 1.2 5.524 6.259 6.259 0 0 0 .5.713c.13.159.206.243.216.234.027-.02-.245-.381-.595-1.016a9.8 9.8 0 0 1 -1.187-5.443c.055-.721.153-1.16.12-1.167z" fill="#455a64" transform="translate(-112.615 -24.374)"/><path d="m333.845 59.163a.757.757 0 0 0 -.136.266 2.992 2.992 0 0 0 -.179.8 4.69 4.69 0 0 0 .585 2.6 9.561 9.561 0 0 0 1.622 2.117 5.553 5.553 0 0 0 .81.747 7.085 7.085 0 0 0 -.71-.839 11.424 11.424 0 0 1 -1.551-2.115 4.932 4.932 0 0 1 -.619-2.5 7.26 7.26 0 0 1 .178-1.076z" fill="#455a64" transform="translate(-111.818 -25.327)"/><path d="m357.865 57.595a5.613 5.613 0 0 0 .164.9 7.794 7.794 0 0 1 .177 2.152 3.938 3.938 0 0 1 -.716 1.993 8.124 8.124 0 0 1 -.611.657c.006.01.087-.025.221-.114a2.444 2.444 0 0 0 .5-.458 3.729 3.729 0 0 0 .8-2.062 6.575 6.575 0 0 0 -.236-2.2 3.5 3.5 0 0 0 -.299-.868z" fill="#455a64" transform="translate(-118.759 -24.861)"/><path d="m359.373 62a4.05 4.05 0 0 1 -2.483 2.732 1.172 1.172 0 0 0 .566-.129 3.215 3.215 0 0 0 1.842-2.027 1.2 1.2 0 0 0 .075-.576z" fill="#455a64" transform="translate(-118.762 -26.171)"/><path d="m324.282 74.613c.043.022-.091.263-.168.662a.992.992 0 0 0 .077.649.789.789 0 0 0 .636.388.927.927 0 0 0 .713-.292 1.166 1.166 0 0 0 .307-.6c.074-.4-.014-.659.032-.671.027-.015.2.231.174.7a1.271 1.271 0 0 1 -.315.751 1.152 1.152 0 0 1 -.932.4 1.03 1.03 0 0 1 -.857-.558 1.128 1.128 0 0 1 -.037-.821c.144-.429.344-.621.37-.608z" fill="#263238" transform="translate(-108.948 -29.917)"/><path d="m323.347 72.268c.012.042-.165.1-.248.329a.532.532 0 0 0 0 .388.51.51 0 0 0 .363.27.673.673 0 0 0 .746-.4c.114-.23.11-.41.155-.413s.123.178.039.488a.915.915 0 0 1 -.312.465.832.832 0 0 1 -.691.148.742.742 0 0 1 -.552-.458.7.7 0 0 1 .063-.578c.19-.299.447-.275.437-.239z" fill="#263238" transform="translate(-108.639 -29.214)"/><path d="m324.691 68.7c-.015.042-.18 0-.406.072a.648.648 0 0 0 .073 1.257c.234.05.392-.015.412.025.022.025-.12.181-.433.181a.83.83 0 0 1 -.507-.186.865.865 0 0 1 -.072-1.237.831.831 0 0 1 .482-.243c.311-.035.471.103.451.131z" fill="#263238" transform="translate(-108.853 -28.12)"/><path d="m341.441 83.05c.12.066-.362.842-.041 1.806s1.2 1.395 1.137 1.506c-.02.056-.278.036-.633-.172a2.273 2.273 0 0 1 -.976-1.214 1.981 1.981 0 0 1 .085-1.483c.171-.343.378-.481.428-.443z" fill="#263238" transform="translate(-113.989 -32.422)"/><path d="m275.671 271.248-4.318 11.7s12.382 6.2 12.267 8.6l-24.947-2.734 5.822-19.369z" fill="#455a64" transform="translate(-89.583 -87.797)"/><path d="m265.552 285.9a1.025 1.025 0 0 0 -.832 1.085.985.985 0 0 0 1.068.834 1.081 1.081 0 0 0 .875-1.154 1.021 1.021 0 0 0 -1.208-.744" fill="#fff" transform="translate(-91.378 -92.681)"/><path d="m258.672 296.164.593-1.971 23.508 3.331s1.058.6.846 1.373z" fill="#fff" transform="translate(-89.583 -95.15)"/><path d="m275.712 288.8c-.017.122-.633.11-1.274.436-.651.309-1.018.8-1.125.742-.11-.036.152-.744.936-1.125s1.502-.163 1.463-.053z" fill="#263238" transform="translate(-93.925 -93.499)"/><path d="m279.753 290.886c.015.121-.536.27-1.006.74s-.65 1-.77.983c-.117.006-.123-.717.473-1.29s1.313-.549 1.303-.433z" fill="#263238" transform="translate(-95.3 -94.148)"/><path d="m282.137 294.765c-.114.013-.217-.614.169-1.246s.985-.836 1.025-.729c.058.108-.351.425-.66.95s-.411 1.026-.534 1.025z" fill="#263238" transform="translate(-96.524 -94.725)"/><path d="m277.007 284.85c-.072.1-.59-.179-1.278-.271s-1.26.014-1.3-.1c-.052-.1.554-.44 1.363-.32s1.294.609 1.215.691z" fill="#263238" transform="translate(-94.263 -92.161)"/><path d="m161.16 232.872-12.866 2.447s.331 13.843-1.842 14.866l-9.283-23.317 19.837-3.94z" fill="#455a64" transform="translate(-53.487 -73.979)"/><path d="m149.611 229.563a1.024 1.024 0 0 0 -1.349-.226.985.985 0 0 0 -.235 1.335 1.081 1.081 0 0 0 1.43.231 1.022 1.022 0 0 0 .091-1.416" fill="#fff" transform="translate(-56.664 -75.835)"/><path d="m137.168 228.364 2.019-.4 8.081 22.325s-.039 1.218-.817 1.392z" fill="#fff" transform="translate(-53.487 -75.475)"/><path d="m151.9 239.976c-.115.041-.394-.508-.983-.922-.578-.43-1.186-.522-1.183-.645-.019-.114.729-.215 1.433.3s.849 1.25.733 1.267z" fill="#263238" transform="translate(-57.22 -78.551)"/><path d="m151.793 244.546c-.1.07-.49-.346-1.125-.541-.63-.214-1.189-.1-1.229-.219-.06-.1.575-.444 1.36-.186s1.101.9.994.946z" fill="#263238" transform="translate(-57.131 -80.092)"/><path d="m149.414 248.462c-.065-.094.44-.479 1.18-.434s1.2.477 1.125.563c-.068.1-.541-.11-1.149-.138s-1.1.117-1.156.009z" fill="#263238" transform="translate(-57.123 -81.435)"/><path d="m156.361 239.1c-.122-.018-.119-.6-.36-1.256s-.6-1.107-.521-1.2c.065-.093.649.283.922 1.054s.069 1.428-.041 1.402z" fill="#263238" transform="translate(-58.924 -78.049)"/><path d="m222.45 125.4s-8.416 4.175-12.551 10.658c-4.078 6.394-15.833 38.29-15.833 38.29s-4.823 3.037-5.567 5.294-32.933 12.754-32.933 12.754l3.155 12.8s38.937-8.423 41.531-10.814 25.79-29.7 25.79-29.7l17.143 29.547s-5.958 12.722-7.4 17.342c-1.464 4.7-6.776 20.29-6.776 20.29l13.992.963s12.828-27.7 16.073-33.022 2.8-8.786 1.632-11.917-17.172-41.885-17.172-41.885l5.947-5.377-19.912-19.649z" fill="#263238" transform="translate(-58.952 -43.689)"/><path d="m213.031 211.533a6.011 6.011 0 0 1 -.5-1.506 21.877 21.877 0 0 1 -.6-3.784 20.135 20.135 0 0 1 .224-5.06l.112.016c-.056.224-.095.335-.115.331s-.018-.12 0-.35l.112.016a38.6 38.6 0 0 0 -.009 5.022 32.4 32.4 0 0 0 .5 3.758 10.2 10.2 0 0 1 .276 1.557z" fill="#455a64" transform="translate(-75.678 -67.517)"/><path d="m211.28 212.3a18.693 18.693 0 0 1 -3.524-7.019c.092-.032.709 1.617 1.683 3.55s1.921 3.409 1.841 3.469z" fill="#455a64" transform="translate(-74.454 -68.734)"/><path d="m290.3 224.247a9.951 9.951 0 0 0 -6.89.335 2.472 2.472 0 0 1 .907-.543 7.3 7.3 0 0 1 5.027-.245 2.466 2.466 0 0 1 .956.453z" fill="#455a64" transform="translate(-96.933 -74.137)"/><path d="m287.743 225.862c-.039.092-1.2-.412-2.723-.565-1.523-.17-2.762.079-2.781-.019a6.643 6.643 0 0 1 5.5.584z" fill="#455a64" transform="translate(-96.584 -74.572)"/><path d="m261.927 171.4a9.353 9.353 0 0 1 -1.011 1.518c-.665.908-1.618 2.138-2.721 3.455s-2.148 2.471-2.926 3.283a9.251 9.251 0 0 1 -1.319 1.261 10.857 10.857 0 0 1 1.15-1.417c.8-.936 1.771-2.076 2.847-3.339l2.789-3.386a10.816 10.816 0 0 1 1.191-1.375z" fill="#455a64" transform="translate(-88.18 -58.669)"/><path d="m213.072 183.6a2.9 2.9 0 0 1 .193-.459c.132-.3.351-.726.6-1.292.519-1.123 1.224-2.769 2.012-4.834s1.64-4.558 2.539-7.343 1.858-5.857 2.977-9.049a76.934 76.934 0 0 1 3.669-8.8 44.146 44.146 0 0 1 4.046-6.657 31.574 31.574 0 0 1 3.455-3.955c.436-.441.817-.739 1.058-.959a2.751 2.751 0 0 1 .388-.313 2.887 2.887 0 0 1 -.344.361c-.226.235-.592.548-1.012 1a34.871 34.871 0 0 0 -3.358 4 45.843 45.843 0 0 0 -3.962 6.655 80.162 80.162 0 0 0 -3.63 8.779c-1.117 3.184-2.081 6.253-3 9.033s-1.79 5.273-2.611 7.332-1.557 3.7-2.113 4.805c-.268.559-.506.978-.657 1.267a2.7 2.7 0 0 1 -.25.429z" fill="#455a64" transform="translate(-76.036 -49.322)"/><path d="m210.02 203.3c.02.094-.608.273-1.259.709s-1.07.931-1.149.877.247-.681.968-1.151a1.953 1.953 0 0 1 1.44-.435z" fill="#455a64" transform="translate(-74.411 -68.137)"/><path d="m192.542 206.971a1.519 1.519 0 0 1 -.318.185l-.94.473c-.818.407-2.015.969-3.5 1.641-2.978 1.345-7.148 3.084-11.844 4.765s-9.027 2.975-12.182 3.823c-1.577.425-2.859.749-3.75.952l-1.027.231a1.566 1.566 0 0 1 -.363.058 1.511 1.511 0 0 1 .347-.123l1.011-.29 3.72-1.052c3.136-.9 7.445-2.235 12.135-3.91s8.862-3.38 11.861-4.668l3.544-1.544.965-.417a1.584 1.584 0 0 1 .341-.124z" fill="#455a64" transform="translate(-59.858 -69.238)"/><path d="m246.455 149.5a3.207 3.207 0 0 1 -1 .906 7.125 7.125 0 0 1 -6.293.754 3.2 3.2 0 0 1 -1.183-.645c.027-.051.477.195 1.255.424a7.842 7.842 0 0 0 6.1-.73c.702-.403 1.082-.748 1.121-.709z" fill="#455a64" transform="translate(-83.436 -52.164)"/><path d="m264.923 263.079a1.863 1.863 0 0 1 .08-.4l.292-1.13c.257-.981.658-2.391 1.178-4.127 1.038-3.472 2.6-8.232 4.565-13.4s3.974-9.762 5.508-13.045c.767-1.641 1.406-2.961 1.866-3.864l.534-1.038a1.916 1.916 0 0 1 .206-.351 1.845 1.845 0 0 1 -.146.38l-.478 1.064-1.77 3.9c-1.479 3.3-3.444 7.9-5.412 13.066s-3.557 9.9-4.651 13.353c-.53 1.7-.964 3.087-1.277 4.093-.144.456-.261.825-.351 1.113a1.986 1.986 0 0 1 -.144.386z" fill="#455a64" transform="translate(-91.439 -74.809)"/><path d="m305.206 94.4-7.561-7.311s-7.3-.113-11.284 1.136-44.614 30.256-44.614 30.256c5.445 2.173 10.224 7.017 14.721 12.992 3.8 4.508 5.074 11.2 10.6 13.237 1.17.432 5.36-.8 5.36-.8l.963-4.359 33.092-31.572s1.489-9.11-1.277-13.579z" fill="#ff725e" transform="translate(-84.555 -33.623)"/><path d="m282.6 120.825a18.509 18.509 0 0 1 -11.947-3.839c5.112-2.658 9.545-6.429 13.93-10.166 3.319-2.83 8.805-7.512 13.193-10.485-8.95 1.111-21.734 5.249-29.492 9.846-6.7 3.967-12.834 9.189-20.32 11.317l-1.113-.072a5.932 5.932 0 0 0 3.912 4.867 12.943 12.943 0 0 0 6.508.448 58.318 58.318 0 0 1 6.536-.86c3.34-.072 6.6.931 9.887 1.5s6.884.665 9.749-1.053c.287-.173.595-.411.61-.746.032-.614-.832-.782-1.453-.757z" opacity=".3" transform="translate(-86.072 -36.37)"/><path d="m305.962 124.164a82.48 82.48 0 0 1 -37.827-1.318l.331 4.393c6.388 1.489 12.823 2.985 19.378 3.241s13.311-.8 18.967-4.127z" fill="#455a64" transform="translate(-92.394 -44.246)"/><path d="m313.027 123.573a128.686 128.686 0 0 1 .489-17.588l.136-.591c-1.295 1.378-1.678 3.359-1.922 5.234a63.232 63.232 0 0 0 .069 17.223l1.394-.945c.025-.236-.141-2.156-.166-3.333z" opacity=".3" transform="translate(-105.18 -39.061)"/><path d="m322.432 92.748c-3.343-2.84-9.69-1.363-13.758.28l-2.992 6.214c4-1.256 10.769-5.567 14.612-3.894s5.2 5.171 6.108 9.274a12.355 12.355 0 0 0 -3.97-11.874z" fill="#263238" transform="translate(-103.549 -34.829)"/><path d="m289.785 78.627c-3.488-2.482-8-2.187-12.163-1.737-8.079.872-13.475 4.765-21.773 7.6a21.161 21.161 0 0 0 -12.072 10.11c-3.12 6.016-2.684 11.576 1.356 17.054l1.391 1.352a10.326 10.326 0 0 0 11.094 2.18c10.713-4.392 17.5-11.473 28.466-18.3 3.2-1.993 6.474-4.252 7.413-8.247a9.64 9.64 0 0 0 -3.712-10.012z" fill="#455a64" transform="translate(-84.55 -30.503)"/><path d="m294.043 84.829a3.55 3.55 0 0 1 -.068.589 7.154 7.154 0 0 1 -.536 1.615 14.068 14.068 0 0 1 -4.042 4.72 178.566 178.566 0 0 1 -16.808 11.808c-3.406 2.124-6.728 4.023-9.787 5.676-1.529.829-3 1.587-4.376 2.287a36.242 36.242 0 0 1 -3.924 1.785 11.036 11.036 0 0 1 -6.16.664 6.952 6.952 0 0 1 -1.609-.551 3.771 3.771 0 0 1 -.388-.213c-.084-.052-.127-.082-.123-.086a9.547 9.547 0 0 0 2.147.711 11.15 11.15 0 0 0 6.042-.766 37.228 37.228 0 0 0 3.876-1.814c1.371-.71 2.831-1.478 4.352-2.313 3.045-1.667 6.354-3.571 9.754-5.691a199.146 199.146 0 0 0 16.838-11.7 14.393 14.393 0 0 0 4.078-4.581 9.463 9.463 0 0 0 .734-2.14z" fill="#263238" transform="translate(-85.885 -32.952)"/><path d="m276.965 104.422c-.085.054-2.682-3.878-5.8-8.781s-5.578-8.923-5.493-8.977 2.682 3.876 5.8 8.781 5.578 8.922 5.493 8.977z" fill="#263238" transform="translate(-91.663 -33.497)"/><path d="m276.7 105.775a1.654 1.654 0 0 0 -.638.563 9.242 9.242 0 0 1 -.532.851 1.18 1.18 0 0 1 -.553.391.84.84 0 0 1 -.754-.176.639.639 0 0 1 -.227-.37.555.555 0 0 1 .111-.432 1.114 1.114 0 0 1 .595-.333l.956-.261a2.35 2.35 0 0 1 .909-.153c.015.048-.3.2-.831.4l-.932.336c-.366.1-.607.327-.344.535a.5.5 0 0 0 .42.11.885.885 0 0 0 .4-.267c.228-.25.382-.56.581-.786a1.226 1.226 0 0 1 .578-.415c.169-.047.261-.014.261.007z" fill="#263238" transform="translate(-94.135 -39.166)"/><path d="m294.793 306.586a4.883 4.883 0 1 1 -4.883-4.883 4.883 4.883 0 0 1 4.883 4.883z" fill="#263238" transform="translate(-97.413 -97.381)"/><path d="m294.443 306.734c-.037 0-.02-.392-.2-1.058a4.384 4.384 0 0 0 -1.608-2.344 4.269 4.269 0 0 0 -4.035-.585 4.2 4.2 0 0 0 -1.964 1.483 4.224 4.224 0 0 0 0 5.006 4.211 4.211 0 0 0 1.965 1.484 4.271 4.271 0 0 0 4.035-.585 4.385 4.385 0 0 0 1.607-2.344c.179-.666.163-1.059.2-1.057a.915.915 0 0 1 .019.282 3.424 3.424 0 0 1 -.095.807 4.374 4.374 0 0 1 -1.59 2.5 4.45 4.45 0 0 1 -1.894.865 4.523 4.523 0 0 1 -2.386-.181 4.477 4.477 0 0 1 -2.121-1.578 4.518 4.518 0 0 1 0-5.386 4.48 4.48 0 0 1 2.121-1.577 4.53 4.53 0 0 1 2.386-.181 4.458 4.458 0 0 1 1.894.865 4.373 4.373 0 0 1 1.59 2.5 3.419 3.419 0 0 1 .095.806.918.918 0 0 1 -.019.278z" fill="#455a64" transform="translate(-97.549 -97.529)"/><path d="m200.106 309a4.883 4.883 0 1 1 -4.882-4.883 4.883 4.883 0 0 1 4.882 4.883z" fill="#263238" transform="translate(-69.283 -98.097)"/><path d="m199.755 309.143c-.036 0-.02-.391-.2-1.058a4.379 4.379 0 0 0 -1.607-2.344 4.27 4.27 0 0 0 -4.035-.585 4.209 4.209 0 0 0 -1.965 1.483 4.225 4.225 0 0 0 0 5.006 4.2 4.2 0 0 0 1.965 1.484 4.269 4.269 0 0 0 4.035-.585 4.378 4.378 0 0 0 1.607-2.344c.18-.666.164-1.06.2-1.058a.889.889 0 0 1 .019.283 3.448 3.448 0 0 1 -.094.806 4.372 4.372 0 0 1 -1.59 2.5 4.441 4.441 0 0 1 -1.894.865 4.531 4.531 0 0 1 -4.506-7.145 4.5 4.5 0 0 1 6.4-.893 4.375 4.375 0 0 1 1.59 2.5 3.453 3.453 0 0 1 .094.807.886.886 0 0 1 -.019.278z" fill="#455a64" transform="translate(-69.419 -98.245)"/><path d="m273.932 303.7c-.04.12-1.366-.162-3.721-.773l-1.956-.519-2.345-.543c-1.685-.376-3.582-.883-5.721-1.26l-3.34-.659c-1.162-.226-2.385-.382-3.643-.591-2.511-.445-5.221-.72-8.065-1.063a150.15 150.15 0 0 0 -37.17.756c-2.828.458-5.525.844-8.016 1.391-1.248.259-2.464.466-3.615.739l-3.311.794c-2.122.465-4 1.048-5.666 1.492l-2.32.638-1.932.6c-2.329.706-3.642 1.042-3.687.924s1.184-.68 3.453-1.6l1.893-.754c.7-.259 1.467-.506 2.29-.787 1.651-.541 3.517-1.216 5.637-1.766l3.314-.917c1.155-.312 2.375-.556 3.629-.851 2.5-.616 5.223-1.064 8.077-1.573a135.38 135.38 0 0 1 37.609-.766c2.873.392 5.607.729 8.134 1.243 1.265.243 2.495.438 3.661.7l3.349.781c2.141.463 4.033 1.061 5.7 1.535.833.247 1.612.462 2.32.692l1.922.676c2.309.831 3.56 1.342 3.52 1.461z" fill="#ff725e" transform="translate(-66.04 -95.588)"/><path d="m343.605 184.927c.126.358.894 1.946.894 1.946l2.854 6.517.276 9.1a1.258 1.258 0 0 1 -1.774-.933 29.669 29.669 0 0 1 -.434-4.313l-4.31 5.533a1.764 1.764 0 0 1 -.527-2.351l-1.792.965a2.923 2.923 0 0 1 -.522-2.185c.269-1.146 3.357-4.428 3.357-4.428l-5.4-.216s-.933-.73-.039-1.289a25.89 25.89 0 0 1 4.131-1.416 4.059 4.059 0 0 1 -2.642-2.045 7.131 7.131 0 0 1 -.643-3.694z" fill="#ffbe9d" transform="translate(-112.498 -62.689)"/><path d="m317.555 118.885s3.55 24.259 3.588 25.843a49.9 49.9 0 0 0 .706 5.2s-.1-.163 1.222 2.129 9.7 17.1 9.7 17.1l6.309-2.34s-6.519-19.331-7.092-22.255.436-17.676-1.105-23.823-13.328-1.854-13.328-1.854z" fill="#ffbe9d" transform="translate(-107.076 -42.637)"/><path d="m319.463 96.839a3.081 3.081 0 0 0 -.8.321c-1.232.707-4.692 3.2-4.934 10.755-.306 9.5.194 16.4.194 16.4l17.577-1.415c-.082-.107-1.078-28.732-12.037-26.061z" fill="#ff725e" transform="translate(-105.91 -36.468)"/><path d="m331.423 122.912a1.437 1.437 0 0 1 -.337.058l-.978.108-3.661.346-12.589 1.076-.179.015-.011-.181c-.122-1.966-.212-4.08-.259-6.264-.072-3.3-.048-6.452.089-9.314a20.439 20.439 0 0 1 1.374-7.48 8.553 8.553 0 0 1 3.306-3.889 6.181 6.181 0 0 1 1.277-.578 2.288 2.288 0 0 1 .476-.108 9.323 9.323 0 0 0 -1.678.806 8.624 8.624 0 0 0 -3.144 3.873 20.623 20.623 0 0 0 -1.273 7.391c-.119 2.852-.132 5.995-.06 9.29.046 2.179.132 4.289.245 6.251l-.19-.165 12.6-.947 3.669-.242.983-.05a1.444 1.444 0 0 1 .34.004z" fill="#263238" transform="translate(-105.833 -36.478)"/><path d="m344.106 480.479c0 .1-72.98.183-162.985.183-90.036 0-163-.082-163-.183s72.965-.183 163-.183c90.005.004 162.985.082 162.985.183z" fill="#263238" transform="translate(-18.12 -150.437)"/></svg>