<svg height="17.236" viewBox="0 0 17.236 17.236" width="17.236" xmlns="http://www.w3.org/2000/svg"><g fill="#729895"><path d="m43.066 40.78a2.286 2.286 0 1 0 2.286 2.286 2.286 2.286 0 0 0 -2.286-2.286z" transform="translate(-34.448 -34.448)"/><path d="m43.066 15.25a2.286 2.286 0 1 0 2.286 2.286 2.286 2.286 0 0 0 -2.286-2.286z" transform="translate(-34.448 -15.248)"/><path d="m43.066 66.32a2.286 2.286 0 1 0 2.286 2.28 2.286 2.286 0 0 0 -2.286-2.28z" transform="translate(-34.448 -53.656)"/><path d="m17.528 40.78a2.286 2.286 0 1 0 2.283 2.286 2.286 2.286 0 0 0 -2.283-2.286z" transform="translate(-15.24 -34.448)"/><path d="m17.528 15.25a2.286 2.286 0 1 0 2.283 2.286 2.286 2.286 0 0 0 -2.283-2.286z" transform="translate(-15.24 -15.248)"/><path d="m17.528 66.32a2.286 2.286 0 1 0 2.284 2.28 2.286 2.286 0 0 0 -2.284-2.28z" transform="translate(-15.24 -53.656)"/><path d="m68.6 40.78a2.286 2.286 0 1 0 2.286 2.286 2.286 2.286 0 0 0 -2.286-2.286z" transform="translate(-53.648 -34.448)"/><path d="m68.6 19.812a2.286 2.286 0 1 0 -2.283-2.283 2.286 2.286 0 0 0 2.283 2.283z" transform="translate(-53.656 -15.24)"/><path d="m68.6 66.32a2.286 2.286 0 1 0 2.282 2.28 2.286 2.286 0 0 0 -2.282-2.28z" transform="translate(-53.648 -53.656)"/></g></svg>