<svg height="16.991" viewBox="0 0 19.056 16.991" width="19.056" xmlns="http://www.w3.org/2000/svg"><g fill="#729895" stroke="#729896" stroke-width=".5"><path d="m60.118 30a.619.619 0 0 0 -.618.618v15.255a.618.618 0 1 0 1.237 0v-15.255a.619.619 0 0 0 -.619-.618z" transform="translate(-41.932 -29.75)"/><path d="m44.929 42.782a.618.618 0 0 0 -.85-.207l-1.7 1.036v-1.993a.618.618 0 1 0 -1.237 0v1.992l-1.7-1.036a.618.618 0 1 0 -.643 1.057l1.773 1.079-1.772 1.079a.618.618 0 1 0 .643 1.057l1.7-1.036v1.99a.618.618 0 1 0 1.237 0v-1.99l1.7 1.036a.619.619 0 1 0 .643-1.057l-1.773-1.079 1.773-1.079a.619.619 0 0 0 .206-.849z" transform="translate(-29.589 -36.215)"/><path d="m23.929 42.782a.618.618 0 0 0 -.85-.207l-1.7 1.036v-1.993a.618.618 0 0 0 -1.237 0v1.992l-1.7-1.036a.618.618 0 0 0 -.643 1.057l1.773 1.079-1.772 1.079a.618.618 0 0 0 .643 1.057l1.7-1.036v1.99a.618.618 0 0 0 1.237 0v-1.99l1.7 1.036a.619.619 0 1 0 .643-1.057l-1.773-1.079 1.773-1.079a.619.619 0 0 0 .206-.849z" transform="translate(-17.247 -36.215)"/></g></svg>