<svg height="144.767" viewBox="0 0 162.4 144.767" width="162.4" xmlns="http://www.w3.org/2000/svg"><path d="m3.616-67.486a19.2 19.2 0 0 1 .869-5.821 14.42 14.42 0 0 1 2.547-4.81 12.164 12.164 0 0 1 4.163-3.274 12.889 12.889 0 0 1 5.72-1.213 12.889 12.889 0 0 1 5.72 1.213 12.164 12.164 0 0 1 4.165 3.275 14.42 14.42 0 0 1 2.547 4.81 19.2 19.2 0 0 1 .869 5.821 19.2 19.2 0 0 1 -.869 5.821 14.42 14.42 0 0 1 -2.547 4.81 11.952 11.952 0 0 1 -4.166 3.254 13.074 13.074 0 0 1 -5.72 1.192 13.074 13.074 0 0 1 -5.72-1.192 11.952 11.952 0 0 1 -4.163-3.254 14.42 14.42 0 0 1 -2.547-4.81 19.2 19.2 0 0 1 -.868-5.822zm.808 0a18.976 18.976 0 0 0 .909 5.74 13.576 13.576 0 0 0 2.467 4.527 11.186 11.186 0 0 0 3.9 2.971 12.228 12.228 0 0 0 5.214 1.071 12.228 12.228 0 0 0 5.214-1.071 11.186 11.186 0 0 0 3.9-2.971 13.576 13.576 0 0 0 2.466-4.527 18.976 18.976 0 0 0 .909-5.74 18.976 18.976 0 0 0 -.909-5.74 13.576 13.576 0 0 0 -2.466-4.527 11.186 11.186 0 0 0 -3.9-2.971 12.228 12.228 0 0 0 -5.214-1.071 12.228 12.228 0 0 0 -5.214 1.072 11.186 11.186 0 0 0 -3.9 2.971 13.576 13.576 0 0 0 -2.466 4.527 18.976 18.976 0 0 0 -.91 5.739zm30.076 21.545v-12.935h.081a8.3 8.3 0 0 0 2.87 4.547 8.448 8.448 0 0 0 5.449 1.718 8.061 8.061 0 0 0 3.8-.869 8.083 8.083 0 0 0 2.769-2.365 11 11 0 0 0 1.7-3.476 14.6 14.6 0 0 0 .586-4.163 14.717 14.717 0 0 0 -.606-4.325 10.354 10.354 0 0 0 -1.758-3.436 8.087 8.087 0 0 0 -2.791-2.263 8.242 8.242 0 0 0 -3.7-.808 8.968 8.968 0 0 0 -2.931.465 7.844 7.844 0 0 0 -2.405 1.314 8.9 8.9 0 0 0 -1.819 2 9.208 9.208 0 0 0 -1.172 2.526h-.073v-5.821h-.808v27.89zm8.4-7.438a7.747 7.747 0 0 1 -6.1-2.607q-2.3-2.607-2.3-7.5a12.853 12.853 0 0 1 .566-3.84 9.944 9.944 0 0 1 1.634-3.191 7.861 7.861 0 0 1 2.648-2.183 7.682 7.682 0 0 1 3.557-.808 7.406 7.406 0 0 1 3.537.808 7.171 7.171 0 0 1 2.506 2.2 10.251 10.251 0 0 1 1.5 3.193 14.065 14.065 0 0 1 .505 3.82 14.4 14.4 0 0 1 -.465 3.618 10.342 10.342 0 0 1 -1.435 3.234 7.81 7.81 0 0 1 -2.486 2.344 6.984 6.984 0 0 1 -3.667.912zm12.086-9.9h17.386a14.4 14.4 0 0 0 -.424-4.123 10.257 10.257 0 0 0 -1.617-3.517 8.23 8.23 0 0 0 -2.87-2.466 8.836 8.836 0 0 0 -4.184-.93 8.367 8.367 0 0 0 -3.4.728 8.444 8.444 0 0 0 -2.91 2.122 10.771 10.771 0 0 0 -2.021 3.416 12.908 12.908 0 0 0 -.768 4.608 16.9 16.9 0 0 0 .525 4.3 10.085 10.085 0 0 0 1.617 3.476 7.294 7.294 0 0 0 2.809 2.284 9.3 9.3 0 0 0 4.143.768 9.089 9.089 0 0 0 5.982-2 8.281 8.281 0 0 0 2.87-5.639h-.808a7.772 7.772 0 0 1 -2.683 5.152 8.467 8.467 0 0 1 -5.433 1.721 8.345 8.345 0 0 1 -3.759-.768 6.809 6.809 0 0 1 -2.506-2.1 9.165 9.165 0 0 1 -1.435-3.134 16.862 16.862 0 0 1 -.509-3.901zm16.572-.808h-16.567a12.5 12.5 0 0 1 .808-3.921 9.723 9.723 0 0 1 1.8-2.971 7.517 7.517 0 0 1 2.587-1.88 7.816 7.816 0 0 1 3.173-.647 8.033 8.033 0 0 1 3.557.748 7.343 7.343 0 0 1 2.567 2.041 9 9 0 0 1 1.556 3.011 12.3 12.3 0 0 1 .524 3.616zm4.042-9.741v20.776h.808v-11.766a11.207 11.207 0 0 1 .485-3.315 8.321 8.321 0 0 1 1.441-2.767 6.957 6.957 0 0 1 2.366-1.9 7.229 7.229 0 0 1 3.274-.707 8.192 8.192 0 0 1 2.526.384 5.657 5.657 0 0 1 2.1 1.213 5.769 5.769 0 0 1 1.435 2.1 8.106 8.106 0 0 1 .525 3.092v13.662h.808v-13.783a8.777 8.777 0 0 0 -.546-3.213 6.454 6.454 0 0 0 -1.534-2.348 6.515 6.515 0 0 0 -2.344-1.435 8.753 8.753 0 0 0 -2.971-.485 8.656 8.656 0 0 0 -2.789.424 7.08 7.08 0 0 0 -2.2 1.192 7.06 7.06 0 0 0 -1.584 1.783 7.36 7.36 0 0 0 -.909 2.223h-.081v-5.133z" fill="#feb94a" transform="translate(-3.616 190.708)"/><path d="m.606-73.494a7.121 7.121 0 0 1 .687-3.153 7.387 7.387 0 0 1 1.839-2.405 8.428 8.428 0 0 1 2.668-1.536 9.3 9.3 0 0 1 3.173-.546 10.233 10.233 0 0 1 2.082.222 10.781 10.781 0 0 1 2.061.647 8.635 8.635 0 0 1 1.839 1.071 6.571 6.571 0 0 1 1.455 1.536l-.243.243a1.15 1.15 0 0 0 -.2.243l-.3.3q-.222.222-.465.485t-.465.485l-.3.3a2.263 2.263 0 0 1 -.546-.586 2.688 2.688 0 0 0 -.505-.586 6.235 6.235 0 0 0 -4.406-1.738 6.106 6.106 0 0 0 -2.122.364 5.127 5.127 0 0 0 -1.718 1.031 4.9 4.9 0 0 0 -1.152 1.6 5.006 5.006 0 0 0 -.424 2.1 4.117 4.117 0 0 0 1.031 2.85 6.348 6.348 0 0 0 2.526 1.718l5.214 1.981a7.993 7.993 0 0 1 1.718.93 7.849 7.849 0 0 1 1.547 1.438 7.7 7.7 0 0 1 1.112 1.779 4.757 4.757 0 0 1 .424 1.96v1.819a5.252 5.252 0 0 1 -.829 2.931 7.24 7.24 0 0 1 -2.122 2.122 10.451 10.451 0 0 1 -2.807 1.289 10.394 10.394 0 0 1 -2.931.445 10.269 10.269 0 0 1 -2.447-.321 11.657 11.657 0 0 1 -2.506-.93 8.854 8.854 0 0 1 -2.122-1.5 5.623 5.623 0 0 1 -1.372-2.016l.243-.243q.121-.081.384-.3l.546-.465.546-.465q.263-.222.344-.3a1.529 1.529 0 0 1 .546.687 3.293 3.293 0 0 0 .465.768 9.314 9.314 0 0 0 2.426 1.834 6.437 6.437 0 0 0 2.991.667 6.667 6.667 0 0 0 2.122-.344 5.905 5.905 0 0 0 1.839-.99 4.895 4.895 0 0 0 1.293-1.576 4.476 4.476 0 0 0 .485-2.1 4.317 4.317 0 0 0 -1.213-3.193 8.429 8.429 0 0 0 -3.032-1.9l-4.124-1.538a8.3 8.3 0 0 1 -3.8-2.708 6.936 6.936 0 0 1 -1.455-4.406zm18.553 10.468a9.369 9.369 0 0 1 5.296-8.974 11.056 11.056 0 0 1 5.093-1.334q7.033 0 9.337 6.346l-16.249 7.6a.036.036 0 0 0 -.04.04v.04a7.859 7.859 0 0 0 7.68 4.81 7.127 7.127 0 0 0 6.386-3.638 9.526 9.526 0 0 0 1.172-3.153l2.587-1.211v.323a9.566 9.566 0 0 1 -4.527 8.165 10.155 10.155 0 0 1 -5.942 1.859 10.039 10.039 0 0 1 -9.418-5.5 11.007 11.007 0 0 1 -1.375-5.373zm2.587-.081v.647q.04.849.121.849h.04l13.379-6.225q0-.2-.606-.849a7 7 0 0 0 -5.3-2.264q-5.133 0-6.952 4.325a9.09 9.09 0 0 0 -.682 3.518zm23.646-9.216a17.307 17.307 0 0 1 5.538-1.051 10.527 10.527 0 0 1 3.355.445 5.161 5.161 0 0 1 3.88 5.255v15.481h-2.344v-2.789h-.121a6.548 6.548 0 0 1 -5.78 2.829q-6.669 0-7.478-6.508v-.849a6.7 6.7 0 0 1 4.2-6.548 7.747 7.747 0 0 1 3.274-.687 7.423 7.423 0 0 1 5.74 2.547v-3.6q0-1.859-2.344-2.87a6.529 6.529 0 0 0 -2.546-.4 9.549 9.549 0 0 0 -2.547.323q-1.091.323-2.183.687h-.036zm-.364 12.652q0 5.214 5.3 5.214a6.227 6.227 0 0 0 2.264-.364 4.514 4.514 0 0 0 3.072-4.568 4.49 4.49 0 0 0 -3.193-4.648 7 7 0 0 0 -2.3-.364 6.511 6.511 0 0 0 -2.142.323 4.232 4.232 0 0 0 -3 4.407zm17.34-13.783v-4.406h2.506v4.406h5.457v2.3h-5.456v13.864q0 2.829 3.476 2.829a4.461 4.461 0 0 0 1.94-.4h.04v2.344a2.547 2.547 0 0 1 -.687.2q-.2.04-.647.121a9.4 9.4 0 0 1 -1.091.04 7.279 7.279 0 0 1 -2.668-.445 4.386 4.386 0 0 1 -2.87-4.446v-14.103h-2.182v-2.3z" fill="#fff" transform="translate(92.068 189.764)"/><ellipse cx="13.015" cy="114.402" fill="#feb94a" rx="2.504" ry="1.431"/><path d="m24.166 40.6v11.78h54.394v-11.78a6.571 6.571 0 0 1 5.255-6.43c-.432-5.059-3.944-25.167-32.452-25.167-28.577 0-32.038 20.112-32.455 25.167a6.571 6.571 0 0 1 5.258 6.43z" fill="#fff" transform="translate(30.422 -9.006)"/><g fill="#feb94a"><path d="m9.8 87.658h4.483l19.67-33.991h-10.28z" transform="translate(28.201 1.885)"/><path d="m14.584 35.207v17.393a4.079 4.079 0 0 0 4.074 4.074h67.518a4.079 4.079 0 0 0 4.074-4.074v-17.393a4.074 4.074 0 1 0 -8.148 0v13.024a1.243 1.243 0 0 1 -1.244 1.244h-56.882a1.243 1.243 0 0 1 -1.244-1.244v-13.024a4.074 4.074 0 0 0 -8.148 0z" transform="translate(29.368 -3.61)"/><path d="m71.062 53.667h-10.279l19.67 33.991h4.483z" transform="translate(40.634 1.885)"/></g></svg>