<svg height="18" viewBox="0 0 16.737 18" width="16.737" xmlns="http://www.w3.org/2000/svg"><path d="m19.939 18.048v3.259h10.668v-3.259c0-.622.443-3.987 1.031-4.107-.085-.992-.774-4.936-6.365-4.936s-6.283 3.944-6.365 4.936c.587.119 1.031 3.485 1.031 4.107z" fill="#f2d4a3" transform="translate(-16.904 -9.006)"/><g fill="#e88600"><path d="m11.8 56.978h.879l1.961-3.311h-2.017z" transform="translate(-10.121 -38.978)"/><path d="m13.584 31.932v3.411a.8.8 0 0 0 .8.8h15.138a.8.8 0 0 0 .8-.8v-3.411a.8.8 0 1 0 -1.6 0v2.554a.244.244 0 0 1 -.244.244h-13.052a.244.244 0 0 1 -.244-.244v-2.554a.8.8 0 1 0 -1.6 0z" transform="translate(-13.584 -20.992)"/><path d="m62.8 53.667h-2.017l1.961 3.311h.879z" transform="translate(-48.564 -38.978)"/></g></svg>