<svg height="23.613" viewBox="0 0 21.956 23.613" width="21.956" xmlns="http://www.w3.org/2000/svg"><g fill="#0c534e"><path d="m20.26 20.868v4.275h13.995v-4.275c0-.816.582-5.231 1.352-5.387-.111-1.3-1.015-6.475-8.349-6.475-7.352 0-8.242 5.174-8.35 6.475.77.156 1.352 4.571 1.352 5.387z" transform="translate(-16.28 -9.006)"/><path d="m11.8 58.01h1.153l2.572-4.343h-2.645z" transform="translate(-9.597 -34.398)"/><path d="m13.584 32.181v4.475a1.05 1.05 0 0 0 1.048 1.044h19.86a1.05 1.05 0 0 0 1.048-1.048v-4.471a1.048 1.048 0 1 0 -2.1 0v3.351a.32.32 0 0 1 -.32.32h-17.12a.32.32 0 0 1 -.32-.32v-3.351a1.048 1.048 0 1 0 -2.1 0z" transform="translate(-13.584 -17.83)"/><path d="m63.427 53.667h-2.644l2.572 4.343h1.153z" transform="translate(-44.754 -34.398)"/></g><path d="m18.543 13.456-3.882 3.881a.706.706 0 0 1 -1 0l-1.761-1.765a.706.706 0 0 1 1-1l1.266 1.266 3.383-3.382a.706.706 0 0 1 1 1z" fill="#fff" stroke="#fff" stroke-width=".5" transform="translate(-4.243 -6.026)"/></svg>