<svg height="23.613" viewBox="0 0 28.572 23.613" width="28.572" xmlns="http://www.w3.org/2000/svg"><path d="m28.567 11.837-1.916-5.488v-1.225a1.126 1.126 0 0 0 -1.125-1.124h-22.488a1.126 1.126 0 0 0 -1.124 1.124v1.225l-1.914 5.488a1.109 1.109 0 0 0 1.141 1.151.843.843 0 0 0 .772-.431v13.93a1.126 1.126 0 0 0 1.124 1.124h14.618v-11.242h5.622v11.244h2.249a1.126 1.126 0 0 0 1.124-1.124v-13.932a1.064 1.064 0 0 0 1.916-.72zm-17.98.106a1.59 1.59 0 0 1 -3.18.046c0-.04 0-.079 0-.1a.066.066 0 0 0 0-.015c0-.016 0-.034 0-.034l.75-4.464h2.828l-.4 4.464s0 .018 0 .034c-.005.02.001.044.001.069zm-6.887 1.592a1.593 1.593 0 0 1 -1.592-1.592c0-.025.007-.048.008-.072h-.001c0-.016 0-.034 0-.034l1.327-4.464h2.828l-.98 4.464s0 .018 0 .034c0 .024.008.047.008.072a1.593 1.593 0 0 1 -1.598 1.592zm10.577 10.7h-9v-7.866h9zm0-10.7a1.593 1.593 0 0 1 -1.592-1.592c0-.025.007-.048.008-.072v-.034l.172-4.464h2.835l.172 4.464v.034s0 .01 0 .015 0 .044.006.066a1.591 1.591 0 0 1 -1.595 1.583zm5.288 0a1.592 1.592 0 0 1 -1.591-1.58c0-.02 0-.045 0-.061a.168.168 0 0 0 0-.024v-.034l-.4-4.464h2.836l.75 4.464s0 .018 0 .034h-.008c0 .024.008.047.008.072a1.593 1.593 0 0 1 -1.589 1.593zm5.27 0a1.589 1.589 0 0 1 -1.585-1.527 1.458 1.458 0 0 0 .019-.171l-.98-4.464h2.829l1.328 4.464v.034h-.025c0 .024.008.047.008.072a1.6 1.6 0 0 1 -1.587 1.592z" fill="#fff" transform="translate(0 -4)"/></svg>