<svg height="13.224" viewBox="0 0 18.308 13.224" width="18.308" xmlns="http://www.w3.org/2000/svg"><path d="m29.441 42.376a.632.632 0 0 1 -.647.647h-1.711a.632.632 0 0 1 -.647-.647v-1.11a.632.632 0 0 1 .647-.647h1.711a.632.632 0 0 1 .647.647zm-4.441-11.651a5.025 5.025 0 0 1 3.19-.925 5.087 5.087 0 0 1 3.375 1.063 3.711 3.711 0 0 1 1.248 2.913 3.8 3.8 0 0 1 -.647 2.081 4.791 4.791 0 0 1 -1.711 1.48 1.923 1.923 0 0 0 -.786.832 2.876 2.876 0 0 0 -.185.74.456.456 0 0 1 -.462.416h-2.078a.449.449 0 0 1 -.462-.509 2.738 2.738 0 0 1 .416-1.387 6.541 6.541 0 0 1 1.618-1.429 2.67 2.67 0 0 0 .971-.925 2.346 2.346 0 0 0 .324-1.295 1.652 1.652 0 0 0 -.416-1.2 1.562 1.562 0 0 0 -1.156-.462 1.523 1.523 0 0 0 -1.017.37 1.328 1.328 0 0 0 -.37.6.751.751 0 0 1 -.694.509l-1.942-.046a.456.456 0 0 1 -.416-.462 3.268 3.268 0 0 1 1.2-2.364z" fill="#f2d4a3" transform="translate(-23.8 -29.8)"/><path d="m81.506 25.529a1.333 1.333 0 0 1 -1.329 1.329h-5.848a1.333 1.333 0 0 1 -1.329-1.329 1.333 1.333 0 0 1 1.329-1.329h5.848a1.355 1.355 0 0 1 1.329 1.329zm-7.177 6.612a1.333 1.333 0 0 1 -1.329-1.329 1.333 1.333 0 0 1 1.329-1.329h4.319a1.333 1.333 0 0 1 1.329 1.329 1.333 1.333 0 0 1 -1.329 1.329zm-1.3 3.954a1.333 1.333 0 0 1 1.329-1.329h2.625a1.333 1.333 0 0 1 1.329 1.329 1.333 1.333 0 0 1 -1.329 1.329h-2.654a1.3 1.3 0 0 1 -1.3-1.329z" fill="#e88600" transform="translate(-63.198 -24.2)"/></svg>