<svg height="17.714" viewBox="0 0 17.317 17.714" width="17.317" xmlns="http://www.w3.org/2000/svg"><path d="m18.844 36.2h-12.171l2.4-.676a.406.406 0 0 0 .179-.106l9.563-9.74 1.331-1.347a.4.4 0 0 0 0-.567l-3.287-3.348a.4.4 0 0 0 -.577 0l-10.892 11.094a.4.4 0 0 0 -.1.177l-1.26 4.625a.466.466 0 0 0 .375.7h14.439a.4.4 0 1 0 0-.808zm-2.275-14.923 2.72 2.77-1.052 1.065-.659.671-2.716-2.767zm-2.274 2.317 2.716 2.767-8.02 8.168-2.716-2.767zm-8.395 8.936 2.346 2.39-3.246.916z" fill="#fff" stroke="#fff" transform="translate(-3.496 -19.796)"/></svg>