<svg height="18" viewBox="0 0 18.308 18" width="18.308" xmlns="http://www.w3.org/2000/svg"><g fill-rule="evenodd"><path d="m9.663 19.556a1.2 1.2 0 0 0 -1.514.055 2.72 2.72 0 0 0 -.431.595l-.005-3.664a1.172 1.172 0 0 0 -1.068-1.22.954.954 0 0 0 -.645.251 1.023 1.023 0 0 0 -.87-.557 1.112 1.112 0 0 0 -1 .78.89.89 0 0 0 -.52-.17 1.174 1.174 0 0 0 -1.072 1.045.9.9 0 0 0 -.466-.13 1.189 1.189 0 0 0 -1.072 1.221v5.994c-.005 1.44-.006 1.526.575 2.3l.037.049v1.132c0 .33.008 1.207 1.062 1.207h3.8c.622 0 .938-.411.938-1.22v-1.016a2.778 2.778 0 0 0 1.524-2.583 5.971 5.971 0 0 1 .733-2.773c.535-.741.132-1.177 0-1.293" fill="#f2d4a3" transform="translate(-1 -10.44)"/><path d="m40.649 23.756v-5.994a1.189 1.189 0 0 0 -1.074-1.22.9.9 0 0 0 -.466.13 1.173 1.173 0 0 0 -1.072-1.045.89.89 0 0 0 -.52.17 1.112 1.112 0 0 0 -1-.78 1.024 1.024 0 0 0 -.87.556.956.956 0 0 0 -.647-.252 1.171 1.171 0 0 0 -1.068 1.22v3.665a2.686 2.686 0 0 0 -.431-.595 1.2 1.2 0 0 0 -1.514-.055c-.136.116-.538.552 0 1.293a5.973 5.973 0 0 1 .733 2.773 2.778 2.778 0 0 0 1.52 2.578v1.015c0 .3 0 1.22.938 1.22h3.8c1.055 0 1.06-.868 1.062-1.22v-1.115l.037-.049c.581-.769.581-.855.575-2.3" fill="#f2d4a3" transform="translate(-22.343 -10.44)"/><path d="m26.023 3.584a2.028 2.028 0 0 0 .2-2.843 2.069 2.069 0 0 0 -1.517-.725 1.7 1.7 0 0 0 -1.349.624 1.69 1.69 0 0 0 -1.34-.624 2.064 2.064 0 0 0 -1.517.723 1.945 1.945 0 0 0 -.5 1.387 2.048 2.048 0 0 0 .7 1.461c.436.4 2.421 2.419 2.44 2.439a.306.306 0 0 0 .218.091.305.305 0 0 0 .217-.091c.02-.02 2.011-2.037 2.444-2.442" fill="#e88600" transform="translate(-14.204 -.016)"/></g></svg>