<svg height="19.29" viewBox="0 0 23.556 19.29" width="23.556" xmlns="http://www.w3.org/2000/svg"><path d="m8.429 8.235a.8.8 0 0 0 -.8.8v2.408a.4.4 0 1 1 -.8 0v-2.405a1.606 1.606 0 0 1 1.69-1.606c.04-.04 0 .052.606-5.427a.9.9 0 0 0 -1.725-.441l-2.226 5.407c-.478 1.136-.309 1.606 0 6.334a.8.8 0 0 1 -.466.783l-4.708 2.175 4.415 3.211 3.95-3.291c1.12-.931.867-1.549.867-7.145a.8.8 0 0 0 -.803-.803z" fill="#fff" transform="translate(2.145 -.185)"/><path d="m29.5 14.071a.8.8 0 0 1 -.466-.783l.305-4.54c.08-1.232-.14-1.413-2.521-7.2a.9.9 0 0 0 -1.726.337c0 .04.57 5.491.61 5.531a1.606 1.606 0 0 1 1.69 1.6v2.414a.4.4 0 1 1 -.8 0v-2.409a.8.8 0 0 0 -1.369-.566c-.329.317-.237.153-.237 5.86a2.408 2.408 0 0 0 .867 1.85l3.95 3.292 4.415-3.211z" fill="#fff" transform="translate(-12.802 -.168)"/><path d="m23.651 18.7h-1.743a.9.9 0 0 0 0 1.8h1.743a.9.9 0 0 0 0-1.8zm-2.418 4.538a.9.9 0 1 0 -1.272 1.274l1.226 1.233a.9.9 0 0 0 1.272-1.272zm-.633-7.022a.9.9 0 0 0 .637-.264l1.231-1.231a.9.9 0 1 0 -1.279-1.272l-1.228 1.231a.9.9 0 0 0 .637 1.536zm-16.063 3.384a.9.9 0 0 0 -.9-.9h-1.737a.9.9 0 0 0 0 1.8h1.74a.9.9 0 0 0 .9-.9zm.413-3.38a.9.9 0 0 0 .637-1.536l-1.226-1.234a.9.9 0 0 0 -1.271 1.271l1.231 1.231a.9.9 0 0 0 .629.264zm-.635 7.019-1.232 1.229a.9.9 0 0 0 1.279 1.274l1.226-1.233a.9.9 0 1 0 -1.272-1.274z" fill="#0c534e" transform="translate(-.995 -13.184)"/></svg>