<svg height="20" viewBox="0 0 26.698 20" width="26.698" xmlns="http://www.w3.org/2000/svg"><path d="m1.617.265a.956.956 0 1 0 -1.327 1.377 3.087 3.087 0 0 1 .97 2.271 3.144 3.144 0 0 1 -.97 2.271.962.962 0 0 0 -.025 1.352.911.911 0 0 0 .689.306.945.945 0 0 0 .663-.255 5.092 5.092 0 0 0 1.556-3.674 4.883 4.883 0 0 0 -1.556-3.648z" fill="#e88600" transform="matrix(.98162718 -.190809 .190809 .98162718 18.11 4.347)"/><path d="m1.593.241a.965.965 0 0 0 -1.352.077.965.965 0 0 0 .077 1.352 6.656 6.656 0 0 1 2.22 4.975 6.749 6.749 0 0 1 -2.22 4.975.965.965 0 0 0 -.077 1.352.965.965 0 0 0 .714.306.886.886 0 0 0 .638-.255 8.622 8.622 0 0 0 2.857-6.4 8.609 8.609 0 0 0 -2.857-6.382z" fill="#e88600" transform="matrix(.98162718 -.190809 .190809 .98162718 19.795 1.262)"/><path d="m12.246 0a3.19 3.19 0 0 0 -2.526 1.658l-6.71 3.062a1.559 1.559 0 0 0 -.765-.2c-1.556-.004-2.245 2.113-2.245 4.08s.714 4.08 2.245 4.08a1.559 1.559 0 0 0 .765-.2l6.71 3.062a3.19 3.19 0 0 0 2.526 1.658c2.041 0 4.108-2.959 4.108-8.6s-2.067-8.6-4.108-8.6zm0 15.282c-.74 0-2.194-2.347-2.194-6.684s1.454-6.684 2.194-6.684 2.194 2.347 2.194 6.686-1.454 6.682-2.194 6.682z" fill="#f2d4a3" transform="matrix(.98162718 -.190809 .190809 .98162718 0 3.12)"/><ellipse cx=".969" cy="1.99" fill="#e88600" rx=".969" ry="1.99" transform="matrix(.98162718 -.190809 .190809 .98162718 12.33 7.455)"/></svg>