<svg height="19.5" viewBox="0 0 15.303 19.5" width="15.303" xmlns="http://www.w3.org/2000/svg"><path d="m1.376 18.5 11-17" fill="none" stroke="#e88600"/><path d="m26.5 10.366a.369.369 0 0 0 -.38-.35 10.638 10.638 0 0 1 -6.983-2.338.369.369 0 0 0 -.479 0 10.638 10.638 0 0 1 -6.983 2.338.369.369 0 0 0 -.38.35c-.144 3.713-.063 8.421 1.552 10.633a17.166 17.166 0 0 0 6.05 4.59 17.259 17.259 0 0 0 6.052-4.589c1.615-2.213 1.696-6.921 1.551-10.634z" fill="#f2d4a3" transform="translate(-11.248 -6.09)"/><path d="m22.151 14.743-3.751 4.122a.567.567 0 0 1 -.4.181h-.007a.547.547 0 0 1 -.395-.17l-1.94-1.976a.554.554 0 0 1 .793-.774l1.523 1.56 3.358-3.686a.553.553 0 1 1 .819.745z" fill="#0c534e" stroke="#0c534e" transform="translate(-11.247 -6.09)"/><g fill="#e88600"><circle cx="12.376" cy="1.5" r="1.5"/><path d="m.722-.108a1 1 0 1 1 -1 1 1 1 0 0 1 1-1z" transform="translate(.876 17)"/></g></svg>