<svg height="18" viewBox="0 0 21.909 18" width="21.909" xmlns="http://www.w3.org/2000/svg"><path d="m338.3 2334.868h21.909" fill="none" stroke="#e88600" transform="translate(-338.3 -2330.5)"/><path d="m23.461 10v-3.839a1.156 1.156 0 0 0 -1.161-1.161h-.129l-10.161 1.613a1.166 1.166 0 0 0 -1.1 1.161v10.516a3.574 3.574 0 0 0 -1.578-.39 2.812 2.812 0 0 0 -3.032 2.552 2.812 2.812 0 0 0 3.032 2.548 2.812 2.812 0 0 0 3.032-2.548c0-.161-.032-.323-.032-.484v-7.868l9.742-1.419v3.935a3.574 3.574 0 0 0 -1.581-.387 2.812 2.812 0 0 0 -3.032 2.548 2.812 2.812 0 0 0 3.032 2.548 2.812 2.812 0 0 0 3.032-2.548c0-.161-.032-.323-.032-.484v-6.293z" fill="#f2d4a3" transform="translate(-6.3 -5)"/><path d="m338.3 2334.868h21.909" fill="none" stroke="#e88600" transform="translate(-338.3 -2325.868)"/></svg>