<svg height="18" viewBox="0 0 23.556 18" width="23.556" xmlns="http://www.w3.org/2000/svg"><path d="m23.651 18.7h-1.743a.9.9 0 0 0 0 1.8h1.743a.9.9 0 0 0 0-1.8zm-2.418 4.538a.9.9 0 1 0 -1.272 1.274l1.226 1.233a.9.9 0 0 0 1.272-1.272zm-.633-7.022a.9.9 0 0 0 .637-.264l1.231-1.231a.9.9 0 1 0 -1.279-1.272l-1.228 1.231a.9.9 0 0 0 .637 1.536zm-16.063 3.384a.9.9 0 0 0 -.9-.9h-1.737a.9.9 0 0 0 0 1.8h1.74a.9.9 0 0 0 .9-.9zm.413-3.38a.9.9 0 0 0 .637-1.536l-1.226-1.234a.9.9 0 0 0 -1.271 1.271l1.231 1.231a.9.9 0 0 0 .629.264zm-.635 7.019-1.232 1.229a.9.9 0 0 0 1.279 1.274l1.226-1.233a.9.9 0 1 0 -1.272-1.274z" fill="#e88600" transform="translate(-.995 -11.239)"/><path d="m36.357 19.1a6.579 6.579 0 0 1 -2.779 5.363.462.462 0 0 0 -.2.373v2.4a1.8 1.8 0 0 1 -1.531 1.776v.695a.822.822 0 0 1 -.822.822h-2.466a.822.822 0 0 1 -.815-.822v-.7a1.8 1.8 0 0 1 -1.531-1.776v-2.4a.466.466 0 0 0 -.2-.375 6.562 6.562 0 1 1 10.344-5.356z" fill="#f2d4a3" transform="translate(-17.888 -12.536)"/><path d="m41.255 27.381a.9.9 0 0 1 -.9.906 1.418 1.418 0 0 0 -1.415 1.413.9.9 0 1 1 -1.8 0 3.219 3.219 0 0 1 3.216-3.223.9.9 0 0 1 .9.9z" fill="#0c534e" transform="translate(-29.303 -23.984)"/></svg>