<svg height="25.132" viewBox="0 0 26.58 25.132" width="26.58" xmlns="http://www.w3.org/2000/svg"><path d="m2 2 2 4" fill="none" stroke="#e88600" stroke-linecap="round" stroke-width="2" transform="translate(7.982 -.658)"/><path d="m4 2-2 4" fill="none" stroke="#e88600" stroke-linecap="round" stroke-width="2" transform="translate(12.29 -.658)"/><path d="m25.29 10.21h-18.58a4 4 0 0 0 -4 4v12.79a4 4 0 0 0 4 4h18.58a4 4 0 0 0 4-4v-12.79a4 4 0 0 0 -4-4zm-12.41 10.26a1 1 0 0 1 -.71-1.71l2.42-2.41a1 1 0 1 1 1.41 1.41l-2.41 2.42a1 1 0 0 1 -.71.29zm9.69-1.67-6.65 6.66a1 1 0 1 1 -1.42-1.42l6.66-6.65a1 1 0 1 1 1.41 1.41z" fill="#f2d4a3" transform="translate(-2.71 -5.868)"/></svg>