<svg height="24.699" viewBox="0 0 32.971 24.699" width="32.971" xmlns="http://www.w3.org/2000/svg"><g fill="#9eb1af"><path d="m73.259 34.889a1.181 1.181 0 1 0 -1.638 1.7 3.813 3.813 0 0 1 1.2 2.8 3.883 3.883 0 0 1 -1.2 2.8 1.189 1.189 0 0 0 -.032 1.67 1.125 1.125 0 0 0 .851.378 1.166 1.166 0 0 0 .819-.315 6.289 6.289 0 0 0 1.922-4.537 6.03 6.03 0 0 0 -1.922-4.496z" transform="matrix(.98162718 -.190809 .190809 .98162718 -54.183 -14.962)"/><path d="m82.022 24.252a1.183 1.183 0 1 0 -1.575 1.764 8.22 8.22 0 0 1 2.741 6.144 8.334 8.334 0 0 1 -2.741 6.14 1.167 1.167 0 0 0 .788 2.048 1.094 1.094 0 0 0 .788-.315 10.591 10.591 0 0 0 0-15.785z" transform="matrix(.98162718 -.190809 .190809 .98162718 -58.708 -6.681)"/><path d="m17.623 16.3a3.94 3.94 0 0 0 -3.123 2.048l-8.282 3.781a1.925 1.925 0 0 0 -.945-.252c-1.922 0-2.773 2.615-2.773 5.041s.882 5.041 2.773 5.041a1.925 1.925 0 0 0 .945-.252l8.282 3.781a3.94 3.94 0 0 0 3.119 2.048c2.521 0 5.073-3.655 5.073-10.618s-2.548-10.618-5.069-10.618zm0 18.873c-.914 0-2.71-2.9-2.71-8.255s1.8-8.255 2.71-8.255 2.71 2.9 2.71 8.255-1.796 8.255-2.71 8.255z" transform="matrix(.98162718 -.190809 .190809 .98162718 -5.564 -11.67)"/><ellipse cx="1.197" cy="2.458" rx="1.197" ry="2.458" transform="matrix(.98162718 -.190809 .190809 .98162718 15.227 9.207)"/></g></svg>