<svg xmlns="http://www.w3.org/2000/svg" width="87.57" height="89.543" viewBox="0 0 87.57 89.543"><defs><style>.a{fill:#fff;}.b{fill:#feb94a;}</style></defs><g transform="translate(-9.799 -9.006)"><path class="a" d="M24.166,40.6v11.78H78.56V40.6a6.571,6.571,0,0,1,5.255-6.43c-.432-5.059-3.944-25.167-32.452-25.167-28.577,0-32.038,20.112-32.455,25.167A6.571,6.571,0,0,1,24.166,40.6Z" transform="translate(2.221)"/><path class="b" d="M9.8,87.658h4.483l19.67-33.991H23.673Z" transform="translate(0 10.891)"/><path class="b" d="M14.584,35.207V52.6a4.079,4.079,0,0,0,4.074,4.074H86.176A4.079,4.079,0,0,0,90.25,52.6V35.207a4.074,4.074,0,1,0-8.148,0V48.231a1.243,1.243,0,0,1-1.244,1.244H23.976a1.243,1.243,0,0,1-1.244-1.244V35.207a4.074,4.074,0,0,0-8.148,0Z" transform="translate(1.167 5.396)"/><path class="b" d="M71.062,53.667H60.783l19.67,33.991h4.483Z" transform="translate(12.433 10.891)"/></g></svg>