<svg xmlns="http://www.w3.org/2000/svg" width="18.957" height="22.5" viewBox="0 0 18.957 22.5"><defs><style>.a,.b{fill:#0c534e;}.a{stroke:#0c534e;stroke-width:0.5px;}</style></defs><g transform="translate(-7.547 -0.121)"><g transform="translate(7.797 0.371)"><path class="a" d="M19.5,22.326a.61.61,0,0,0,.5-.019l5.912-2.936a.613.613,0,0,0,.34-.548V4.489a.612.612,0,0,0-.884-.548l-1.507.748c0-.06.008-.119.008-.177a4.141,4.141,0,0,0-8.282,0c0,.07,0,.142.011.215L13.244,3.91a.61.61,0,0,0-.474.031L8.136,6.258a.612.612,0,0,0-.339.548V21.143a.612.612,0,0,0,.854.563l4.508-1.936ZM13.044,10.736a1.707,1.707,0,0,1,1.7,1.7,6.741,6.741,0,0,1-1.705,2.779,6.73,6.73,0,0,1-1.7-2.779A1.706,1.706,0,0,1,13.044,10.736Zm11.985-5.26V18.443l-4.687,2.328v-10.4a20.074,20.074,0,0,0,3-4.053Zm-5.3-3.88a2.919,2.919,0,0,1,2.917,2.915c0,1.106-1.641,3.3-2.917,4.714-1.276-1.417-2.916-3.609-2.916-4.714A2.919,2.919,0,0,1,19.729,1.6Zm-.612,8.773V20.851l-5.461-2.2v-2.28c.636-.685,2.317-2.619,2.317-3.928a2.933,2.933,0,0,0-2.317-2.864V5.349l2.4.831A19.571,19.571,0,0,0,19.117,10.368ZM9.021,7.184l3.41-1.7v4.1a2.933,2.933,0,0,0-2.317,2.864c0,1.309,1.68,3.243,2.317,3.928v2.38l-3.41,1.465Z" transform="translate(-7.797 -0.371)"/><path class="b" d="M27.058,48.449a.678.678,0,1,0-.677-.677A.678.678,0,0,0,27.058,48.449Z" transform="translate(-21.831 -35.662)"/><path class="b" d="M52.367,10.747A1.867,1.867,0,1,0,50.5,12.616,1.869,1.869,0,0,0,52.367,10.747Zm-2.581,0a.714.714,0,1,1,.713.715A.714.714,0,0,1,49.786,10.747Z" transform="translate(-38.524 -6.927)"/></g></g></svg>