<svg height="27.574" viewBox="0 0 32.17 27.574" width="32.17" xmlns="http://www.w3.org/2000/svg"><g fill="#fff" transform="translate(-43.836 -87.671)"><path d="m267.609 306.849a4.6 4.6 0 1 0 4.6 4.6 4.6 4.6 0 0 0 -4.6-4.6zm0 0a4.6 4.6 0 1 0 4.6 4.6 4.6 4.6 0 0 0 -4.6-4.6zm0 0a4.6 4.6 0 1 0 4.6 4.6 4.6 4.6 0 0 0 -4.6-4.6z" transform="translate(-207.689 -207.689)"/><path d="m74.857 92.267h-8.043v-3.447a1.149 1.149 0 0 0 -1.149-1.149h-11.489a1.149 1.149 0 0 0 -1.149 1.149v3.447h-2.3v-1.149a1.149 1.149 0 0 0 -1.149-1.149h-2.3a1.149 1.149 0 0 0 -1.149 1.149v1.149h-1.144a1.149 1.149 0 0 0 -1.149 1.149v20.684a1.149 1.149 0 0 0 1.149 1.149h29.872a1.149 1.149 0 0 0 1.149-1.149v-20.684a1.149 1.149 0 0 0 -1.149-1.149zm-14.936 18.383a6.894 6.894 0 1 1 6.894-6.894 6.894 6.894 0 0 1 -6.894 6.894zm11.489-12.638h-3.447a1.149 1.149 0 0 1 0-2.3h3.447a1.149 1.149 0 0 1 0 2.3z"/></g></svg>