<svg xmlns="http://www.w3.org/2000/svg" width="43.281" height="21.121" viewBox="0 0 43.281 21.121"><defs><style>.a{fill:#0c534e;}</style></defs><path class="a" d="M104.475,285h23.118a2.112,2.112,0,0,0,0-4.225H104.475C98.358,280.777,96.324,285,104.475,285Zm0,0" transform="translate(-99.098 -272.329)"/><path class="a" d="M2.112,235.839a2.111,2.111,0,0,0,1.172-.355l12.672-8.449a2.112,2.112,0,0,0,0-3.514L3.284,215.072A2.112,2.112,0,0,0,0,216.829v16.9a2.111,2.111,0,0,0,2.112,2.112Zm8.865-10.561-6.753,4.5v-9.005Zm0,0" transform="translate(26.384 -214.718)"/></svg>