<svg height="16.063" viewBox="0 0 15.999 16.063" width="15.999" xmlns="http://www.w3.org/2000/svg"><g fill="#0c534e"><path d="m22.6 44.8v3.7a1.851 1.851 0 1 0 0-3.7zm0 5.126c-.037 0-.073 0-.11-.006a3.185 3.185 0 0 1 -3.066 2.363h-6.368a3.186 3.186 0 0 1 -3.176-3.177v-7.462h12.72v1.731a3.275 3.275 0 0 1 0 6.55zm-11.666-.819a2.12 2.12 0 0 0 2.117 2.117h3.066v-8.524h-5.178z" transform="translate(-9.88 -36.219)"/><path d="m42 18.632c-.064.064-.381.413.127 1.143a2.636 2.636 0 0 1 .476 1.27.806.806 0 0 1 -1.429.572c.064-.064.381-.445-.1-1.175a2.636 2.636 0 0 1 -.476-1.27.793.793 0 0 1 1.402-.54zm-3.208-.826c-.064.064-.381.413.127 1.143a2.636 2.636 0 0 1 .476 1.27.806.806 0 0 1 -1.429.572c.064-.064.381-.445-.1-1.175a2.636 2.636 0 0 1 -.476-1.27.79.79 0 0 1 1.401-.54zm-3.208.826c-.064.064-.381.413.127 1.143a2.636 2.636 0 0 1 .476 1.27.806.806 0 0 1 -1.429.572c.064-.064.381-.445-.1-1.175a2.636 2.636 0 0 1 -.476-1.27.79.79 0 0 1 1.402-.54z" transform="translate(-32.673 -17.53)"/></g></svg>